%TF.GenerationSoftware,KiCad,Pcbnew,10.0.6-1.fc44*%
%TF.CreationDate,2026-09-11T21:13:21+02:00*%
%TF.ProjectId,Orion,4f72696f-6e2e-46b6-9963-61645f706362,rev?*%
%TF.SameCoordinates,Original*%
%TF.FileFunction,Copper,L2,Inr*%
%TF.FilePolarity,Positive*%
%FSLAX46Y46*%
G04 Gerber Fmt 4.6, Leading zero omitted, Abs format (unit mm)*
G04 Created by KiCad (PCBNEW 10.0.6-1.fc44) date 2026-09-11 21:13:21*
%MOMM*%
%LPD*%
G01*
G04 APERTURE LIST*
G04 Aperture macros list*
%AMRoundRect*
0 Rectangle with rounded corners*
0 $1 Rounding radius*
0 $2 $3 $4 $5 $6 $7 $8 $9 X,Y pos of 4 corners*
0 Add a 4 corners polygon primitive as box body*
4,1,4,$2,$3,$4,$5,$6,$7,$8,$9,$2,$3,0*
0 Add four circle primitives for the rounded corners*
1,1,$1+$1,$2,$3*
1,1,$1+$1,$4,$5*
1,1,$1+$1,$6,$7*
1,1,$1+$1,$8,$9*
0 Add four rect primitives between the rounded corners*
20,1,$1+$1,$2,$3,$4,$5,0*
20,1,$1+$1,$4,$5,$6,$7,0*
20,1,$1+$1,$6,$7,$8,$9,0*
20,1,$1+$1,$8,$9,$2,$3,0*%
G04 Aperture macros list end*
%TA.AperFunction,ComponentPad*%
%ADD10RoundRect,0.250000X0.725000X-0.600000X0.725000X0.600000X-0.725000X0.600000X-0.725000X-0.600000X0*%
%TD*%
%TA.AperFunction,ComponentPad*%
%ADD11O,1.950000X1.700000*%
%TD*%
%TA.AperFunction,ComponentPad*%
%ADD12O,1.000000X2.100000*%
%TD*%
%TA.AperFunction,ComponentPad*%
%ADD13O,1.000000X1.800000*%
%TD*%
%TA.AperFunction,ComponentPad*%
%ADD14RoundRect,0.250000X-0.550000X0.550000X-0.550000X-0.550000X0.550000X-0.550000X0.550000X0.550000X0*%
%TD*%
%TA.AperFunction,ComponentPad*%
%ADD15C,1.600000*%
%TD*%
%TA.AperFunction,ComponentPad*%
%ADD16R,1.700000X1.700000*%
%TD*%
%TA.AperFunction,ComponentPad*%
%ADD17C,1.700000*%
%TD*%
%TA.AperFunction,ComponentPad*%
%ADD18C,5.600000*%
%TD*%
%TA.AperFunction,ComponentPad*%
%ADD19RoundRect,0.250000X-0.600000X-0.750000X0.600000X-0.750000X0.600000X0.750000X-0.600000X0.750000X0*%
%TD*%
%TA.AperFunction,ComponentPad*%
%ADD20O,1.700000X2.000000*%
%TD*%
%TA.AperFunction,ViaPad*%
%ADD21C,0.700000*%
%TD*%
G04 APERTURE END LIST*
D10*
%TO.N,M1_A+*%
%TO.C,J3*%
X67498000Y-53809800D03*
D11*
%TO.N,M1_A-*%
X67498000Y-51309800D03*
%TO.N,M1_B+*%
X67498000Y-48809800D03*
%TO.N,M1_B-*%
X67498000Y-46309800D03*
%TD*%
D12*
%TO.N,GND*%
%TO.C,J2*%
X128727000Y-99524600D03*
X137367000Y-99524600D03*
D13*
X128727000Y-103704600D03*
X137367000Y-103704600D03*
%TD*%
D14*
%TO.N,VM*%
%TO.C,C17*%
X93245200Y-80450188D03*
D15*
%TO.N,GND*%
X93245200Y-82450188D03*
%TD*%
D16*
%TO.N,/Project Architecture/Connectors/IMU_SDA*%
%TO.C,J1*%
X148033000Y-42211200D03*
D17*
%TO.N,/Project Architecture/Connectors/IMU_SCL*%
X148033000Y-44751200D03*
%TO.N,+3.3V*%
X148033000Y-47291200D03*
%TO.N,GND*%
X148033000Y-49831200D03*
%TD*%
D18*
%TO.N,GND*%
%TO.C,H2*%
X68826000Y-38690000D03*
%TD*%
D19*
%TO.N,Net-(BT1-+)*%
%TO.C,BT1*%
X114700900Y-101071400D03*
D20*
%TO.N,GND*%
X117200900Y-101071400D03*
%TD*%
D14*
%TO.N,VM*%
%TO.C,C18*%
X93322800Y-52347288D03*
D15*
%TO.N,GND*%
X93322800Y-54347288D03*
%TD*%
D18*
%TO.N,GND*%
%TO.C,H4*%
X146296000Y-99650000D03*
%TD*%
D16*
%TO.N,+3.3V*%
%TO.C,J6*%
X148033000Y-54581000D03*
D17*
%TO.N,GND*%
X148033000Y-57121000D03*
%TO.N,A4988_DIR*%
X148033000Y-59661000D03*
%TO.N,A4988_STEP*%
X148033000Y-62201000D03*
%TD*%
D10*
%TO.N,M2_A+*%
%TO.C,J4*%
X67523400Y-67830600D03*
D11*
%TO.N,M2_A-*%
X67523400Y-65330600D03*
%TO.N,M2_B+*%
X67523400Y-62830600D03*
%TO.N,M2_B-*%
X67523400Y-60330600D03*
%TD*%
D10*
%TO.N,M3_A+*%
%TO.C,J5*%
X67548800Y-81902200D03*
D11*
%TO.N,M3_A-*%
X67548800Y-79402200D03*
%TO.N,M3_B+*%
X67548800Y-76902200D03*
%TO.N,M3_B-*%
X67548800Y-74402200D03*
%TD*%
D18*
%TO.N,GND*%
%TO.C,H3*%
X132326000Y-67646000D03*
%TD*%
D14*
%TO.N,VM*%
%TO.C,C16*%
X93296000Y-66386588D03*
D15*
%TO.N,GND*%
X93296000Y-68386588D03*
%TD*%
D18*
%TO.N,GND*%
%TO.C,H1*%
X70096000Y-100412000D03*
%TD*%
D21*
%TO.N,+3.3V*%
X118416600Y-94789200D03*
X126011200Y-57095600D03*
X76709800Y-86051600D03*
X129386550Y-83463650D03*
%TO.N,GND*%
X115851200Y-35327800D03*
X124766600Y-54504800D03*
X78056000Y-75485200D03*
X75897000Y-58543400D03*
X115673400Y-40382400D03*
X77903600Y-47164200D03*
X124944400Y-87550200D03*
X77395600Y-83689400D03*
X87225400Y-84299000D03*
X85574400Y-70659200D03*
X129999000Y-35454800D03*
X124436400Y-93747800D03*
X96064600Y-100021600D03*
X149455400Y-104923800D03*
X92610200Y-98980200D03*
X146991600Y-60981800D03*
X79554600Y-56663800D03*
X90197200Y-97405400D03*
X85980800Y-47799200D03*
X112523800Y-95754400D03*
X73052200Y-47443600D03*
X85117200Y-55368400D03*
X112219000Y-40484000D03*
X84482200Y-82267000D03*
X117172000Y-57908400D03*
X124309400Y-58492600D03*
X115597200Y-96160800D03*
X128576600Y-93671600D03*
X90070200Y-99488200D03*
X112396800Y-48866000D03*
X112727000Y-53336400D03*
X86692000Y-75942400D03*
X73687200Y-52599800D03*
X112600000Y-93849400D03*
X114428800Y-52980800D03*
X73865000Y-78228400D03*
X75744600Y-69440000D03*
X133148600Y-35277000D03*
X126443000Y-83486200D03*
X99265000Y-96541800D03*
X107393000Y-105203200D03*
X113539800Y-91284000D03*
X73839600Y-67255600D03*
X133047000Y-37791600D03*
X114454200Y-81886000D03*
X130329200Y-94586000D03*
X113565200Y-97964200D03*
X131218200Y-53209400D03*
X85498200Y-72335600D03*
X75922400Y-72970600D03*
X75922400Y-83740200D03*
X146737600Y-46046600D03*
X135968000Y-60931000D03*
X79884800Y-70735400D03*
X115952800Y-93646200D03*
X85523600Y-43481200D03*
X115597200Y-45462400D03*
X110009200Y-52955400D03*
X88114400Y-99234200D03*
X124995200Y-90877600D03*
X83110600Y-56232000D03*
X103964000Y-100666000D03*
X95150200Y-105101600D03*
X86387200Y-102129800D03*
X110771200Y-95602000D03*
X72772800Y-75815400D03*
X140794000Y-43582800D03*
X81078600Y-83486200D03*
X75693800Y-45360800D03*
X127890800Y-87448600D03*
X147779000Y-52168000D03*
X114022400Y-76348800D03*
X131370600Y-89455200D03*
X78081400Y-40179200D03*
X124258600Y-60550000D03*
X116613200Y-50618600D03*
X105640400Y-45767200D03*
X65051200Y-34819800D03*
X128957600Y-55647800D03*
X85650600Y-58365600D03*
X124893600Y-75231200D03*
X90400400Y-60829400D03*
X133021600Y-41525400D03*
X119966000Y-81276400D03*
X120220000Y-51177400D03*
X140082800Y-35531000D03*
X146890000Y-63699600D03*
X124334800Y-64309200D03*
X73509400Y-64029800D03*
X86107800Y-61820000D03*
X136069600Y-95500400D03*
X78208400Y-61439000D03*
X73128400Y-80641400D03*
X84406000Y-68017600D03*
X131878600Y-86940600D03*
X73611000Y-50110600D03*
X146270600Y-37013600D03*
X95912200Y-37715400D03*
X85752200Y-105050800D03*
X89968600Y-54200000D03*
X130075200Y-51507600D03*
X110720400Y-98243600D03*
X109450400Y-93671600D03*
%TO.N,VM*%
X83223800Y-75952900D03*
X83301400Y-52473100D03*
X83274600Y-66512400D03*
X83223800Y-80576000D03*
X83301400Y-47850000D03*
X83274600Y-61889300D03*
%TO.N,Net-(U1-IO0)*%
X133199400Y-51863200D03*
X139778000Y-38350400D03*
%TO.N,M1_A+*%
X84761600Y-50671600D03*
%TO.N,M1_A-*%
X82348600Y-53717400D03*
%TO.N,M1_B+*%
X84707296Y-49773237D03*
%TO.N,M1_B-*%
X83136000Y-46826300D03*
%TO.N,VB*%
X130659400Y-97659400D03*
X135460000Y-97659400D03*
%TO.N,STEP2*%
X115597200Y-48027800D03*
X78972729Y-69520214D03*
%TO.N,/Project Architecture/MCU/INA_SDA*%
X122175800Y-51558400D03*
X114428800Y-91004600D03*
%TO.N,/Project Architecture/MCU/INA_SCL*%
X115724200Y-91030000D03*
X123445800Y-51558400D03*
%TO.N,STEP3*%
X79275200Y-83841800D03*
X118365800Y-51558400D03*
%TO.N,M2_B-*%
X83109200Y-60865600D03*
%TO.N,DIR2*%
X84609200Y-69109800D03*
X115597200Y-46757800D03*
%TO.N,M2_A-*%
X82321800Y-67756700D03*
%TO.N,M2_A+*%
X84734800Y-64710900D03*
%TO.N,M2_B+*%
X84680496Y-63812537D03*
%TO.N,DIR1*%
X115597200Y-42947800D03*
X83847200Y-55368400D03*
%TO.N,RX1*%
X115597200Y-39137800D03*
X74122800Y-45306200D03*
%TO.N,RX2*%
X74068200Y-59584800D03*
X115597200Y-44217800D03*
%TO.N,M3_A+*%
X84684000Y-78774500D03*
%TO.N,M3_A-*%
X82271000Y-81820300D03*
%TO.N,M3_B+*%
X84629696Y-77876137D03*
%TO.N,M3_B-*%
X83058400Y-74929200D03*
%TO.N,DIR3*%
X117095800Y-51558400D03*
X84355200Y-83841800D03*
%TO.N,RX3*%
X115597200Y-49297800D03*
X74045200Y-73681800D03*
%TO.N,STEP1*%
X79249800Y-55393800D03*
X115597200Y-41677800D03*
%TD*%
%TA.AperFunction,Conductor*%
%TO.N,GND*%
G36*
X150011539Y-34175585D02*
G01*
X150057294Y-34228389D01*
X150068500Y-34279900D01*
X150068500Y-105463700D01*
X150048815Y-105530739D01*
X149996011Y-105576494D01*
X149944500Y-105587700D01*
X64638300Y-105587700D01*
X64571261Y-105568015D01*
X64525506Y-105515211D01*
X64514300Y-105463700D01*
X64514300Y-104173546D01*
X128026999Y-104173546D01*
X128053899Y-104308776D01*
X128053902Y-104308786D01*
X128106664Y-104436166D01*
X128106671Y-104436179D01*
X128183275Y-104550826D01*
X128280773Y-104648324D01*
X128395420Y-104724928D01*
X128395424Y-104724930D01*
X128477000Y-104758719D01*
X128477000Y-104271588D01*
X128486940Y-104288805D01*
X128542795Y-104344660D01*
X128611204Y-104384156D01*
X128687504Y-104404600D01*
X128766496Y-104404600D01*
X128842796Y-104384156D01*
X128911205Y-104344660D01*
X128967060Y-104288805D01*
X128977000Y-104271588D01*
X128977000Y-104758718D01*
X129058575Y-104724930D01*
X129058579Y-104724928D01*
X129173226Y-104648324D01*
X129270724Y-104550826D01*
X129347328Y-104436179D01*
X129347335Y-104436166D01*
X129400097Y-104308786D01*
X129400100Y-104308776D01*
X129427000Y-104173546D01*
X136666999Y-104173546D01*
X136693899Y-104308776D01*
X136693902Y-104308786D01*
X136746664Y-104436166D01*
X136746671Y-104436179D01*
X136823275Y-104550826D01*
X136920773Y-104648324D01*
X137035420Y-104724928D01*
X137035424Y-104724930D01*
X137117000Y-104758719D01*
X137117000Y-104271588D01*
X137126940Y-104288805D01*
X137182795Y-104344660D01*
X137251204Y-104384156D01*
X137327504Y-104404600D01*
X137406496Y-104404600D01*
X137482796Y-104384156D01*
X137551205Y-104344660D01*
X137607060Y-104288805D01*
X137617000Y-104271588D01*
X137617000Y-104758718D01*
X137698575Y-104724930D01*
X137698579Y-104724928D01*
X137813226Y-104648324D01*
X137910724Y-104550826D01*
X137987328Y-104436179D01*
X137987335Y-104436166D01*
X138040097Y-104308786D01*
X138040100Y-104308776D01*
X138067000Y-104173546D01*
X138067000Y-103954600D01*
X137667000Y-103954600D01*
X137667000Y-103454600D01*
X138067000Y-103454600D01*
X138067000Y-103235653D01*
X138040100Y-103100423D01*
X138040097Y-103100413D01*
X137987335Y-102973033D01*
X137987328Y-102973020D01*
X137910724Y-102858373D01*
X137813226Y-102760875D01*
X137698573Y-102684267D01*
X137617000Y-102650479D01*
X137617000Y-103137611D01*
X137607060Y-103120395D01*
X137551205Y-103064540D01*
X137482796Y-103025044D01*
X137406496Y-103004600D01*
X137327504Y-103004600D01*
X137251204Y-103025044D01*
X137182795Y-103064540D01*
X137126940Y-103120395D01*
X137117000Y-103137611D01*
X137117000Y-102650479D01*
X137116999Y-102650479D01*
X137035426Y-102684267D01*
X136920773Y-102760875D01*
X136823275Y-102858373D01*
X136746671Y-102973020D01*
X136746664Y-102973033D01*
X136693902Y-103100413D01*
X136693899Y-103100423D01*
X136667000Y-103235653D01*
X136667000Y-103454600D01*
X137067000Y-103454600D01*
X137067000Y-103954600D01*
X136667000Y-103954600D01*
X136667000Y-104173546D01*
X136666999Y-104173546D01*
X129427000Y-104173546D01*
X129427000Y-103954600D01*
X129027000Y-103954600D01*
X129027000Y-103454600D01*
X129427000Y-103454600D01*
X129427000Y-103235653D01*
X129400100Y-103100423D01*
X129400097Y-103100413D01*
X129347335Y-102973033D01*
X129347328Y-102973020D01*
X129270724Y-102858373D01*
X129173226Y-102760875D01*
X129058573Y-102684267D01*
X128977000Y-102650479D01*
X128977000Y-103137611D01*
X128967060Y-103120395D01*
X128911205Y-103064540D01*
X128842796Y-103025044D01*
X128766496Y-103004600D01*
X128687504Y-103004600D01*
X128611204Y-103025044D01*
X128542795Y-103064540D01*
X128486940Y-103120395D01*
X128477000Y-103137611D01*
X128477000Y-102650479D01*
X128476999Y-102650479D01*
X128395426Y-102684267D01*
X128280773Y-102760875D01*
X128183275Y-102858373D01*
X128106671Y-102973020D01*
X128106664Y-102973033D01*
X128053902Y-103100413D01*
X128053899Y-103100423D01*
X128027000Y-103235653D01*
X128027000Y-103454600D01*
X128427000Y-103454600D01*
X128427000Y-103954600D01*
X128027000Y-103954600D01*
X128027000Y-104173546D01*
X128026999Y-104173546D01*
X64514300Y-104173546D01*
X64514300Y-100267130D01*
X113650400Y-100267130D01*
X113650400Y-101875669D01*
X113653253Y-101906099D01*
X113653253Y-101906101D01*
X113698106Y-102034280D01*
X113698107Y-102034282D01*
X113778750Y-102143550D01*
X113888018Y-102224193D01*
X113930745Y-102239144D01*
X114016199Y-102269046D01*
X114046630Y-102271900D01*
X114046634Y-102271900D01*
X115355170Y-102271900D01*
X115385599Y-102269046D01*
X115385601Y-102269046D01*
X115449690Y-102246619D01*
X115513782Y-102224193D01*
X115623050Y-102143550D01*
X115703693Y-102034282D01*
X115726119Y-101970190D01*
X115748546Y-101906101D01*
X115748546Y-101906099D01*
X115751400Y-101875669D01*
X115751400Y-100817979D01*
X116150900Y-100817979D01*
X116150900Y-100821400D01*
X116767888Y-100821400D01*
X116734975Y-100878407D01*
X116700900Y-101005574D01*
X116700900Y-101137226D01*
X116734975Y-101264393D01*
X116767888Y-101321400D01*
X116150900Y-101321400D01*
X116150900Y-101324820D01*
X116191248Y-101527666D01*
X116191250Y-101527674D01*
X116270400Y-101718758D01*
X116270405Y-101718768D01*
X116385310Y-101890735D01*
X116385313Y-101890739D01*
X116531560Y-102036986D01*
X116531564Y-102036989D01*
X116703531Y-102151894D01*
X116703541Y-102151899D01*
X116894623Y-102231048D01*
X116894625Y-102231049D01*
X116950900Y-102242242D01*
X116950900Y-101504412D01*
X117007907Y-101537325D01*
X117135074Y-101571400D01*
X117266726Y-101571400D01*
X117393893Y-101537325D01*
X117450900Y-101504412D01*
X117450900Y-102242242D01*
X117507174Y-102231049D01*
X117507176Y-102231048D01*
X117698258Y-102151899D01*
X117698268Y-102151894D01*
X117870235Y-102036989D01*
X117870239Y-102036986D01*
X118016486Y-101890739D01*
X118016489Y-101890735D01*
X118131394Y-101718768D01*
X118131399Y-101718758D01*
X118210549Y-101527674D01*
X118210551Y-101527666D01*
X118250899Y-101324820D01*
X118250900Y-101324817D01*
X118250900Y-101321400D01*
X117633912Y-101321400D01*
X117666825Y-101264393D01*
X117700900Y-101137226D01*
X117700900Y-101005574D01*
X117666825Y-100878407D01*
X117633912Y-100821400D01*
X118250900Y-100821400D01*
X118250900Y-100817983D01*
X118250899Y-100817979D01*
X118210551Y-100615133D01*
X118210549Y-100615125D01*
X118131399Y-100424041D01*
X118131394Y-100424031D01*
X118016489Y-100252064D01*
X118016486Y-100252060D01*
X117907972Y-100143546D01*
X128026999Y-100143546D01*
X128053899Y-100278776D01*
X128053902Y-100278786D01*
X128106664Y-100406166D01*
X128106671Y-100406179D01*
X128183275Y-100520826D01*
X128280773Y-100618324D01*
X128395420Y-100694928D01*
X128395424Y-100694930D01*
X128477000Y-100728719D01*
X128477000Y-100241588D01*
X128486940Y-100258805D01*
X128542795Y-100314660D01*
X128611204Y-100354156D01*
X128687504Y-100374600D01*
X128766496Y-100374600D01*
X128842796Y-100354156D01*
X128911205Y-100314660D01*
X128967060Y-100258805D01*
X128977000Y-100241588D01*
X128977000Y-100728718D01*
X129058575Y-100694930D01*
X129058579Y-100694928D01*
X129173226Y-100618324D01*
X129270724Y-100520826D01*
X129347328Y-100406179D01*
X129347335Y-100406166D01*
X129400097Y-100278786D01*
X129400100Y-100278775D01*
X129416060Y-100198541D01*
X129448444Y-100136630D01*
X129509160Y-100102056D01*
X129578929Y-100105795D01*
X129635602Y-100146661D01*
X129657451Y-100190637D01*
X129667310Y-100227431D01*
X129667313Y-100227438D01*
X129736492Y-100347261D01*
X129736494Y-100347264D01*
X129736495Y-100347265D01*
X129834335Y-100445105D01*
X129954164Y-100514288D01*
X130087817Y-100550100D01*
X130087819Y-100550100D01*
X130226181Y-100550100D01*
X130226183Y-100550100D01*
X130359836Y-100514288D01*
X130479665Y-100445105D01*
X130577505Y-100347265D01*
X130646688Y-100227436D01*
X130682500Y-100093783D01*
X130682500Y-99955417D01*
X135411500Y-99955417D01*
X135411500Y-100093783D01*
X135439570Y-100198540D01*
X135447312Y-100227435D01*
X135447313Y-100227438D01*
X135516492Y-100347261D01*
X135516494Y-100347264D01*
X135516495Y-100347265D01*
X135614335Y-100445105D01*
X135734164Y-100514288D01*
X135867817Y-100550100D01*
X135867819Y-100550100D01*
X136006181Y-100550100D01*
X136006183Y-100550100D01*
X136139836Y-100514288D01*
X136259665Y-100445105D01*
X136357505Y-100347265D01*
X136426688Y-100227436D01*
X136436548Y-100190637D01*
X136472911Y-100130979D01*
X136535758Y-100100449D01*
X136605134Y-100108743D01*
X136659012Y-100153228D01*
X136677939Y-100198540D01*
X136693899Y-100278776D01*
X136693902Y-100278786D01*
X136746664Y-100406166D01*
X136746671Y-100406179D01*
X136823275Y-100520826D01*
X136920773Y-100618324D01*
X137035420Y-100694928D01*
X137035424Y-100694930D01*
X137117000Y-100728719D01*
X137117000Y-100241588D01*
X137126940Y-100258805D01*
X137182795Y-100314660D01*
X137251204Y-100354156D01*
X137327504Y-100374600D01*
X137406496Y-100374600D01*
X137482796Y-100354156D01*
X137551205Y-100314660D01*
X137607060Y-100258805D01*
X137617000Y-100241588D01*
X137617000Y-100728718D01*
X137698575Y-100694930D01*
X137698579Y-100694928D01*
X137813226Y-100618324D01*
X137910724Y-100520826D01*
X137987328Y-100406179D01*
X137987335Y-100406166D01*
X138040097Y-100278786D01*
X138040100Y-100278776D01*
X138067000Y-100143546D01*
X138067000Y-99774600D01*
X137667000Y-99774600D01*
X137667000Y-99274600D01*
X138067000Y-99274600D01*
X138067000Y-98905653D01*
X138040100Y-98770423D01*
X138040097Y-98770413D01*
X137987335Y-98643033D01*
X137987328Y-98643020D01*
X137910724Y-98528373D01*
X137813226Y-98430875D01*
X137698573Y-98354267D01*
X137617000Y-98320479D01*
X137617000Y-98807611D01*
X137607060Y-98790395D01*
X137551205Y-98734540D01*
X137482796Y-98695044D01*
X137406496Y-98674600D01*
X137327504Y-98674600D01*
X137251204Y-98695044D01*
X137182795Y-98734540D01*
X137126940Y-98790395D01*
X137117000Y-98807611D01*
X137117000Y-98320479D01*
X137116999Y-98320479D01*
X137035426Y-98354267D01*
X136920773Y-98430875D01*
X136823275Y-98528373D01*
X136746671Y-98643020D01*
X136746664Y-98643033D01*
X136693902Y-98770413D01*
X136693899Y-98770423D01*
X136667000Y-98905653D01*
X136667000Y-99274600D01*
X137067000Y-99274600D01*
X137067000Y-99774600D01*
X136667000Y-99774600D01*
X136667000Y-99778538D01*
X136647315Y-99845577D01*
X136594511Y-99891332D01*
X136525353Y-99901276D01*
X136461797Y-99872251D01*
X136428440Y-99825992D01*
X136426690Y-99821767D01*
X136357507Y-99701938D01*
X136357503Y-99701933D01*
X136259666Y-99604096D01*
X136259661Y-99604092D01*
X136139838Y-99534913D01*
X136139837Y-99534912D01*
X136139836Y-99534912D01*
X136006183Y-99499100D01*
X135867817Y-99499100D01*
X135734164Y-99534912D01*
X135734161Y-99534913D01*
X135614338Y-99604092D01*
X135614333Y-99604096D01*
X135516496Y-99701933D01*
X135516492Y-99701938D01*
X135447313Y-99821761D01*
X135447312Y-99821764D01*
X135411500Y-99955417D01*
X130682500Y-99955417D01*
X130646688Y-99821764D01*
X130577505Y-99701935D01*
X130479665Y-99604095D01*
X130479664Y-99604094D01*
X130479661Y-99604092D01*
X130359838Y-99534913D01*
X130359837Y-99534912D01*
X130359836Y-99534912D01*
X130226183Y-99499100D01*
X130087817Y-99499100D01*
X129954164Y-99534912D01*
X129954161Y-99534913D01*
X129834338Y-99604092D01*
X129834333Y-99604096D01*
X129736496Y-99701933D01*
X129736492Y-99701938D01*
X129667309Y-99821767D01*
X129665560Y-99825992D01*
X129621718Y-99880395D01*
X129555424Y-99902459D01*
X129487725Y-99885179D01*
X129440115Y-99834041D01*
X129427000Y-99778538D01*
X129427000Y-99774600D01*
X129027000Y-99774600D01*
X129027000Y-99274600D01*
X129427000Y-99274600D01*
X129427000Y-98905653D01*
X129400100Y-98770423D01*
X129400097Y-98770413D01*
X129347335Y-98643033D01*
X129347328Y-98643020D01*
X129270724Y-98528373D01*
X129173226Y-98430875D01*
X129058573Y-98354267D01*
X128977000Y-98320479D01*
X128977000Y-98807611D01*
X128967060Y-98790395D01*
X128911205Y-98734540D01*
X128842796Y-98695044D01*
X128766496Y-98674600D01*
X128687504Y-98674600D01*
X128611204Y-98695044D01*
X128542795Y-98734540D01*
X128486940Y-98790395D01*
X128477000Y-98807611D01*
X128477000Y-98320479D01*
X128476999Y-98320479D01*
X128395426Y-98354267D01*
X128280773Y-98430875D01*
X128183275Y-98528373D01*
X128106671Y-98643020D01*
X128106664Y-98643033D01*
X128053902Y-98770413D01*
X128053899Y-98770423D01*
X128027000Y-98905653D01*
X128027000Y-99274600D01*
X128427000Y-99274600D01*
X128427000Y-99774600D01*
X128027000Y-99774600D01*
X128027000Y-100143546D01*
X128026999Y-100143546D01*
X117907972Y-100143546D01*
X117870239Y-100105813D01*
X117870235Y-100105810D01*
X117698268Y-99990905D01*
X117698258Y-99990900D01*
X117507172Y-99911749D01*
X117507167Y-99911747D01*
X117450900Y-99900555D01*
X117450900Y-100638388D01*
X117393893Y-100605475D01*
X117266726Y-100571400D01*
X117135074Y-100571400D01*
X117007907Y-100605475D01*
X116950900Y-100638388D01*
X116950900Y-99900556D01*
X116950899Y-99900555D01*
X116894632Y-99911747D01*
X116894627Y-99911749D01*
X116703541Y-99990900D01*
X116703531Y-99990905D01*
X116531564Y-100105810D01*
X116531560Y-100105813D01*
X116385313Y-100252060D01*
X116385310Y-100252064D01*
X116270405Y-100424031D01*
X116270400Y-100424041D01*
X116191250Y-100615125D01*
X116191248Y-100615133D01*
X116150900Y-100817979D01*
X115751400Y-100817979D01*
X115751400Y-100267130D01*
X115748546Y-100236700D01*
X115748546Y-100236698D01*
X115705645Y-100114096D01*
X115703693Y-100108518D01*
X115623050Y-99999250D01*
X115513782Y-99918607D01*
X115513780Y-99918606D01*
X115385600Y-99873753D01*
X115355170Y-99870900D01*
X115355166Y-99870900D01*
X114046634Y-99870900D01*
X114046630Y-99870900D01*
X114016200Y-99873753D01*
X114016198Y-99873753D01*
X113888019Y-99918606D01*
X113888017Y-99918607D01*
X113778750Y-99999250D01*
X113698107Y-100108517D01*
X113698106Y-100108519D01*
X113653253Y-100236698D01*
X113653253Y-100236700D01*
X113650400Y-100267130D01*
X64514300Y-100267130D01*
X64514300Y-97586925D01*
X130108900Y-97586925D01*
X130108900Y-97731875D01*
X130146416Y-97871885D01*
X130146417Y-97871888D01*
X130218888Y-97997411D01*
X130218890Y-97997413D01*
X130218891Y-97997415D01*
X130321385Y-98099909D01*
X130321386Y-98099910D01*
X130321388Y-98099911D01*
X130446911Y-98172382D01*
X130446912Y-98172382D01*
X130446915Y-98172384D01*
X130586925Y-98209900D01*
X130586928Y-98209900D01*
X130731872Y-98209900D01*
X130731875Y-98209900D01*
X130871885Y-98172384D01*
X130997415Y-98099909D01*
X131099909Y-97997415D01*
X131172384Y-97871885D01*
X131209900Y-97731875D01*
X131209900Y-97586925D01*
X134909500Y-97586925D01*
X134909500Y-97731875D01*
X134947016Y-97871885D01*
X134947017Y-97871888D01*
X135019488Y-97997411D01*
X135019490Y-97997413D01*
X135019491Y-97997415D01*
X135121985Y-98099909D01*
X135121986Y-98099910D01*
X135121988Y-98099911D01*
X135247511Y-98172382D01*
X135247512Y-98172382D01*
X135247515Y-98172384D01*
X135387525Y-98209900D01*
X135387528Y-98209900D01*
X135532472Y-98209900D01*
X135532475Y-98209900D01*
X135672485Y-98172384D01*
X135798015Y-98099909D01*
X135900509Y-97997415D01*
X135972984Y-97871885D01*
X136010500Y-97731875D01*
X136010500Y-97586925D01*
X135972984Y-97446915D01*
X135900509Y-97321385D01*
X135798015Y-97218891D01*
X135798013Y-97218890D01*
X135798011Y-97218888D01*
X135672488Y-97146417D01*
X135672489Y-97146417D01*
X135661006Y-97143340D01*
X135532475Y-97108900D01*
X135387525Y-97108900D01*
X135258993Y-97143340D01*
X135247511Y-97146417D01*
X135121988Y-97218888D01*
X135121982Y-97218893D01*
X135019493Y-97321382D01*
X135019488Y-97321388D01*
X134947017Y-97446911D01*
X134947016Y-97446915D01*
X134909500Y-97586925D01*
X131209900Y-97586925D01*
X131172384Y-97446915D01*
X131099909Y-97321385D01*
X130997415Y-97218891D01*
X130997413Y-97218890D01*
X130997411Y-97218888D01*
X130871888Y-97146417D01*
X130871889Y-97146417D01*
X130860406Y-97143340D01*
X130731875Y-97108900D01*
X130586925Y-97108900D01*
X130458393Y-97143340D01*
X130446911Y-97146417D01*
X130321388Y-97218888D01*
X130321382Y-97218893D01*
X130218893Y-97321382D01*
X130218888Y-97321388D01*
X130146417Y-97446911D01*
X130146416Y-97446915D01*
X130108900Y-97586925D01*
X64514300Y-97586925D01*
X64514300Y-94716725D01*
X117866100Y-94716725D01*
X117866100Y-94861675D01*
X117903616Y-95001685D01*
X117903617Y-95001688D01*
X117976088Y-95127211D01*
X117976090Y-95127213D01*
X117976091Y-95127215D01*
X118078585Y-95229709D01*
X118078586Y-95229710D01*
X118078588Y-95229711D01*
X118204111Y-95302182D01*
X118204112Y-95302182D01*
X118204115Y-95302184D01*
X118344125Y-95339700D01*
X118344128Y-95339700D01*
X118489072Y-95339700D01*
X118489075Y-95339700D01*
X118629085Y-95302184D01*
X118754615Y-95229709D01*
X118857109Y-95127215D01*
X118929584Y-95001685D01*
X118967100Y-94861675D01*
X118967100Y-94716725D01*
X118929584Y-94576715D01*
X118857109Y-94451185D01*
X118754615Y-94348691D01*
X118754613Y-94348690D01*
X118754611Y-94348688D01*
X118629088Y-94276217D01*
X118629089Y-94276217D01*
X118617606Y-94273140D01*
X118489075Y-94238700D01*
X118344125Y-94238700D01*
X118215593Y-94273140D01*
X118204111Y-94276217D01*
X118078588Y-94348688D01*
X118078582Y-94348693D01*
X117976093Y-94451182D01*
X117976088Y-94451188D01*
X117903617Y-94576711D01*
X117903616Y-94576715D01*
X117866100Y-94716725D01*
X64514300Y-94716725D01*
X64514300Y-90932125D01*
X113878300Y-90932125D01*
X113878300Y-91077075D01*
X113915816Y-91217085D01*
X113915817Y-91217088D01*
X113988288Y-91342611D01*
X113988290Y-91342613D01*
X113988291Y-91342615D01*
X114090785Y-91445109D01*
X114090786Y-91445110D01*
X114090788Y-91445111D01*
X114216311Y-91517582D01*
X114216312Y-91517582D01*
X114216315Y-91517584D01*
X114356325Y-91555100D01*
X114356328Y-91555100D01*
X114501272Y-91555100D01*
X114501275Y-91555100D01*
X114641285Y-91517584D01*
X114766815Y-91445109D01*
X114869309Y-91342615D01*
X114941784Y-91217085D01*
X114953323Y-91174021D01*
X114989687Y-91114362D01*
X115052534Y-91083833D01*
X115121909Y-91092128D01*
X115175787Y-91136613D01*
X115192870Y-91174017D01*
X115204410Y-91217085D01*
X115211217Y-91242488D01*
X115283688Y-91368011D01*
X115283690Y-91368013D01*
X115283691Y-91368015D01*
X115386185Y-91470509D01*
X115386186Y-91470510D01*
X115386188Y-91470511D01*
X115511711Y-91542982D01*
X115511712Y-91542982D01*
X115511715Y-91542984D01*
X115651725Y-91580500D01*
X115651728Y-91580500D01*
X115796672Y-91580500D01*
X115796675Y-91580500D01*
X115936685Y-91542984D01*
X116062215Y-91470509D01*
X116164709Y-91368015D01*
X116237184Y-91242485D01*
X116274700Y-91102475D01*
X116274700Y-90957525D01*
X116237184Y-90817515D01*
X116222519Y-90792115D01*
X116164711Y-90691988D01*
X116164706Y-90691982D01*
X116062217Y-90589493D01*
X116062211Y-90589488D01*
X115936688Y-90517017D01*
X115936689Y-90517017D01*
X115925206Y-90513940D01*
X115796675Y-90479500D01*
X115651725Y-90479500D01*
X115523193Y-90513940D01*
X115511711Y-90517017D01*
X115386188Y-90589488D01*
X115386182Y-90589493D01*
X115283693Y-90691982D01*
X115283688Y-90691988D01*
X115211217Y-90817511D01*
X115211216Y-90817514D01*
X115199676Y-90860579D01*
X115163310Y-90920239D01*
X115100462Y-90950767D01*
X115031087Y-90942470D01*
X114977210Y-90897984D01*
X114960129Y-90860579D01*
X114941784Y-90792115D01*
X114883975Y-90691988D01*
X114869311Y-90666588D01*
X114869306Y-90666582D01*
X114766817Y-90564093D01*
X114766811Y-90564088D01*
X114641288Y-90491617D01*
X114641289Y-90491617D01*
X114629806Y-90488540D01*
X114501275Y-90454100D01*
X114356325Y-90454100D01*
X114227793Y-90488540D01*
X114216311Y-90491617D01*
X114090788Y-90564088D01*
X114090782Y-90564093D01*
X113988293Y-90666582D01*
X113988288Y-90666588D01*
X113915817Y-90792111D01*
X113915816Y-90792115D01*
X113878300Y-90932125D01*
X64514300Y-90932125D01*
X64514300Y-85979125D01*
X76159300Y-85979125D01*
X76159300Y-86124075D01*
X76196816Y-86264085D01*
X76196817Y-86264088D01*
X76269288Y-86389611D01*
X76269290Y-86389613D01*
X76269291Y-86389615D01*
X76371785Y-86492109D01*
X76371786Y-86492110D01*
X76371788Y-86492111D01*
X76497311Y-86564582D01*
X76497312Y-86564582D01*
X76497315Y-86564584D01*
X76637325Y-86602100D01*
X76637328Y-86602100D01*
X76782272Y-86602100D01*
X76782275Y-86602100D01*
X76922285Y-86564584D01*
X77047815Y-86492109D01*
X77150309Y-86389615D01*
X77222784Y-86264085D01*
X77260300Y-86124075D01*
X77260300Y-85979125D01*
X77222784Y-85839115D01*
X77150309Y-85713585D01*
X77047815Y-85611091D01*
X77047813Y-85611090D01*
X77047811Y-85611088D01*
X76922288Y-85538617D01*
X76922289Y-85538617D01*
X76910806Y-85535540D01*
X76782275Y-85501100D01*
X76637325Y-85501100D01*
X76508793Y-85535540D01*
X76497311Y-85538617D01*
X76371788Y-85611088D01*
X76371782Y-85611093D01*
X76269293Y-85713582D01*
X76269288Y-85713588D01*
X76196817Y-85839111D01*
X76196816Y-85839115D01*
X76159300Y-85979125D01*
X64514300Y-85979125D01*
X64514300Y-83769325D01*
X78724700Y-83769325D01*
X78724700Y-83914275D01*
X78751462Y-84014150D01*
X78762217Y-84054288D01*
X78834688Y-84179811D01*
X78834690Y-84179813D01*
X78834691Y-84179815D01*
X78937185Y-84282309D01*
X78937186Y-84282310D01*
X78937188Y-84282311D01*
X79062711Y-84354782D01*
X79062712Y-84354782D01*
X79062715Y-84354784D01*
X79202725Y-84392300D01*
X79202728Y-84392300D01*
X79347672Y-84392300D01*
X79347675Y-84392300D01*
X79487685Y-84354784D01*
X79613215Y-84282309D01*
X79715709Y-84179815D01*
X79788184Y-84054285D01*
X79825700Y-83914275D01*
X79825700Y-83769325D01*
X83804700Y-83769325D01*
X83804700Y-83914275D01*
X83831462Y-84014150D01*
X83842217Y-84054288D01*
X83914688Y-84179811D01*
X83914690Y-84179813D01*
X83914691Y-84179815D01*
X84017185Y-84282309D01*
X84017186Y-84282310D01*
X84017188Y-84282311D01*
X84142711Y-84354782D01*
X84142712Y-84354782D01*
X84142715Y-84354784D01*
X84282725Y-84392300D01*
X84282728Y-84392300D01*
X84427672Y-84392300D01*
X84427675Y-84392300D01*
X84567685Y-84354784D01*
X84693215Y-84282309D01*
X84795709Y-84179815D01*
X84868184Y-84054285D01*
X84905700Y-83914275D01*
X84905700Y-83769325D01*
X84868184Y-83629315D01*
X84795709Y-83503785D01*
X84693215Y-83401291D01*
X84693213Y-83401290D01*
X84693211Y-83401288D01*
X84645837Y-83373937D01*
X84567685Y-83328816D01*
X84427675Y-83291300D01*
X84282725Y-83291300D01*
X84154193Y-83325740D01*
X84142711Y-83328817D01*
X84017188Y-83401288D01*
X84017182Y-83401293D01*
X83914693Y-83503782D01*
X83914688Y-83503788D01*
X83842217Y-83629311D01*
X83842216Y-83629315D01*
X83804700Y-83769325D01*
X79825700Y-83769325D01*
X79788184Y-83629315D01*
X79715709Y-83503785D01*
X79613215Y-83401291D01*
X79613213Y-83401290D01*
X79613211Y-83401288D01*
X79487688Y-83328817D01*
X79487689Y-83328817D01*
X79476206Y-83325740D01*
X79347675Y-83291300D01*
X79202725Y-83291300D01*
X79074193Y-83325740D01*
X79062711Y-83328817D01*
X78937188Y-83401288D01*
X78937182Y-83401293D01*
X78834693Y-83503782D01*
X78834688Y-83503788D01*
X78762217Y-83629311D01*
X78762216Y-83629315D01*
X78724700Y-83769325D01*
X64514300Y-83769325D01*
X64514300Y-81247930D01*
X66373300Y-81247930D01*
X66373300Y-82556469D01*
X66376153Y-82586899D01*
X66376153Y-82586901D01*
X66421006Y-82715080D01*
X66421007Y-82715082D01*
X66501650Y-82824350D01*
X66610918Y-82904993D01*
X66653645Y-82919944D01*
X66739099Y-82949846D01*
X66769530Y-82952700D01*
X66769534Y-82952700D01*
X68328070Y-82952700D01*
X68358499Y-82949846D01*
X68358501Y-82949846D01*
X68432740Y-82923868D01*
X68486682Y-82904993D01*
X68595950Y-82824350D01*
X68676593Y-82715082D01*
X68699019Y-82650990D01*
X68721446Y-82586901D01*
X68721446Y-82586899D01*
X68724300Y-82556469D01*
X68724300Y-81747825D01*
X81720500Y-81747825D01*
X81720500Y-81892775D01*
X81733467Y-81941167D01*
X81758017Y-82032788D01*
X81830488Y-82158311D01*
X81830490Y-82158313D01*
X81830491Y-82158315D01*
X81932985Y-82260809D01*
X81932986Y-82260810D01*
X81932988Y-82260811D01*
X82058511Y-82333282D01*
X82058512Y-82333282D01*
X82058515Y-82333284D01*
X82198525Y-82370800D01*
X82198528Y-82370800D01*
X82343472Y-82370800D01*
X82343475Y-82370800D01*
X82483485Y-82333284D01*
X82609015Y-82260809D01*
X82711509Y-82158315D01*
X82783984Y-82032785D01*
X82821500Y-81892775D01*
X82821500Y-81747825D01*
X82783984Y-81607815D01*
X82772320Y-81587613D01*
X82711511Y-81482288D01*
X82711506Y-81482282D01*
X82609017Y-81379793D01*
X82609011Y-81379788D01*
X82483488Y-81307317D01*
X82483489Y-81307317D01*
X82472006Y-81304240D01*
X82343475Y-81269800D01*
X82198525Y-81269800D01*
X82069993Y-81304240D01*
X82058511Y-81307317D01*
X81932988Y-81379788D01*
X81932982Y-81379793D01*
X81830493Y-81482282D01*
X81830488Y-81482288D01*
X81758017Y-81607811D01*
X81758016Y-81607815D01*
X81720500Y-81747825D01*
X68724300Y-81747825D01*
X68724300Y-81247930D01*
X68721446Y-81217500D01*
X68721446Y-81217498D01*
X68676593Y-81089319D01*
X68676592Y-81089317D01*
X68673324Y-81084889D01*
X68595950Y-80980050D01*
X68486682Y-80899407D01*
X68486680Y-80899406D01*
X68358500Y-80854553D01*
X68328070Y-80851700D01*
X68328066Y-80851700D01*
X66769534Y-80851700D01*
X66769530Y-80851700D01*
X66739100Y-80854553D01*
X66739098Y-80854553D01*
X66610919Y-80899406D01*
X66610917Y-80899407D01*
X66501650Y-80980050D01*
X66421007Y-81089317D01*
X66421006Y-81089319D01*
X66376153Y-81217498D01*
X66376153Y-81217500D01*
X66373300Y-81247930D01*
X64514300Y-81247930D01*
X64514300Y-80503525D01*
X82673300Y-80503525D01*
X82673300Y-80648475D01*
X82710816Y-80788485D01*
X82710817Y-80788488D01*
X82783288Y-80914011D01*
X82783290Y-80914013D01*
X82783291Y-80914015D01*
X82885785Y-81016509D01*
X82885786Y-81016510D01*
X82885788Y-81016511D01*
X83011311Y-81088982D01*
X83011312Y-81088982D01*
X83011315Y-81088984D01*
X83151325Y-81126500D01*
X83151328Y-81126500D01*
X83296272Y-81126500D01*
X83296275Y-81126500D01*
X83436285Y-81088984D01*
X83561815Y-81016509D01*
X83664309Y-80914015D01*
X83736784Y-80788485D01*
X83774300Y-80648475D01*
X83774300Y-80503525D01*
X83736784Y-80363515D01*
X83664309Y-80237985D01*
X83561815Y-80135491D01*
X83561813Y-80135490D01*
X83561811Y-80135488D01*
X83436288Y-80063017D01*
X83436289Y-80063017D01*
X83424806Y-80059940D01*
X83296275Y-80025500D01*
X83151325Y-80025500D01*
X83022793Y-80059940D01*
X83011311Y-80063017D01*
X82885788Y-80135488D01*
X82885782Y-80135493D01*
X82783293Y-80237982D01*
X82783288Y-80237988D01*
X82710817Y-80363511D01*
X82710816Y-80363515D01*
X82673300Y-80503525D01*
X64514300Y-80503525D01*
X64514300Y-79298730D01*
X66373300Y-79298730D01*
X66373300Y-79505669D01*
X66413668Y-79708612D01*
X66413670Y-79708620D01*
X66492858Y-79899796D01*
X66607824Y-80071857D01*
X66754142Y-80218175D01*
X66754145Y-80218177D01*
X66926202Y-80333141D01*
X67117380Y-80412330D01*
X67320330Y-80452699D01*
X67320334Y-80452700D01*
X67320335Y-80452700D01*
X67777266Y-80452700D01*
X67777267Y-80452699D01*
X67980220Y-80412330D01*
X68171398Y-80333141D01*
X68343455Y-80218177D01*
X68489777Y-80071855D01*
X68604741Y-79899798D01*
X68627059Y-79845918D01*
X92244700Y-79845918D01*
X92244700Y-81054457D01*
X92247553Y-81084887D01*
X92247553Y-81084889D01*
X92292406Y-81213068D01*
X92292407Y-81213070D01*
X92373050Y-81322338D01*
X92482318Y-81402981D01*
X92523111Y-81417255D01*
X92610496Y-81447833D01*
X92610498Y-81447833D01*
X92610501Y-81447834D01*
X92624632Y-81449159D01*
X92689538Y-81475014D01*
X92730165Y-81531858D01*
X92736458Y-81584770D01*
X92736177Y-81587613D01*
X93198754Y-82050188D01*
X93192539Y-82050188D01*
X93090806Y-82077447D01*
X92999594Y-82130108D01*
X92925120Y-82204582D01*
X92872459Y-82295794D01*
X92845200Y-82397527D01*
X92845200Y-82403740D01*
X92382626Y-81941166D01*
X92382626Y-81941167D01*
X92359013Y-81976506D01*
X92359009Y-81976513D01*
X92283629Y-82158498D01*
X92283627Y-82158506D01*
X92245200Y-82351692D01*
X92245200Y-82548683D01*
X92283627Y-82741869D01*
X92283630Y-82741881D01*
X92359008Y-82923861D01*
X92359009Y-82923863D01*
X92382625Y-82959207D01*
X92845200Y-82496633D01*
X92845200Y-82502849D01*
X92872459Y-82604582D01*
X92925120Y-82695794D01*
X92999594Y-82770268D01*
X93090806Y-82822929D01*
X93192539Y-82850188D01*
X93198753Y-82850188D01*
X92736179Y-83312760D01*
X92771528Y-83336380D01*
X92953506Y-83411757D01*
X92953518Y-83411760D01*
X93146704Y-83450187D01*
X93146708Y-83450188D01*
X93343692Y-83450188D01*
X93343695Y-83450187D01*
X93536881Y-83411760D01*
X93536893Y-83411757D01*
X93586583Y-83391175D01*
X128836050Y-83391175D01*
X128836050Y-83536125D01*
X128873566Y-83676135D01*
X128873567Y-83676138D01*
X128946038Y-83801661D01*
X128946040Y-83801663D01*
X128946041Y-83801665D01*
X129048535Y-83904159D01*
X129048536Y-83904160D01*
X129048538Y-83904161D01*
X129174061Y-83976632D01*
X129174062Y-83976632D01*
X129174065Y-83976634D01*
X129314075Y-84014150D01*
X129314078Y-84014150D01*
X129459022Y-84014150D01*
X129459025Y-84014150D01*
X129599035Y-83976634D01*
X129724565Y-83904159D01*
X129827059Y-83801665D01*
X129899534Y-83676135D01*
X129937050Y-83536125D01*
X129937050Y-83391175D01*
X129899534Y-83251165D01*
X129827059Y-83125635D01*
X129724565Y-83023141D01*
X129724563Y-83023140D01*
X129724561Y-83023138D01*
X129599038Y-82950667D01*
X129599039Y-82950667D01*
X129587556Y-82947590D01*
X129459025Y-82913150D01*
X129314075Y-82913150D01*
X129185543Y-82947590D01*
X129174061Y-82950667D01*
X129048538Y-83023138D01*
X129048532Y-83023143D01*
X128946043Y-83125632D01*
X128946038Y-83125638D01*
X128873567Y-83251161D01*
X128873566Y-83251165D01*
X128836050Y-83391175D01*
X93586583Y-83391175D01*
X93718876Y-83336378D01*
X93718880Y-83336375D01*
X93754220Y-83312761D01*
X93754220Y-83312760D01*
X93291648Y-82850188D01*
X93297861Y-82850188D01*
X93399594Y-82822929D01*
X93490806Y-82770268D01*
X93565280Y-82695794D01*
X93617941Y-82604582D01*
X93645200Y-82502849D01*
X93645200Y-82496635D01*
X94107772Y-82959208D01*
X94107773Y-82959207D01*
X94131387Y-82923868D01*
X94131390Y-82923864D01*
X94206769Y-82741881D01*
X94206772Y-82741869D01*
X94245199Y-82548683D01*
X94245200Y-82548680D01*
X94245200Y-82351696D01*
X94245199Y-82351692D01*
X94206772Y-82158506D01*
X94206769Y-82158494D01*
X94131392Y-81976516D01*
X94107772Y-81941167D01*
X93645200Y-82403739D01*
X93645200Y-82397527D01*
X93617941Y-82295794D01*
X93565280Y-82204582D01*
X93490806Y-82130108D01*
X93399594Y-82077447D01*
X93297861Y-82050188D01*
X93291647Y-82050188D01*
X93754220Y-81587613D01*
X93753940Y-81584770D01*
X93766959Y-81516124D01*
X93815025Y-81465414D01*
X93865766Y-81449159D01*
X93879899Y-81447834D01*
X93879901Y-81447833D01*
X93879903Y-81447833D01*
X93926494Y-81431529D01*
X94008082Y-81402981D01*
X94117350Y-81322338D01*
X94197993Y-81213070D01*
X94228285Y-81126500D01*
X94242846Y-81084889D01*
X94242846Y-81084887D01*
X94245700Y-81054457D01*
X94245700Y-79845918D01*
X94242846Y-79815488D01*
X94242846Y-79815486D01*
X94197993Y-79687307D01*
X94197992Y-79687305D01*
X94117350Y-79578038D01*
X94008082Y-79497395D01*
X94008080Y-79497394D01*
X93879900Y-79452541D01*
X93849470Y-79449688D01*
X93849466Y-79449688D01*
X92640934Y-79449688D01*
X92640930Y-79449688D01*
X92610500Y-79452541D01*
X92610498Y-79452541D01*
X92482319Y-79497394D01*
X92482317Y-79497395D01*
X92373050Y-79578038D01*
X92292407Y-79687305D01*
X92292406Y-79687307D01*
X92247553Y-79815486D01*
X92247553Y-79815488D01*
X92244700Y-79845918D01*
X68627059Y-79845918D01*
X68683930Y-79708620D01*
X68724300Y-79505665D01*
X68724300Y-79298735D01*
X68683930Y-79095780D01*
X68604741Y-78904602D01*
X68489777Y-78732545D01*
X68489775Y-78732542D01*
X68343457Y-78586224D01*
X68257426Y-78528741D01*
X68171398Y-78471259D01*
X68087439Y-78436482D01*
X67980220Y-78392070D01*
X67980212Y-78392068D01*
X67777269Y-78351700D01*
X67777265Y-78351700D01*
X67320335Y-78351700D01*
X67320330Y-78351700D01*
X67117387Y-78392068D01*
X67117379Y-78392070D01*
X66926203Y-78471258D01*
X66754142Y-78586224D01*
X66607824Y-78732542D01*
X66492858Y-78904603D01*
X66413670Y-79095779D01*
X66413668Y-79095787D01*
X66373300Y-79298730D01*
X64514300Y-79298730D01*
X64514300Y-76798730D01*
X66373300Y-76798730D01*
X66373300Y-77005669D01*
X66413668Y-77208612D01*
X66413670Y-77208620D01*
X66492858Y-77399796D01*
X66607824Y-77571857D01*
X66754142Y-77718175D01*
X66754145Y-77718177D01*
X66926202Y-77833141D01*
X67117380Y-77912330D01*
X67299768Y-77948609D01*
X67320330Y-77952699D01*
X67320334Y-77952700D01*
X67320335Y-77952700D01*
X67777266Y-77952700D01*
X67777267Y-77952699D01*
X67980220Y-77912330D01*
X68171398Y-77833141D01*
X68215517Y-77803662D01*
X84079196Y-77803662D01*
X84079196Y-77948612D01*
X84116712Y-78088622D01*
X84116713Y-78088625D01*
X84189184Y-78214148D01*
X84189189Y-78214154D01*
X84239824Y-78264789D01*
X84273309Y-78326112D01*
X84268325Y-78395804D01*
X84247027Y-78428951D01*
X84248440Y-78430035D01*
X84243495Y-78436478D01*
X84243491Y-78436485D01*
X84171016Y-78562015D01*
X84133500Y-78702025D01*
X84133500Y-78846975D01*
X84148942Y-78904603D01*
X84171017Y-78986988D01*
X84243488Y-79112511D01*
X84243490Y-79112513D01*
X84243491Y-79112515D01*
X84345985Y-79215009D01*
X84345986Y-79215010D01*
X84345988Y-79215011D01*
X84471511Y-79287482D01*
X84471512Y-79287482D01*
X84471515Y-79287484D01*
X84611525Y-79325000D01*
X84611528Y-79325000D01*
X84756472Y-79325000D01*
X84756475Y-79325000D01*
X84896485Y-79287484D01*
X85022015Y-79215009D01*
X85124509Y-79112515D01*
X85196984Y-78986985D01*
X85234500Y-78846975D01*
X85234500Y-78702025D01*
X85196984Y-78562015D01*
X85144585Y-78471258D01*
X85124511Y-78436488D01*
X85124506Y-78436482D01*
X85073871Y-78385847D01*
X85040386Y-78324524D01*
X85045370Y-78254832D01*
X85066678Y-78221694D01*
X85065256Y-78220603D01*
X85070202Y-78214156D01*
X85070203Y-78214153D01*
X85070205Y-78214152D01*
X85142680Y-78088622D01*
X85180196Y-77948612D01*
X85180196Y-77803662D01*
X85142680Y-77663652D01*
X85070205Y-77538122D01*
X84967711Y-77435628D01*
X84967709Y-77435627D01*
X84967707Y-77435625D01*
X84842184Y-77363154D01*
X84842185Y-77363154D01*
X84830702Y-77360077D01*
X84702171Y-77325637D01*
X84557221Y-77325637D01*
X84428689Y-77360077D01*
X84417207Y-77363154D01*
X84291684Y-77435625D01*
X84291678Y-77435630D01*
X84189189Y-77538119D01*
X84189184Y-77538125D01*
X84116713Y-77663648D01*
X84116712Y-77663652D01*
X84079196Y-77803662D01*
X68215517Y-77803662D01*
X68343455Y-77718177D01*
X68343458Y-77718174D01*
X68353779Y-77707854D01*
X68489774Y-77571858D01*
X68489775Y-77571857D01*
X68489777Y-77571855D01*
X68604741Y-77399798D01*
X68683930Y-77208620D01*
X68724300Y-77005665D01*
X68724300Y-76798735D01*
X68683930Y-76595780D01*
X68604741Y-76404602D01*
X68489777Y-76232545D01*
X68489775Y-76232542D01*
X68343457Y-76086224D01*
X68252384Y-76025372D01*
X68171398Y-75971259D01*
X67980220Y-75892070D01*
X67980212Y-75892068D01*
X67777269Y-75851700D01*
X67777265Y-75851700D01*
X67320335Y-75851700D01*
X67320330Y-75851700D01*
X67117387Y-75892068D01*
X67117379Y-75892070D01*
X66926203Y-75971258D01*
X66754142Y-76086224D01*
X66607824Y-76232542D01*
X66492858Y-76404603D01*
X66413670Y-76595779D01*
X66413668Y-76595787D01*
X66373300Y-76798730D01*
X64514300Y-76798730D01*
X64514300Y-74298730D01*
X66373300Y-74298730D01*
X66373300Y-74505669D01*
X66413668Y-74708612D01*
X66413670Y-74708620D01*
X66492858Y-74899796D01*
X66607824Y-75071857D01*
X66754142Y-75218175D01*
X66754145Y-75218177D01*
X66926202Y-75333141D01*
X67117380Y-75412330D01*
X67320330Y-75452699D01*
X67320334Y-75452700D01*
X67320335Y-75452700D01*
X67777266Y-75452700D01*
X67777267Y-75452699D01*
X67980220Y-75412330D01*
X68171398Y-75333141D01*
X68343455Y-75218177D01*
X68489777Y-75071855D01*
X68604741Y-74899798D01*
X68622583Y-74856725D01*
X82507900Y-74856725D01*
X82507900Y-75001675D01*
X82545416Y-75141685D01*
X82545417Y-75141688D01*
X82617888Y-75267211D01*
X82617890Y-75267213D01*
X82617891Y-75267215D01*
X82720385Y-75369709D01*
X82775752Y-75401675D01*
X82823967Y-75452243D01*
X82837189Y-75520850D01*
X82811221Y-75585714D01*
X82801434Y-75596741D01*
X82783294Y-75614881D01*
X82783288Y-75614888D01*
X82710817Y-75740411D01*
X82710816Y-75740415D01*
X82673300Y-75880425D01*
X82673300Y-76025375D01*
X82689605Y-76086224D01*
X82710817Y-76165388D01*
X82783288Y-76290911D01*
X82783290Y-76290913D01*
X82783291Y-76290915D01*
X82885785Y-76393409D01*
X82885786Y-76393410D01*
X82885788Y-76393411D01*
X83011311Y-76465882D01*
X83011312Y-76465882D01*
X83011315Y-76465884D01*
X83151325Y-76503400D01*
X83151328Y-76503400D01*
X83296272Y-76503400D01*
X83296275Y-76503400D01*
X83436285Y-76465884D01*
X83561815Y-76393409D01*
X83664309Y-76290915D01*
X83736784Y-76165385D01*
X83774300Y-76025375D01*
X83774300Y-75880425D01*
X83736784Y-75740415D01*
X83664309Y-75614885D01*
X83561815Y-75512391D01*
X83559917Y-75511295D01*
X83506447Y-75480423D01*
X83458232Y-75429856D01*
X83445010Y-75361249D01*
X83470978Y-75296384D01*
X83480761Y-75285362D01*
X83498909Y-75267215D01*
X83571384Y-75141685D01*
X83608900Y-75001675D01*
X83608900Y-74856725D01*
X83571384Y-74716715D01*
X83566710Y-74708620D01*
X83498911Y-74591188D01*
X83498906Y-74591182D01*
X83396417Y-74488693D01*
X83396411Y-74488688D01*
X83270888Y-74416217D01*
X83270889Y-74416217D01*
X83259406Y-74413140D01*
X83130875Y-74378700D01*
X82985925Y-74378700D01*
X82857393Y-74413140D01*
X82845911Y-74416217D01*
X82720388Y-74488688D01*
X82720382Y-74488693D01*
X82617893Y-74591182D01*
X82617888Y-74591188D01*
X82545417Y-74716711D01*
X82545416Y-74716715D01*
X82507900Y-74856725D01*
X68622583Y-74856725D01*
X68683930Y-74708620D01*
X68724300Y-74505665D01*
X68724300Y-74298735D01*
X68683930Y-74095780D01*
X68604741Y-73904602D01*
X68489777Y-73732545D01*
X68489775Y-73732542D01*
X68366558Y-73609325D01*
X73494700Y-73609325D01*
X73494700Y-73754275D01*
X73532216Y-73894285D01*
X73532217Y-73894288D01*
X73604688Y-74019811D01*
X73604690Y-74019813D01*
X73604691Y-74019815D01*
X73707185Y-74122309D01*
X73707186Y-74122310D01*
X73707188Y-74122311D01*
X73832711Y-74194782D01*
X73832712Y-74194782D01*
X73832715Y-74194784D01*
X73972725Y-74232300D01*
X73972728Y-74232300D01*
X74117672Y-74232300D01*
X74117675Y-74232300D01*
X74257685Y-74194784D01*
X74383215Y-74122309D01*
X74485709Y-74019815D01*
X74558184Y-73894285D01*
X74595700Y-73754275D01*
X74595700Y-73609325D01*
X74558184Y-73469315D01*
X74513586Y-73392070D01*
X74485711Y-73343788D01*
X74485706Y-73343782D01*
X74383217Y-73241293D01*
X74383211Y-73241288D01*
X74257688Y-73168817D01*
X74257689Y-73168817D01*
X74246206Y-73165740D01*
X74117675Y-73131300D01*
X73972725Y-73131300D01*
X73844193Y-73165740D01*
X73832711Y-73168817D01*
X73707188Y-73241288D01*
X73707182Y-73241293D01*
X73604693Y-73343782D01*
X73604688Y-73343788D01*
X73532217Y-73469311D01*
X73532216Y-73469315D01*
X73494700Y-73609325D01*
X68366558Y-73609325D01*
X68343457Y-73586224D01*
X68257426Y-73528741D01*
X68171398Y-73471259D01*
X68166695Y-73469311D01*
X67980220Y-73392070D01*
X67980212Y-73392068D01*
X67777269Y-73351700D01*
X67777265Y-73351700D01*
X67320335Y-73351700D01*
X67320330Y-73351700D01*
X67117387Y-73392068D01*
X67117379Y-73392070D01*
X66926203Y-73471258D01*
X66754142Y-73586224D01*
X66607824Y-73732542D01*
X66492858Y-73904603D01*
X66413670Y-74095779D01*
X66413668Y-74095787D01*
X66373300Y-74298730D01*
X64514300Y-74298730D01*
X64514300Y-69447739D01*
X78422229Y-69447739D01*
X78422229Y-69592689D01*
X78440346Y-69660300D01*
X78459746Y-69732702D01*
X78532217Y-69858225D01*
X78532219Y-69858227D01*
X78532220Y-69858229D01*
X78634714Y-69960723D01*
X78634715Y-69960724D01*
X78634717Y-69960725D01*
X78760240Y-70033196D01*
X78760241Y-70033196D01*
X78760244Y-70033198D01*
X78900254Y-70070714D01*
X78900257Y-70070714D01*
X79045201Y-70070714D01*
X79045204Y-70070714D01*
X79185214Y-70033198D01*
X79310744Y-69960723D01*
X79413238Y-69858229D01*
X79485713Y-69732699D01*
X79523229Y-69592689D01*
X79523229Y-69447739D01*
X79485713Y-69307729D01*
X79465532Y-69272775D01*
X79413240Y-69182202D01*
X79413235Y-69182196D01*
X79310746Y-69079707D01*
X79310740Y-69079702D01*
X79237341Y-69037325D01*
X84058700Y-69037325D01*
X84058700Y-69182275D01*
X84082951Y-69272780D01*
X84096217Y-69322288D01*
X84168688Y-69447811D01*
X84168690Y-69447813D01*
X84168691Y-69447815D01*
X84271185Y-69550309D01*
X84271186Y-69550310D01*
X84271188Y-69550311D01*
X84396711Y-69622782D01*
X84396712Y-69622782D01*
X84396715Y-69622784D01*
X84536725Y-69660300D01*
X84536728Y-69660300D01*
X84681672Y-69660300D01*
X84681675Y-69660300D01*
X84821685Y-69622784D01*
X84947215Y-69550309D01*
X85049709Y-69447815D01*
X85122184Y-69322285D01*
X85159700Y-69182275D01*
X85159700Y-69037325D01*
X85122184Y-68897315D01*
X85121198Y-68895608D01*
X85049711Y-68771788D01*
X85049706Y-68771782D01*
X84947217Y-68669293D01*
X84947211Y-68669288D01*
X84821688Y-68596817D01*
X84821689Y-68596817D01*
X84810206Y-68593740D01*
X84681675Y-68559300D01*
X84536725Y-68559300D01*
X84408193Y-68593740D01*
X84396711Y-68596817D01*
X84271188Y-68669288D01*
X84271182Y-68669293D01*
X84168693Y-68771782D01*
X84168688Y-68771788D01*
X84096217Y-68897311D01*
X84096216Y-68897315D01*
X84058700Y-69037325D01*
X79237341Y-69037325D01*
X79185217Y-69007231D01*
X79185218Y-69007231D01*
X79173735Y-69004154D01*
X79045204Y-68969714D01*
X78900254Y-68969714D01*
X78771722Y-69004154D01*
X78760240Y-69007231D01*
X78634717Y-69079702D01*
X78634711Y-69079707D01*
X78532222Y-69182196D01*
X78532217Y-69182202D01*
X78459746Y-69307725D01*
X78459745Y-69307729D01*
X78422229Y-69447739D01*
X64514300Y-69447739D01*
X64514300Y-67176330D01*
X66347900Y-67176330D01*
X66347900Y-68484869D01*
X66350753Y-68515299D01*
X66350753Y-68515301D01*
X66391657Y-68632194D01*
X66395607Y-68643482D01*
X66476250Y-68752750D01*
X66585518Y-68833393D01*
X66628245Y-68848344D01*
X66713699Y-68878246D01*
X66744130Y-68881100D01*
X66744134Y-68881100D01*
X68302670Y-68881100D01*
X68333099Y-68878246D01*
X68333101Y-68878246D01*
X68397190Y-68855819D01*
X68461282Y-68833393D01*
X68570550Y-68752750D01*
X68651193Y-68643482D01*
X68673619Y-68579390D01*
X68696046Y-68515301D01*
X68696046Y-68515299D01*
X68698900Y-68484869D01*
X68698900Y-67684225D01*
X81771300Y-67684225D01*
X81771300Y-67829175D01*
X81784267Y-67877567D01*
X81808817Y-67969188D01*
X81881288Y-68094711D01*
X81881290Y-68094713D01*
X81881291Y-68094715D01*
X81983785Y-68197209D01*
X81983786Y-68197210D01*
X81983788Y-68197211D01*
X82109311Y-68269682D01*
X82109312Y-68269682D01*
X82109315Y-68269684D01*
X82249325Y-68307200D01*
X82249328Y-68307200D01*
X82394272Y-68307200D01*
X82394275Y-68307200D01*
X82534285Y-68269684D01*
X82659815Y-68197209D01*
X82762309Y-68094715D01*
X82834784Y-67969185D01*
X82872300Y-67829175D01*
X82872300Y-67684225D01*
X82834784Y-67544215D01*
X82823120Y-67524013D01*
X82762311Y-67418688D01*
X82762306Y-67418682D01*
X82659817Y-67316193D01*
X82659811Y-67316188D01*
X82534288Y-67243717D01*
X82534289Y-67243717D01*
X82522806Y-67240640D01*
X82394275Y-67206200D01*
X82249325Y-67206200D01*
X82120793Y-67240640D01*
X82109311Y-67243717D01*
X81983788Y-67316188D01*
X81983782Y-67316193D01*
X81881293Y-67418682D01*
X81881288Y-67418688D01*
X81808817Y-67544211D01*
X81808816Y-67544215D01*
X81771300Y-67684225D01*
X68698900Y-67684225D01*
X68698900Y-67176330D01*
X68696046Y-67145900D01*
X68696046Y-67145898D01*
X68653875Y-67025384D01*
X68651193Y-67017718D01*
X68570550Y-66908450D01*
X68461282Y-66827807D01*
X68461280Y-66827806D01*
X68333100Y-66782953D01*
X68302670Y-66780100D01*
X68302666Y-66780100D01*
X66744134Y-66780100D01*
X66744130Y-66780100D01*
X66713700Y-66782953D01*
X66713698Y-66782953D01*
X66585519Y-66827806D01*
X66585517Y-66827807D01*
X66476250Y-66908450D01*
X66395607Y-67017717D01*
X66395606Y-67017719D01*
X66350753Y-67145898D01*
X66350753Y-67145900D01*
X66347900Y-67176330D01*
X64514300Y-67176330D01*
X64514300Y-66439925D01*
X82724100Y-66439925D01*
X82724100Y-66584875D01*
X82761616Y-66724885D01*
X82761617Y-66724888D01*
X82834088Y-66850411D01*
X82834090Y-66850413D01*
X82834091Y-66850415D01*
X82936585Y-66952909D01*
X82936586Y-66952910D01*
X82936588Y-66952911D01*
X83062111Y-67025382D01*
X83062112Y-67025382D01*
X83062115Y-67025384D01*
X83202125Y-67062900D01*
X83202128Y-67062900D01*
X83347072Y-67062900D01*
X83347075Y-67062900D01*
X83487085Y-67025384D01*
X83612615Y-66952909D01*
X83715109Y-66850415D01*
X83787584Y-66724885D01*
X83825100Y-66584875D01*
X83825100Y-66439925D01*
X83787584Y-66299915D01*
X83765429Y-66261542D01*
X83715111Y-66174388D01*
X83715106Y-66174382D01*
X83612617Y-66071893D01*
X83612611Y-66071888D01*
X83487088Y-65999417D01*
X83487089Y-65999417D01*
X83475606Y-65996340D01*
X83347075Y-65961900D01*
X83202125Y-65961900D01*
X83073593Y-65996340D01*
X83062111Y-65999417D01*
X82936588Y-66071888D01*
X82936582Y-66071893D01*
X82834093Y-66174382D01*
X82834088Y-66174388D01*
X82761617Y-66299911D01*
X82761616Y-66299915D01*
X82724100Y-66439925D01*
X64514300Y-66439925D01*
X64514300Y-65227130D01*
X66347900Y-65227130D01*
X66347900Y-65434069D01*
X66388268Y-65637012D01*
X66388270Y-65637020D01*
X66467458Y-65828196D01*
X66582424Y-66000257D01*
X66728742Y-66146575D01*
X66728745Y-66146577D01*
X66900802Y-66261541D01*
X67091980Y-66340730D01*
X67294930Y-66381099D01*
X67294934Y-66381100D01*
X67294935Y-66381100D01*
X67751866Y-66381100D01*
X67751867Y-66381099D01*
X67954820Y-66340730D01*
X68145998Y-66261541D01*
X68318055Y-66146577D01*
X68464377Y-66000255D01*
X68579341Y-65828198D01*
X68598345Y-65782318D01*
X92295500Y-65782318D01*
X92295500Y-66990857D01*
X92298353Y-67021287D01*
X92298353Y-67021289D01*
X92341958Y-67145901D01*
X92343207Y-67149470D01*
X92423850Y-67258738D01*
X92533118Y-67339381D01*
X92573911Y-67353655D01*
X92661296Y-67384233D01*
X92661298Y-67384233D01*
X92661301Y-67384234D01*
X92675432Y-67385559D01*
X92740338Y-67411414D01*
X92780965Y-67468258D01*
X92787258Y-67521170D01*
X92786977Y-67524013D01*
X93249554Y-67986588D01*
X93243339Y-67986588D01*
X93141606Y-68013847D01*
X93050394Y-68066508D01*
X92975920Y-68140982D01*
X92923259Y-68232194D01*
X92896000Y-68333927D01*
X92896000Y-68340140D01*
X92433426Y-67877566D01*
X92433426Y-67877567D01*
X92409813Y-67912906D01*
X92409809Y-67912913D01*
X92334429Y-68094898D01*
X92334427Y-68094906D01*
X92296000Y-68288092D01*
X92296000Y-68485083D01*
X92334427Y-68678269D01*
X92334430Y-68678281D01*
X92409808Y-68860261D01*
X92409809Y-68860263D01*
X92433425Y-68895607D01*
X92896000Y-68433033D01*
X92896000Y-68439249D01*
X92923259Y-68540982D01*
X92975920Y-68632194D01*
X93050394Y-68706668D01*
X93141606Y-68759329D01*
X93243339Y-68786588D01*
X93249553Y-68786588D01*
X92786979Y-69249160D01*
X92822328Y-69272780D01*
X93004306Y-69348157D01*
X93004318Y-69348160D01*
X93197504Y-69386587D01*
X93197508Y-69386588D01*
X93394492Y-69386588D01*
X93394495Y-69386587D01*
X93587681Y-69348160D01*
X93587693Y-69348157D01*
X93769676Y-69272778D01*
X93769680Y-69272775D01*
X93805019Y-69249161D01*
X93805020Y-69249160D01*
X93342448Y-68786588D01*
X93348661Y-68786588D01*
X93450394Y-68759329D01*
X93541606Y-68706668D01*
X93616080Y-68632194D01*
X93668741Y-68540982D01*
X93696000Y-68439249D01*
X93696000Y-68433036D01*
X94158572Y-68895608D01*
X94158573Y-68895607D01*
X94182187Y-68860268D01*
X94182190Y-68860264D01*
X94257569Y-68678281D01*
X94257572Y-68678269D01*
X94295999Y-68485083D01*
X94296000Y-68485080D01*
X94296000Y-68288096D01*
X94295999Y-68288092D01*
X94257572Y-68094906D01*
X94257569Y-68094894D01*
X94182192Y-67912916D01*
X94158572Y-67877567D01*
X93696000Y-68340139D01*
X93696000Y-68333927D01*
X93668741Y-68232194D01*
X93616080Y-68140982D01*
X93541606Y-68066508D01*
X93450394Y-68013847D01*
X93348661Y-67986588D01*
X93342447Y-67986588D01*
X93805020Y-67524013D01*
X93804740Y-67521170D01*
X93817759Y-67452524D01*
X93865825Y-67401814D01*
X93916566Y-67385559D01*
X93930699Y-67384234D01*
X93930701Y-67384233D01*
X93930703Y-67384233D01*
X93977294Y-67367929D01*
X94058882Y-67339381D01*
X94168150Y-67258738D01*
X94248793Y-67149470D01*
X94279085Y-67062900D01*
X94293646Y-67021289D01*
X94293646Y-67021287D01*
X94296500Y-66990857D01*
X94296500Y-65782318D01*
X94293646Y-65751888D01*
X94293646Y-65751886D01*
X94248793Y-65623707D01*
X94248792Y-65623705D01*
X94168150Y-65514438D01*
X94058882Y-65433795D01*
X94058880Y-65433794D01*
X93930700Y-65388941D01*
X93900270Y-65386088D01*
X93900266Y-65386088D01*
X92691734Y-65386088D01*
X92691730Y-65386088D01*
X92661300Y-65388941D01*
X92661298Y-65388941D01*
X92533119Y-65433794D01*
X92533117Y-65433795D01*
X92423850Y-65514438D01*
X92343207Y-65623705D01*
X92343206Y-65623707D01*
X92298353Y-65751886D01*
X92298353Y-65751888D01*
X92295500Y-65782318D01*
X68598345Y-65782318D01*
X68658530Y-65637020D01*
X68698900Y-65434065D01*
X68698900Y-65227135D01*
X68658530Y-65024180D01*
X68579341Y-64833002D01*
X68464377Y-64660945D01*
X68464375Y-64660942D01*
X68318057Y-64514624D01*
X68232026Y-64457141D01*
X68145998Y-64399659D01*
X68081367Y-64372888D01*
X67954820Y-64320470D01*
X67954812Y-64320468D01*
X67751869Y-64280100D01*
X67751865Y-64280100D01*
X67294935Y-64280100D01*
X67294930Y-64280100D01*
X67091987Y-64320468D01*
X67091979Y-64320470D01*
X66900803Y-64399658D01*
X66728742Y-64514624D01*
X66582424Y-64660942D01*
X66467458Y-64833003D01*
X66388270Y-65024179D01*
X66388268Y-65024187D01*
X66347900Y-65227130D01*
X64514300Y-65227130D01*
X64514300Y-62727130D01*
X66347900Y-62727130D01*
X66347900Y-62934069D01*
X66388268Y-63137012D01*
X66388270Y-63137020D01*
X66418967Y-63211130D01*
X66467459Y-63328198D01*
X66524941Y-63414226D01*
X66582424Y-63500257D01*
X66728742Y-63646575D01*
X66728745Y-63646577D01*
X66900802Y-63761541D01*
X67091980Y-63840730D01*
X67294930Y-63881099D01*
X67294934Y-63881100D01*
X67294935Y-63881100D01*
X67751866Y-63881100D01*
X67751867Y-63881099D01*
X67954820Y-63840730D01*
X68145998Y-63761541D01*
X68178144Y-63740062D01*
X84129996Y-63740062D01*
X84129996Y-63885012D01*
X84167512Y-64025022D01*
X84167513Y-64025025D01*
X84239984Y-64150548D01*
X84239989Y-64150554D01*
X84290624Y-64201189D01*
X84324109Y-64262512D01*
X84319125Y-64332204D01*
X84297827Y-64365351D01*
X84299240Y-64366435D01*
X84294295Y-64372878D01*
X84278834Y-64399658D01*
X84221816Y-64498415D01*
X84184300Y-64638425D01*
X84184300Y-64783375D01*
X84221816Y-64923385D01*
X84221817Y-64923388D01*
X84294288Y-65048911D01*
X84294290Y-65048913D01*
X84294291Y-65048915D01*
X84396785Y-65151409D01*
X84396786Y-65151410D01*
X84396788Y-65151411D01*
X84522311Y-65223882D01*
X84522312Y-65223882D01*
X84522315Y-65223884D01*
X84662325Y-65261400D01*
X84662328Y-65261400D01*
X84807272Y-65261400D01*
X84807275Y-65261400D01*
X84947285Y-65223884D01*
X85072815Y-65151409D01*
X85175309Y-65048915D01*
X85247784Y-64923385D01*
X85285300Y-64783375D01*
X85285300Y-64638425D01*
X85247784Y-64498415D01*
X85190766Y-64399658D01*
X85175311Y-64372888D01*
X85175306Y-64372882D01*
X85124671Y-64322247D01*
X85091186Y-64260924D01*
X85096170Y-64191232D01*
X85117478Y-64158094D01*
X85116056Y-64157003D01*
X85121002Y-64150556D01*
X85121003Y-64150553D01*
X85121005Y-64150552D01*
X85193480Y-64025022D01*
X85230996Y-63885012D01*
X85230996Y-63740062D01*
X85193480Y-63600052D01*
X85121005Y-63474522D01*
X85018511Y-63372028D01*
X85018509Y-63372027D01*
X85018507Y-63372025D01*
X84892984Y-63299554D01*
X84892985Y-63299554D01*
X84881502Y-63296477D01*
X84752971Y-63262037D01*
X84608021Y-63262037D01*
X84479489Y-63296477D01*
X84468007Y-63299554D01*
X84342484Y-63372025D01*
X84342478Y-63372030D01*
X84239989Y-63474519D01*
X84239984Y-63474525D01*
X84167513Y-63600048D01*
X84167512Y-63600052D01*
X84129996Y-63740062D01*
X68178144Y-63740062D01*
X68318055Y-63646577D01*
X68318058Y-63646574D01*
X68320379Y-63644254D01*
X68464374Y-63500258D01*
X68464375Y-63500257D01*
X68464377Y-63500255D01*
X68579341Y-63328198D01*
X68658530Y-63137020D01*
X68698900Y-62934065D01*
X68698900Y-62727135D01*
X68658530Y-62524180D01*
X68579341Y-62333002D01*
X68464377Y-62160945D01*
X68464375Y-62160942D01*
X68318057Y-62014624D01*
X68232026Y-61957141D01*
X68145998Y-61899659D01*
X68133753Y-61894587D01*
X67954820Y-61820470D01*
X67954812Y-61820468D01*
X67751869Y-61780100D01*
X67751865Y-61780100D01*
X67294935Y-61780100D01*
X67294930Y-61780100D01*
X67091987Y-61820468D01*
X67091979Y-61820470D01*
X66900803Y-61899658D01*
X66728742Y-62014624D01*
X66582424Y-62160942D01*
X66467458Y-62333003D01*
X66388270Y-62524179D01*
X66388268Y-62524187D01*
X66347900Y-62727130D01*
X64514300Y-62727130D01*
X64514300Y-60227130D01*
X66347900Y-60227130D01*
X66347900Y-60434069D01*
X66388268Y-60637012D01*
X66388270Y-60637020D01*
X66467458Y-60828196D01*
X66582424Y-61000257D01*
X66728742Y-61146575D01*
X66728745Y-61146577D01*
X66900802Y-61261541D01*
X67091980Y-61340730D01*
X67220309Y-61366256D01*
X67294930Y-61381099D01*
X67294934Y-61381100D01*
X67294935Y-61381100D01*
X67751866Y-61381100D01*
X67751867Y-61381099D01*
X67954820Y-61340730D01*
X68145998Y-61261541D01*
X68318055Y-61146577D01*
X68464377Y-61000255D01*
X68579341Y-60828198D01*
X68593869Y-60793125D01*
X82558700Y-60793125D01*
X82558700Y-60938075D01*
X82575362Y-61000257D01*
X82596217Y-61078088D01*
X82668688Y-61203611D01*
X82668690Y-61203613D01*
X82668691Y-61203615D01*
X82771185Y-61306109D01*
X82826552Y-61338075D01*
X82874767Y-61388643D01*
X82887989Y-61457250D01*
X82862021Y-61522114D01*
X82852234Y-61533141D01*
X82834094Y-61551281D01*
X82834088Y-61551288D01*
X82761617Y-61676811D01*
X82761616Y-61676815D01*
X82724100Y-61816825D01*
X82724100Y-61961775D01*
X82760476Y-62097530D01*
X82761617Y-62101788D01*
X82834088Y-62227311D01*
X82834090Y-62227313D01*
X82834091Y-62227315D01*
X82936585Y-62329809D01*
X82936586Y-62329810D01*
X82936588Y-62329811D01*
X83062111Y-62402282D01*
X83062112Y-62402282D01*
X83062115Y-62402284D01*
X83202125Y-62439800D01*
X83202128Y-62439800D01*
X83347072Y-62439800D01*
X83347075Y-62439800D01*
X83487085Y-62402284D01*
X83612615Y-62329809D01*
X83715109Y-62227315D01*
X83787584Y-62101785D01*
X83788724Y-62097530D01*
X146982500Y-62097530D01*
X146982500Y-62304469D01*
X147022868Y-62507412D01*
X147022870Y-62507420D01*
X147102059Y-62698598D01*
X147121126Y-62727134D01*
X147217024Y-62870657D01*
X147363342Y-63016975D01*
X147363345Y-63016977D01*
X147535402Y-63131941D01*
X147726580Y-63211130D01*
X147929530Y-63251499D01*
X147929534Y-63251500D01*
X147929535Y-63251500D01*
X148136466Y-63251500D01*
X148136467Y-63251499D01*
X148339420Y-63211130D01*
X148530598Y-63131941D01*
X148702655Y-63016977D01*
X148848977Y-62870655D01*
X148963941Y-62698598D01*
X149043130Y-62507420D01*
X149083500Y-62304465D01*
X149083500Y-62097535D01*
X149043130Y-61894580D01*
X148963941Y-61703402D01*
X148848977Y-61531345D01*
X148848975Y-61531342D01*
X148702657Y-61385024D01*
X148584551Y-61306109D01*
X148530598Y-61270059D01*
X148339420Y-61190870D01*
X148339412Y-61190868D01*
X148136469Y-61150500D01*
X148136465Y-61150500D01*
X147929535Y-61150500D01*
X147929530Y-61150500D01*
X147726587Y-61190868D01*
X147726579Y-61190870D01*
X147535403Y-61270058D01*
X147363342Y-61385024D01*
X147217024Y-61531342D01*
X147102058Y-61703403D01*
X147022870Y-61894579D01*
X147022868Y-61894587D01*
X146982500Y-62097530D01*
X83788724Y-62097530D01*
X83825100Y-61961775D01*
X83825100Y-61816825D01*
X83787584Y-61676815D01*
X83715109Y-61551285D01*
X83612615Y-61448791D01*
X83610717Y-61447695D01*
X83557247Y-61416823D01*
X83509032Y-61366256D01*
X83495810Y-61297649D01*
X83521778Y-61232784D01*
X83531561Y-61221762D01*
X83549709Y-61203615D01*
X83622184Y-61078085D01*
X83659700Y-60938075D01*
X83659700Y-60793125D01*
X83622184Y-60653115D01*
X83549709Y-60527585D01*
X83447215Y-60425091D01*
X83447213Y-60425090D01*
X83447211Y-60425088D01*
X83321688Y-60352617D01*
X83321689Y-60352617D01*
X83310206Y-60349540D01*
X83181675Y-60315100D01*
X83036725Y-60315100D01*
X82908193Y-60349540D01*
X82896711Y-60352617D01*
X82771188Y-60425088D01*
X82771182Y-60425093D01*
X82668693Y-60527582D01*
X82668688Y-60527588D01*
X82596217Y-60653111D01*
X82596216Y-60653115D01*
X82558700Y-60793125D01*
X68593869Y-60793125D01*
X68658530Y-60637020D01*
X68698900Y-60434065D01*
X68698900Y-60227135D01*
X68658530Y-60024180D01*
X68579341Y-59833002D01*
X68464377Y-59660945D01*
X68464375Y-59660942D01*
X68318057Y-59514624D01*
X68314616Y-59512325D01*
X73517700Y-59512325D01*
X73517700Y-59657275D01*
X73546422Y-59764465D01*
X73555217Y-59797288D01*
X73627688Y-59922811D01*
X73627690Y-59922813D01*
X73627691Y-59922815D01*
X73730185Y-60025309D01*
X73730186Y-60025310D01*
X73730188Y-60025311D01*
X73855711Y-60097782D01*
X73855712Y-60097782D01*
X73855715Y-60097784D01*
X73995725Y-60135300D01*
X73995728Y-60135300D01*
X74140672Y-60135300D01*
X74140675Y-60135300D01*
X74280685Y-60097784D01*
X74406215Y-60025309D01*
X74508709Y-59922815D01*
X74581184Y-59797285D01*
X74618700Y-59657275D01*
X74618700Y-59557530D01*
X146982500Y-59557530D01*
X146982500Y-59764469D01*
X147022868Y-59967412D01*
X147022870Y-59967420D01*
X147102058Y-60158596D01*
X147217024Y-60330657D01*
X147363342Y-60476975D01*
X147363345Y-60476977D01*
X147535402Y-60591941D01*
X147726580Y-60671130D01*
X147929530Y-60711499D01*
X147929534Y-60711500D01*
X147929535Y-60711500D01*
X148136466Y-60711500D01*
X148136467Y-60711499D01*
X148339420Y-60671130D01*
X148530598Y-60591941D01*
X148702655Y-60476977D01*
X148848977Y-60330655D01*
X148963941Y-60158598D01*
X149043130Y-59967420D01*
X149083500Y-59764465D01*
X149083500Y-59557535D01*
X149043130Y-59354580D01*
X148963941Y-59163402D01*
X148848977Y-58991345D01*
X148848975Y-58991342D01*
X148702657Y-58845024D01*
X148616626Y-58787541D01*
X148530598Y-58730059D01*
X148339420Y-58650870D01*
X148339412Y-58650868D01*
X148136469Y-58610500D01*
X148136465Y-58610500D01*
X147929535Y-58610500D01*
X147929530Y-58610500D01*
X147726587Y-58650868D01*
X147726579Y-58650870D01*
X147535403Y-58730058D01*
X147363342Y-58845024D01*
X147217024Y-58991342D01*
X147102058Y-59163403D01*
X147022870Y-59354579D01*
X147022868Y-59354587D01*
X146982500Y-59557530D01*
X74618700Y-59557530D01*
X74618700Y-59512325D01*
X74581184Y-59372315D01*
X74527943Y-59280100D01*
X74508711Y-59246788D01*
X74508706Y-59246782D01*
X74406217Y-59144293D01*
X74406211Y-59144288D01*
X74280688Y-59071817D01*
X74280689Y-59071817D01*
X74269206Y-59068740D01*
X74140675Y-59034300D01*
X73995725Y-59034300D01*
X73867193Y-59068740D01*
X73855711Y-59071817D01*
X73730188Y-59144288D01*
X73730182Y-59144293D01*
X73627693Y-59246782D01*
X73627688Y-59246788D01*
X73555217Y-59372311D01*
X73555216Y-59372315D01*
X73517700Y-59512325D01*
X68314616Y-59512325D01*
X68232026Y-59457141D01*
X68145998Y-59399659D01*
X68079974Y-59372311D01*
X67954820Y-59320470D01*
X67954812Y-59320468D01*
X67751869Y-59280100D01*
X67751865Y-59280100D01*
X67294935Y-59280100D01*
X67294930Y-59280100D01*
X67091987Y-59320468D01*
X67091979Y-59320470D01*
X66900803Y-59399658D01*
X66728742Y-59514624D01*
X66582424Y-59660942D01*
X66467458Y-59833003D01*
X66388270Y-60024179D01*
X66388268Y-60024187D01*
X66347900Y-60227130D01*
X64514300Y-60227130D01*
X64514300Y-57023125D01*
X125460700Y-57023125D01*
X125460700Y-57168075D01*
X125475798Y-57224420D01*
X125498217Y-57308088D01*
X125570688Y-57433611D01*
X125570690Y-57433613D01*
X125570691Y-57433615D01*
X125673185Y-57536109D01*
X125673186Y-57536110D01*
X125673188Y-57536111D01*
X125798711Y-57608582D01*
X125798712Y-57608582D01*
X125798715Y-57608584D01*
X125938725Y-57646100D01*
X125938728Y-57646100D01*
X126083672Y-57646100D01*
X126083675Y-57646100D01*
X126223685Y-57608584D01*
X126349215Y-57536109D01*
X126451709Y-57433615D01*
X126524184Y-57308085D01*
X126561700Y-57168075D01*
X126561700Y-57023125D01*
X126560214Y-57017579D01*
X146983000Y-57017579D01*
X146983000Y-57224420D01*
X147023348Y-57427266D01*
X147023350Y-57427274D01*
X147102500Y-57618359D01*
X147134377Y-57666067D01*
X147134378Y-57666067D01*
X147550037Y-57250408D01*
X147567075Y-57313993D01*
X147632901Y-57428007D01*
X147725993Y-57521099D01*
X147840007Y-57586925D01*
X147903590Y-57603962D01*
X147487931Y-58019620D01*
X147487932Y-58019621D01*
X147535633Y-58051495D01*
X147535639Y-58051498D01*
X147726725Y-58130649D01*
X147726733Y-58130651D01*
X147929579Y-58170999D01*
X147929583Y-58171000D01*
X148136417Y-58171000D01*
X148136420Y-58170999D01*
X148339266Y-58130651D01*
X148339274Y-58130649D01*
X148530366Y-58051495D01*
X148578066Y-58019621D01*
X148578067Y-58019620D01*
X148162409Y-57603962D01*
X148225993Y-57586925D01*
X148340007Y-57521099D01*
X148433099Y-57428007D01*
X148498925Y-57313993D01*
X148515962Y-57250409D01*
X148931620Y-57666067D01*
X148931621Y-57666066D01*
X148963495Y-57618366D01*
X149042649Y-57427274D01*
X149042651Y-57427266D01*
X149082999Y-57224420D01*
X149083000Y-57224417D01*
X149083000Y-57017583D01*
X149082999Y-57017579D01*
X149042651Y-56814733D01*
X149042649Y-56814725D01*
X148963498Y-56623639D01*
X148963495Y-56623633D01*
X148931621Y-56575932D01*
X148931620Y-56575931D01*
X148515962Y-56991590D01*
X148498925Y-56928007D01*
X148433099Y-56813993D01*
X148340007Y-56720901D01*
X148225993Y-56655075D01*
X148162409Y-56638037D01*
X148578067Y-56222378D01*
X148578067Y-56222377D01*
X148530359Y-56190500D01*
X148339274Y-56111350D01*
X148339266Y-56111348D01*
X148136420Y-56071000D01*
X147929579Y-56071000D01*
X147726733Y-56111348D01*
X147726725Y-56111350D01*
X147535641Y-56190500D01*
X147535631Y-56190505D01*
X147487932Y-56222377D01*
X147487932Y-56222378D01*
X147903591Y-56638037D01*
X147840007Y-56655075D01*
X147725993Y-56720901D01*
X147632901Y-56813993D01*
X147567075Y-56928007D01*
X147550037Y-56991591D01*
X147134378Y-56575932D01*
X147134377Y-56575932D01*
X147102505Y-56623631D01*
X147102500Y-56623641D01*
X147023350Y-56814725D01*
X147023348Y-56814733D01*
X146983000Y-57017579D01*
X126560214Y-57017579D01*
X126524184Y-56883115D01*
X126484276Y-56813993D01*
X126451711Y-56757588D01*
X126451706Y-56757582D01*
X126349217Y-56655093D01*
X126349211Y-56655088D01*
X126223688Y-56582617D01*
X126223689Y-56582617D01*
X126198740Y-56575932D01*
X126083675Y-56545100D01*
X125938725Y-56545100D01*
X125823660Y-56575932D01*
X125798711Y-56582617D01*
X125673188Y-56655088D01*
X125673182Y-56655093D01*
X125570693Y-56757582D01*
X125570688Y-56757588D01*
X125498217Y-56883111D01*
X125498216Y-56883115D01*
X125460700Y-57023125D01*
X64514300Y-57023125D01*
X64514300Y-55321325D01*
X78699300Y-55321325D01*
X78699300Y-55466275D01*
X78728581Y-55575552D01*
X78736817Y-55606288D01*
X78809288Y-55731811D01*
X78809290Y-55731813D01*
X78809291Y-55731815D01*
X78911785Y-55834309D01*
X78911786Y-55834310D01*
X78911788Y-55834311D01*
X79037311Y-55906782D01*
X79037312Y-55906782D01*
X79037315Y-55906784D01*
X79177325Y-55944300D01*
X79177328Y-55944300D01*
X79322272Y-55944300D01*
X79322275Y-55944300D01*
X79462285Y-55906784D01*
X79587815Y-55834309D01*
X79690309Y-55731815D01*
X79762784Y-55606285D01*
X79800300Y-55466275D01*
X79800300Y-55321325D01*
X79793494Y-55295925D01*
X83296700Y-55295925D01*
X83296700Y-55440875D01*
X83332787Y-55575552D01*
X83334217Y-55580888D01*
X83406688Y-55706411D01*
X83406690Y-55706413D01*
X83406691Y-55706415D01*
X83509185Y-55808909D01*
X83509186Y-55808910D01*
X83509188Y-55808911D01*
X83634711Y-55881382D01*
X83634712Y-55881382D01*
X83634715Y-55881384D01*
X83774725Y-55918900D01*
X83774728Y-55918900D01*
X83919672Y-55918900D01*
X83919675Y-55918900D01*
X84059685Y-55881384D01*
X84185215Y-55808909D01*
X84287709Y-55706415D01*
X84360184Y-55580885D01*
X84397700Y-55440875D01*
X84397700Y-55295925D01*
X84360184Y-55155915D01*
X84360182Y-55155911D01*
X84360182Y-55155910D01*
X84287711Y-55030388D01*
X84287706Y-55030382D01*
X84185217Y-54927893D01*
X84185211Y-54927888D01*
X84059688Y-54855417D01*
X84059689Y-54855417D01*
X84048206Y-54852340D01*
X83919675Y-54817900D01*
X83774725Y-54817900D01*
X83646193Y-54852340D01*
X83634711Y-54855417D01*
X83509188Y-54927888D01*
X83509182Y-54927893D01*
X83406693Y-55030382D01*
X83406688Y-55030388D01*
X83334217Y-55155911D01*
X83334216Y-55155915D01*
X83296700Y-55295925D01*
X79793494Y-55295925D01*
X79762784Y-55181315D01*
X79748119Y-55155915D01*
X79690311Y-55055788D01*
X79690306Y-55055782D01*
X79587817Y-54953293D01*
X79587811Y-54953288D01*
X79462288Y-54880817D01*
X79462289Y-54880817D01*
X79450806Y-54877740D01*
X79322275Y-54843300D01*
X79177325Y-54843300D01*
X79048793Y-54877740D01*
X79037311Y-54880817D01*
X78911788Y-54953288D01*
X78911782Y-54953293D01*
X78809293Y-55055782D01*
X78809288Y-55055788D01*
X78736817Y-55181311D01*
X78736816Y-55181315D01*
X78699300Y-55321325D01*
X64514300Y-55321325D01*
X64514300Y-53155530D01*
X66322500Y-53155530D01*
X66322500Y-54464069D01*
X66325353Y-54494499D01*
X66325353Y-54494501D01*
X66370206Y-54622680D01*
X66370207Y-54622682D01*
X66450850Y-54731950D01*
X66560118Y-54812593D01*
X66602845Y-54827544D01*
X66688299Y-54857446D01*
X66718730Y-54860300D01*
X66718734Y-54860300D01*
X68277270Y-54860300D01*
X68307699Y-54857446D01*
X68307701Y-54857446D01*
X68371790Y-54835019D01*
X68435882Y-54812593D01*
X68545150Y-54731950D01*
X68625793Y-54622682D01*
X68668133Y-54501682D01*
X68670646Y-54494501D01*
X68670646Y-54494499D01*
X68673500Y-54464069D01*
X68673500Y-53644925D01*
X81798100Y-53644925D01*
X81798100Y-53789875D01*
X81811067Y-53838267D01*
X81835617Y-53929888D01*
X81908088Y-54055411D01*
X81908090Y-54055413D01*
X81908091Y-54055415D01*
X82010585Y-54157909D01*
X82010586Y-54157910D01*
X82010588Y-54157911D01*
X82136111Y-54230382D01*
X82136112Y-54230382D01*
X82136115Y-54230384D01*
X82276125Y-54267900D01*
X82276128Y-54267900D01*
X82421072Y-54267900D01*
X82421075Y-54267900D01*
X82561085Y-54230384D01*
X82686615Y-54157909D01*
X82789109Y-54055415D01*
X82861584Y-53929885D01*
X82899100Y-53789875D01*
X82899100Y-53644925D01*
X82861584Y-53504915D01*
X82849920Y-53484713D01*
X82789111Y-53379388D01*
X82789106Y-53379382D01*
X82686617Y-53276893D01*
X82686611Y-53276888D01*
X82561088Y-53204417D01*
X82561089Y-53204417D01*
X82549606Y-53201340D01*
X82421075Y-53166900D01*
X82276125Y-53166900D01*
X82147593Y-53201340D01*
X82136111Y-53204417D01*
X82010588Y-53276888D01*
X82010582Y-53276893D01*
X81908093Y-53379382D01*
X81908088Y-53379388D01*
X81835617Y-53504911D01*
X81835616Y-53504915D01*
X81798100Y-53644925D01*
X68673500Y-53644925D01*
X68673500Y-53155530D01*
X68670646Y-53125100D01*
X68670646Y-53125098D01*
X68625793Y-52996919D01*
X68625792Y-52996917D01*
X68617797Y-52986084D01*
X68545150Y-52887650D01*
X68435882Y-52807007D01*
X68435880Y-52807006D01*
X68307700Y-52762153D01*
X68277270Y-52759300D01*
X68277266Y-52759300D01*
X66718734Y-52759300D01*
X66718730Y-52759300D01*
X66688300Y-52762153D01*
X66688298Y-52762153D01*
X66560119Y-52807006D01*
X66560117Y-52807007D01*
X66450850Y-52887650D01*
X66370207Y-52996917D01*
X66370206Y-52996919D01*
X66325353Y-53125098D01*
X66325353Y-53125100D01*
X66322500Y-53155530D01*
X64514300Y-53155530D01*
X64514300Y-52400625D01*
X82750900Y-52400625D01*
X82750900Y-52545575D01*
X82788416Y-52685585D01*
X82788417Y-52685588D01*
X82860888Y-52811111D01*
X82860890Y-52811113D01*
X82860891Y-52811115D01*
X82963385Y-52913609D01*
X82963386Y-52913610D01*
X82963388Y-52913611D01*
X83088911Y-52986082D01*
X83088912Y-52986082D01*
X83088915Y-52986084D01*
X83228925Y-53023600D01*
X83228928Y-53023600D01*
X83373872Y-53023600D01*
X83373875Y-53023600D01*
X83513885Y-52986084D01*
X83639415Y-52913609D01*
X83741909Y-52811115D01*
X83814384Y-52685585D01*
X83851900Y-52545575D01*
X83851900Y-52400625D01*
X83814384Y-52260615D01*
X83780090Y-52201217D01*
X83741911Y-52135088D01*
X83741906Y-52135082D01*
X83639417Y-52032593D01*
X83639411Y-52032588D01*
X83513888Y-51960117D01*
X83513889Y-51960117D01*
X83502406Y-51957040D01*
X83373875Y-51922600D01*
X83228925Y-51922600D01*
X83100393Y-51957040D01*
X83088911Y-51960117D01*
X82963388Y-52032588D01*
X82963382Y-52032593D01*
X82860893Y-52135082D01*
X82860888Y-52135088D01*
X82788417Y-52260611D01*
X82788416Y-52260615D01*
X82750900Y-52400625D01*
X64514300Y-52400625D01*
X64514300Y-51206330D01*
X66322500Y-51206330D01*
X66322500Y-51413269D01*
X66362868Y-51616212D01*
X66362870Y-51616220D01*
X66442058Y-51807396D01*
X66557024Y-51979457D01*
X66703342Y-52125775D01*
X66703345Y-52125777D01*
X66875402Y-52240741D01*
X67066580Y-52319930D01*
X67269530Y-52360299D01*
X67269534Y-52360300D01*
X67269535Y-52360300D01*
X67726466Y-52360300D01*
X67726467Y-52360299D01*
X67929420Y-52319930D01*
X68120598Y-52240741D01*
X68292655Y-52125777D01*
X68438977Y-51979455D01*
X68553941Y-51807398D01*
X68580608Y-51743018D01*
X92322300Y-51743018D01*
X92322300Y-52951557D01*
X92325153Y-52981987D01*
X92325153Y-52981989D01*
X92370006Y-53110168D01*
X92370007Y-53110170D01*
X92450650Y-53219438D01*
X92559918Y-53300081D01*
X92600711Y-53314355D01*
X92688096Y-53344933D01*
X92688098Y-53344933D01*
X92688101Y-53344934D01*
X92702232Y-53346259D01*
X92767138Y-53372114D01*
X92807765Y-53428958D01*
X92814058Y-53481870D01*
X92813777Y-53484713D01*
X93276354Y-53947288D01*
X93270139Y-53947288D01*
X93168406Y-53974547D01*
X93077194Y-54027208D01*
X93002720Y-54101682D01*
X92950059Y-54192894D01*
X92922800Y-54294627D01*
X92922800Y-54300840D01*
X92460226Y-53838266D01*
X92460226Y-53838267D01*
X92436613Y-53873606D01*
X92436609Y-53873613D01*
X92361229Y-54055598D01*
X92361227Y-54055606D01*
X92322800Y-54248792D01*
X92322800Y-54445783D01*
X92361227Y-54638969D01*
X92361230Y-54638981D01*
X92436608Y-54820961D01*
X92436609Y-54820963D01*
X92460225Y-54856307D01*
X92922800Y-54393733D01*
X92922800Y-54399949D01*
X92950059Y-54501682D01*
X93002720Y-54592894D01*
X93077194Y-54667368D01*
X93168406Y-54720029D01*
X93270139Y-54747288D01*
X93276353Y-54747288D01*
X92813779Y-55209860D01*
X92849128Y-55233480D01*
X93031106Y-55308857D01*
X93031118Y-55308860D01*
X93224304Y-55347287D01*
X93224308Y-55347288D01*
X93421292Y-55347288D01*
X93421295Y-55347287D01*
X93614481Y-55308860D01*
X93614493Y-55308857D01*
X93796476Y-55233478D01*
X93796480Y-55233475D01*
X93831819Y-55209861D01*
X93831820Y-55209860D01*
X93369248Y-54747288D01*
X93375461Y-54747288D01*
X93477194Y-54720029D01*
X93568406Y-54667368D01*
X93642880Y-54592894D01*
X93695541Y-54501682D01*
X93722800Y-54399949D01*
X93722800Y-54393736D01*
X94185372Y-54856308D01*
X94185373Y-54856307D01*
X94208987Y-54820968D01*
X94208990Y-54820964D01*
X94284369Y-54638981D01*
X94284372Y-54638969D01*
X94322799Y-54445783D01*
X94322800Y-54445780D01*
X94322800Y-54248796D01*
X94322799Y-54248792D01*
X94284372Y-54055606D01*
X94284369Y-54055594D01*
X94208992Y-53873616D01*
X94185372Y-53838267D01*
X93722800Y-54300839D01*
X93722800Y-54294627D01*
X93695541Y-54192894D01*
X93642880Y-54101682D01*
X93568406Y-54027208D01*
X93477194Y-53974547D01*
X93375461Y-53947288D01*
X93369247Y-53947288D01*
X93605287Y-53711247D01*
X146982500Y-53711247D01*
X146982500Y-55450752D01*
X146994131Y-55509229D01*
X146994132Y-55509230D01*
X147038447Y-55575552D01*
X147104769Y-55619867D01*
X147104770Y-55619868D01*
X147163247Y-55631499D01*
X147163250Y-55631500D01*
X147163252Y-55631500D01*
X148902750Y-55631500D01*
X148902751Y-55631499D01*
X148917568Y-55628552D01*
X148961229Y-55619868D01*
X148961229Y-55619867D01*
X148961231Y-55619867D01*
X149027552Y-55575552D01*
X149071867Y-55509231D01*
X149071867Y-55509229D01*
X149071868Y-55509229D01*
X149083499Y-55450752D01*
X149083500Y-55450750D01*
X149083500Y-53711249D01*
X149083499Y-53711247D01*
X149071868Y-53652770D01*
X149071867Y-53652769D01*
X149027552Y-53586447D01*
X148961230Y-53542132D01*
X148961229Y-53542131D01*
X148902752Y-53530500D01*
X148902748Y-53530500D01*
X147163252Y-53530500D01*
X147163247Y-53530500D01*
X147104770Y-53542131D01*
X147104769Y-53542132D01*
X147038447Y-53586447D01*
X146994132Y-53652769D01*
X146994131Y-53652770D01*
X146982500Y-53711247D01*
X93605287Y-53711247D01*
X93699055Y-53617479D01*
X93831820Y-53484713D01*
X93831540Y-53481870D01*
X93844559Y-53413224D01*
X93892625Y-53362514D01*
X93943366Y-53346259D01*
X93957499Y-53344934D01*
X93957501Y-53344933D01*
X93957503Y-53344933D01*
X94004094Y-53328629D01*
X94085682Y-53300081D01*
X94194950Y-53219438D01*
X94275593Y-53110170D01*
X94305885Y-53023600D01*
X94320446Y-52981989D01*
X94320446Y-52981987D01*
X94323300Y-52951557D01*
X94323300Y-51743018D01*
X94320446Y-51712588D01*
X94320446Y-51712586D01*
X94275593Y-51584407D01*
X94275590Y-51584401D01*
X94251259Y-51551434D01*
X94251257Y-51551432D01*
X94231886Y-51525185D01*
X94202911Y-51485925D01*
X116545300Y-51485925D01*
X116545300Y-51630875D01*
X116580575Y-51762520D01*
X116582817Y-51770888D01*
X116655288Y-51896411D01*
X116655290Y-51896413D01*
X116655291Y-51896415D01*
X116757785Y-51998909D01*
X116757786Y-51998910D01*
X116757788Y-51998911D01*
X116883311Y-52071382D01*
X116883312Y-52071382D01*
X116883315Y-52071384D01*
X117023325Y-52108900D01*
X117023328Y-52108900D01*
X117168272Y-52108900D01*
X117168275Y-52108900D01*
X117308285Y-52071384D01*
X117433815Y-51998909D01*
X117536309Y-51896415D01*
X117608784Y-51770885D01*
X117611025Y-51762518D01*
X117647390Y-51702859D01*
X117710237Y-51672330D01*
X117779612Y-51680625D01*
X117833490Y-51725110D01*
X117850575Y-51762520D01*
X117852817Y-51770887D01*
X117852817Y-51770888D01*
X117925288Y-51896411D01*
X117925290Y-51896413D01*
X117925291Y-51896415D01*
X118027785Y-51998909D01*
X118027786Y-51998910D01*
X118027788Y-51998911D01*
X118153311Y-52071382D01*
X118153312Y-52071382D01*
X118153315Y-52071384D01*
X118293325Y-52108900D01*
X118293328Y-52108900D01*
X118438272Y-52108900D01*
X118438275Y-52108900D01*
X118578285Y-52071384D01*
X118703815Y-51998909D01*
X118806309Y-51896415D01*
X118878784Y-51770885D01*
X118916300Y-51630875D01*
X118916300Y-51485925D01*
X121625300Y-51485925D01*
X121625300Y-51630875D01*
X121660575Y-51762520D01*
X121662817Y-51770888D01*
X121735288Y-51896411D01*
X121735290Y-51896413D01*
X121735291Y-51896415D01*
X121837785Y-51998909D01*
X121837786Y-51998910D01*
X121837788Y-51998911D01*
X121963311Y-52071382D01*
X121963312Y-52071382D01*
X121963315Y-52071384D01*
X122103325Y-52108900D01*
X122103328Y-52108900D01*
X122248272Y-52108900D01*
X122248275Y-52108900D01*
X122388285Y-52071384D01*
X122513815Y-51998909D01*
X122616309Y-51896415D01*
X122688784Y-51770885D01*
X122691025Y-51762518D01*
X122727390Y-51702859D01*
X122790237Y-51672330D01*
X122859612Y-51680625D01*
X122913490Y-51725110D01*
X122930575Y-51762520D01*
X122932817Y-51770887D01*
X122932817Y-51770888D01*
X123005288Y-51896411D01*
X123005290Y-51896413D01*
X123005291Y-51896415D01*
X123107785Y-51998909D01*
X123107786Y-51998910D01*
X123107788Y-51998911D01*
X123233311Y-52071382D01*
X123233312Y-52071382D01*
X123233315Y-52071384D01*
X123373325Y-52108900D01*
X123373328Y-52108900D01*
X123518272Y-52108900D01*
X123518275Y-52108900D01*
X123658285Y-52071384D01*
X123783815Y-51998909D01*
X123886309Y-51896415D01*
X123947329Y-51790725D01*
X132648900Y-51790725D01*
X132648900Y-51935675D01*
X132685263Y-52071382D01*
X132686417Y-52075688D01*
X132758888Y-52201211D01*
X132758890Y-52201213D01*
X132758891Y-52201215D01*
X132861385Y-52303709D01*
X132861386Y-52303710D01*
X132861388Y-52303711D01*
X132986911Y-52376182D01*
X132986912Y-52376182D01*
X132986915Y-52376184D01*
X133126925Y-52413700D01*
X133126928Y-52413700D01*
X133271872Y-52413700D01*
X133271875Y-52413700D01*
X133411885Y-52376184D01*
X133537415Y-52303709D01*
X133639909Y-52201215D01*
X133712384Y-52075685D01*
X133749900Y-51935675D01*
X133749900Y-51790725D01*
X133712384Y-51650715D01*
X133700929Y-51630875D01*
X133639911Y-51525188D01*
X133639906Y-51525182D01*
X133537417Y-51422693D01*
X133537411Y-51422688D01*
X133411888Y-51350217D01*
X133411889Y-51350217D01*
X133395819Y-51345911D01*
X133271875Y-51312700D01*
X133126925Y-51312700D01*
X133002981Y-51345911D01*
X132986911Y-51350217D01*
X132861388Y-51422688D01*
X132861382Y-51422693D01*
X132758893Y-51525182D01*
X132758888Y-51525188D01*
X132686417Y-51650711D01*
X132686416Y-51650715D01*
X132648900Y-51790725D01*
X123947329Y-51790725D01*
X123958784Y-51770885D01*
X123996300Y-51630875D01*
X123996300Y-51485925D01*
X123958784Y-51345915D01*
X123939607Y-51312700D01*
X123886311Y-51220388D01*
X123886306Y-51220382D01*
X123783817Y-51117893D01*
X123783811Y-51117888D01*
X123658288Y-51045417D01*
X123658289Y-51045417D01*
X123646806Y-51042340D01*
X123518275Y-51007900D01*
X123373325Y-51007900D01*
X123244793Y-51042340D01*
X123233311Y-51045417D01*
X123107788Y-51117888D01*
X123107782Y-51117893D01*
X123005293Y-51220382D01*
X123005288Y-51220388D01*
X122932817Y-51345911D01*
X122932815Y-51345916D01*
X122930574Y-51354281D01*
X122894209Y-51413941D01*
X122831361Y-51444469D01*
X122761986Y-51436174D01*
X122708109Y-51391688D01*
X122691026Y-51354281D01*
X122688784Y-51345916D01*
X122688782Y-51345911D01*
X122616311Y-51220388D01*
X122616306Y-51220382D01*
X122513817Y-51117893D01*
X122513811Y-51117888D01*
X122388288Y-51045417D01*
X122388289Y-51045417D01*
X122376806Y-51042340D01*
X122248275Y-51007900D01*
X122103325Y-51007900D01*
X121974793Y-51042340D01*
X121963311Y-51045417D01*
X121837788Y-51117888D01*
X121837782Y-51117893D01*
X121735293Y-51220382D01*
X121735288Y-51220388D01*
X121662817Y-51345911D01*
X121661663Y-51350217D01*
X121625300Y-51485925D01*
X118916300Y-51485925D01*
X118878784Y-51345915D01*
X118859607Y-51312700D01*
X118806311Y-51220388D01*
X118806306Y-51220382D01*
X118703817Y-51117893D01*
X118703811Y-51117888D01*
X118578288Y-51045417D01*
X118578289Y-51045417D01*
X118566806Y-51042340D01*
X118438275Y-51007900D01*
X118293325Y-51007900D01*
X118164793Y-51042340D01*
X118153311Y-51045417D01*
X118027788Y-51117888D01*
X118027782Y-51117893D01*
X117925293Y-51220382D01*
X117925288Y-51220388D01*
X117852817Y-51345911D01*
X117852815Y-51345916D01*
X117850574Y-51354281D01*
X117814209Y-51413941D01*
X117751361Y-51444469D01*
X117681986Y-51436174D01*
X117628109Y-51391688D01*
X117611026Y-51354281D01*
X117608784Y-51345916D01*
X117608782Y-51345911D01*
X117536311Y-51220388D01*
X117536306Y-51220382D01*
X117433817Y-51117893D01*
X117433811Y-51117888D01*
X117308288Y-51045417D01*
X117308289Y-51045417D01*
X117296806Y-51042340D01*
X117168275Y-51007900D01*
X117023325Y-51007900D01*
X116894793Y-51042340D01*
X116883311Y-51045417D01*
X116757788Y-51117888D01*
X116757782Y-51117893D01*
X116655293Y-51220382D01*
X116655288Y-51220388D01*
X116582817Y-51345911D01*
X116581663Y-51350217D01*
X116545300Y-51485925D01*
X94202911Y-51485925D01*
X94194950Y-51475138D01*
X94085682Y-51394495D01*
X94085680Y-51394494D01*
X93957500Y-51349641D01*
X93927070Y-51346788D01*
X93927066Y-51346788D01*
X92718534Y-51346788D01*
X92718530Y-51346788D01*
X92688100Y-51349641D01*
X92688098Y-51349641D01*
X92559919Y-51394494D01*
X92559917Y-51394495D01*
X92450650Y-51475138D01*
X92370007Y-51584405D01*
X92370006Y-51584407D01*
X92325153Y-51712586D01*
X92325153Y-51712588D01*
X92322300Y-51743018D01*
X68580608Y-51743018D01*
X68633130Y-51616220D01*
X68673500Y-51413265D01*
X68673500Y-51206335D01*
X68633130Y-51003380D01*
X68553941Y-50812202D01*
X68438977Y-50640145D01*
X68438975Y-50640142D01*
X68292657Y-50493824D01*
X68206626Y-50436341D01*
X68120598Y-50378859D01*
X68114340Y-50376267D01*
X67929420Y-50299670D01*
X67929412Y-50299668D01*
X67726469Y-50259300D01*
X67726465Y-50259300D01*
X67269535Y-50259300D01*
X67269530Y-50259300D01*
X67066587Y-50299668D01*
X67066579Y-50299670D01*
X66875403Y-50378858D01*
X66703342Y-50493824D01*
X66557024Y-50640142D01*
X66442058Y-50812203D01*
X66362870Y-51003379D01*
X66362868Y-51003387D01*
X66322500Y-51206330D01*
X64514300Y-51206330D01*
X64514300Y-48706330D01*
X66322500Y-48706330D01*
X66322500Y-48913269D01*
X66362868Y-49116212D01*
X66362870Y-49116220D01*
X66442058Y-49307396D01*
X66557024Y-49479457D01*
X66703342Y-49625775D01*
X66703345Y-49625777D01*
X66875402Y-49740741D01*
X67066580Y-49819930D01*
X67196181Y-49845709D01*
X67269530Y-49860299D01*
X67269534Y-49860300D01*
X67269535Y-49860300D01*
X67726466Y-49860300D01*
X67726467Y-49860299D01*
X67929420Y-49819930D01*
X68120598Y-49740741D01*
X68180431Y-49700762D01*
X84156796Y-49700762D01*
X84156796Y-49845712D01*
X84194312Y-49985722D01*
X84194313Y-49985725D01*
X84266784Y-50111248D01*
X84266789Y-50111254D01*
X84317424Y-50161889D01*
X84350909Y-50223212D01*
X84345925Y-50292904D01*
X84324627Y-50326051D01*
X84326040Y-50327135D01*
X84321095Y-50333578D01*
X84294953Y-50378858D01*
X84248616Y-50459115D01*
X84211100Y-50599125D01*
X84211100Y-50744075D01*
X84247843Y-50881199D01*
X84248617Y-50884088D01*
X84321088Y-51009611D01*
X84321090Y-51009613D01*
X84321091Y-51009615D01*
X84423585Y-51112109D01*
X84423586Y-51112110D01*
X84423588Y-51112111D01*
X84549111Y-51184582D01*
X84549112Y-51184582D01*
X84549115Y-51184584D01*
X84689125Y-51222100D01*
X84689128Y-51222100D01*
X84834072Y-51222100D01*
X84834075Y-51222100D01*
X84974085Y-51184584D01*
X85099615Y-51112109D01*
X85202109Y-51009615D01*
X85274584Y-50884085D01*
X85312100Y-50744075D01*
X85312100Y-50599125D01*
X85274584Y-50459115D01*
X85228247Y-50378858D01*
X85202111Y-50333588D01*
X85202106Y-50333582D01*
X85151471Y-50282947D01*
X85117986Y-50221624D01*
X85122970Y-50151932D01*
X85144278Y-50118794D01*
X85142856Y-50117703D01*
X85147802Y-50111256D01*
X85147803Y-50111253D01*
X85147805Y-50111252D01*
X85220280Y-49985722D01*
X85257796Y-49845712D01*
X85257796Y-49700762D01*
X85220280Y-49560752D01*
X85199595Y-49524925D01*
X85147807Y-49435225D01*
X85147802Y-49435219D01*
X85045313Y-49332730D01*
X85045307Y-49332725D01*
X84919784Y-49260254D01*
X84919785Y-49260254D01*
X84908302Y-49257177D01*
X84779771Y-49222737D01*
X84634821Y-49222737D01*
X84506289Y-49257177D01*
X84494807Y-49260254D01*
X84369284Y-49332725D01*
X84369278Y-49332730D01*
X84266789Y-49435219D01*
X84266784Y-49435225D01*
X84194313Y-49560748D01*
X84194312Y-49560752D01*
X84156796Y-49700762D01*
X68180431Y-49700762D01*
X68292655Y-49625777D01*
X68292658Y-49625774D01*
X68313479Y-49604954D01*
X68438974Y-49479458D01*
X68438975Y-49479457D01*
X68438977Y-49479455D01*
X68553941Y-49307398D01*
X68633130Y-49116220D01*
X68673500Y-48913265D01*
X68673500Y-48706335D01*
X68633130Y-48503380D01*
X68553941Y-48312202D01*
X68438977Y-48140145D01*
X68438975Y-48140142D01*
X68292657Y-47993824D01*
X68185870Y-47922472D01*
X68120598Y-47878859D01*
X67967180Y-47815311D01*
X67929420Y-47799670D01*
X67929412Y-47799668D01*
X67726469Y-47759300D01*
X67726465Y-47759300D01*
X67269535Y-47759300D01*
X67269530Y-47759300D01*
X67066587Y-47799668D01*
X67066579Y-47799670D01*
X66875403Y-47878858D01*
X66703342Y-47993824D01*
X66557024Y-48140142D01*
X66442058Y-48312203D01*
X66362870Y-48503379D01*
X66362868Y-48503387D01*
X66322500Y-48706330D01*
X64514300Y-48706330D01*
X64514300Y-46206330D01*
X66322500Y-46206330D01*
X66322500Y-46413269D01*
X66362868Y-46616212D01*
X66362870Y-46616220D01*
X66442058Y-46807396D01*
X66557024Y-46979457D01*
X66703342Y-47125775D01*
X66703345Y-47125777D01*
X66875402Y-47240741D01*
X67066580Y-47319930D01*
X67269530Y-47360299D01*
X67269534Y-47360300D01*
X67269535Y-47360300D01*
X67726466Y-47360300D01*
X67726467Y-47360299D01*
X67929420Y-47319930D01*
X68120598Y-47240741D01*
X68292655Y-47125777D01*
X68438977Y-46979455D01*
X68553941Y-46807398D01*
X68576132Y-46753825D01*
X82585500Y-46753825D01*
X82585500Y-46898775D01*
X82623016Y-47038785D01*
X82623017Y-47038788D01*
X82695488Y-47164311D01*
X82695490Y-47164313D01*
X82695491Y-47164315D01*
X82797985Y-47266809D01*
X82853352Y-47298775D01*
X82901567Y-47349343D01*
X82914789Y-47417950D01*
X82888821Y-47482814D01*
X82879034Y-47493841D01*
X82860894Y-47511981D01*
X82860888Y-47511988D01*
X82788417Y-47637511D01*
X82788416Y-47637515D01*
X82750900Y-47777525D01*
X82750900Y-47922475D01*
X82788416Y-48062485D01*
X82788417Y-48062488D01*
X82860888Y-48188011D01*
X82860890Y-48188013D01*
X82860891Y-48188015D01*
X82963385Y-48290509D01*
X82963386Y-48290510D01*
X82963388Y-48290511D01*
X83088911Y-48362982D01*
X83088912Y-48362982D01*
X83088915Y-48362984D01*
X83228925Y-48400500D01*
X83228928Y-48400500D01*
X83373872Y-48400500D01*
X83373875Y-48400500D01*
X83513885Y-48362984D01*
X83639415Y-48290509D01*
X83741909Y-48188015D01*
X83814384Y-48062485D01*
X83851900Y-47922475D01*
X83851900Y-47777525D01*
X83814384Y-47637515D01*
X83785388Y-47587293D01*
X83741911Y-47511988D01*
X83741906Y-47511982D01*
X83639417Y-47409493D01*
X83639415Y-47409491D01*
X83637517Y-47408395D01*
X83584047Y-47377523D01*
X83535832Y-47326956D01*
X83522610Y-47258349D01*
X83548578Y-47193484D01*
X83558361Y-47182462D01*
X83576509Y-47164315D01*
X83648984Y-47038785D01*
X83686500Y-46898775D01*
X83686500Y-46753825D01*
X83668145Y-46685325D01*
X115046700Y-46685325D01*
X115046700Y-46830275D01*
X115065054Y-46898772D01*
X115084217Y-46970288D01*
X115156688Y-47095811D01*
X115156690Y-47095813D01*
X115156691Y-47095815D01*
X115259185Y-47198309D01*
X115259186Y-47198310D01*
X115259188Y-47198311D01*
X115384711Y-47270782D01*
X115384712Y-47270782D01*
X115384715Y-47270784D01*
X115388586Y-47271821D01*
X115393081Y-47273026D01*
X115452741Y-47309391D01*
X115483269Y-47372239D01*
X115474974Y-47441614D01*
X115430488Y-47495491D01*
X115393081Y-47512574D01*
X115384716Y-47514815D01*
X115384711Y-47514817D01*
X115259188Y-47587288D01*
X115259182Y-47587293D01*
X115156693Y-47689782D01*
X115156688Y-47689788D01*
X115084217Y-47815311D01*
X115084216Y-47815315D01*
X115046700Y-47955325D01*
X115046700Y-48100275D01*
X115084216Y-48240285D01*
X115084217Y-48240288D01*
X115156688Y-48365811D01*
X115156690Y-48365813D01*
X115156691Y-48365815D01*
X115259185Y-48468309D01*
X115259186Y-48468310D01*
X115259188Y-48468311D01*
X115384711Y-48540782D01*
X115384712Y-48540782D01*
X115384715Y-48540784D01*
X115388586Y-48541821D01*
X115393081Y-48543026D01*
X115452741Y-48579391D01*
X115483269Y-48642239D01*
X115474974Y-48711614D01*
X115430488Y-48765491D01*
X115393081Y-48782574D01*
X115384716Y-48784815D01*
X115384711Y-48784817D01*
X115259188Y-48857288D01*
X115259182Y-48857293D01*
X115156693Y-48959782D01*
X115156688Y-48959788D01*
X115084217Y-49085311D01*
X115084216Y-49085315D01*
X115046700Y-49225325D01*
X115046700Y-49370275D01*
X115075955Y-49479455D01*
X115084217Y-49510288D01*
X115156688Y-49635811D01*
X115156690Y-49635813D01*
X115156691Y-49635815D01*
X115259185Y-49738309D01*
X115259186Y-49738310D01*
X115259188Y-49738311D01*
X115384711Y-49810782D01*
X115384712Y-49810782D01*
X115384715Y-49810784D01*
X115524725Y-49848300D01*
X115524728Y-49848300D01*
X115669672Y-49848300D01*
X115669675Y-49848300D01*
X115809685Y-49810784D01*
X115935215Y-49738309D01*
X115945745Y-49727779D01*
X146983000Y-49727779D01*
X146983000Y-49934620D01*
X147023348Y-50137466D01*
X147023350Y-50137474D01*
X147102500Y-50328559D01*
X147134377Y-50376267D01*
X147134378Y-50376267D01*
X147550037Y-49960608D01*
X147567075Y-50024193D01*
X147632901Y-50138207D01*
X147725993Y-50231299D01*
X147840007Y-50297125D01*
X147903590Y-50314162D01*
X147487931Y-50729820D01*
X147487932Y-50729821D01*
X147535633Y-50761695D01*
X147535639Y-50761698D01*
X147726725Y-50840849D01*
X147726733Y-50840851D01*
X147929579Y-50881199D01*
X147929583Y-50881200D01*
X148136417Y-50881200D01*
X148136420Y-50881199D01*
X148339266Y-50840851D01*
X148339274Y-50840849D01*
X148530366Y-50761695D01*
X148578066Y-50729821D01*
X148578067Y-50729820D01*
X148162409Y-50314162D01*
X148225993Y-50297125D01*
X148340007Y-50231299D01*
X148433099Y-50138207D01*
X148498925Y-50024193D01*
X148515962Y-49960609D01*
X148931620Y-50376267D01*
X148931621Y-50376266D01*
X148963495Y-50328566D01*
X149042649Y-50137474D01*
X149042651Y-50137466D01*
X149082999Y-49934620D01*
X149083000Y-49934617D01*
X149083000Y-49727783D01*
X149082999Y-49727779D01*
X149042651Y-49524933D01*
X149042649Y-49524925D01*
X148963498Y-49333839D01*
X148963495Y-49333833D01*
X148931621Y-49286132D01*
X148931620Y-49286131D01*
X148515962Y-49701790D01*
X148498925Y-49638207D01*
X148433099Y-49524193D01*
X148340007Y-49431101D01*
X148225993Y-49365275D01*
X148162409Y-49348237D01*
X148578067Y-48932578D01*
X148578067Y-48932577D01*
X148530359Y-48900700D01*
X148339274Y-48821550D01*
X148339266Y-48821548D01*
X148136420Y-48781200D01*
X147929579Y-48781200D01*
X147726733Y-48821548D01*
X147726725Y-48821550D01*
X147535641Y-48900700D01*
X147535631Y-48900705D01*
X147487932Y-48932577D01*
X147487932Y-48932578D01*
X147903591Y-49348237D01*
X147840007Y-49365275D01*
X147725993Y-49431101D01*
X147632901Y-49524193D01*
X147567075Y-49638207D01*
X147550037Y-49701791D01*
X147134378Y-49286132D01*
X147134377Y-49286132D01*
X147102505Y-49333831D01*
X147102500Y-49333841D01*
X147023350Y-49524925D01*
X147023348Y-49524933D01*
X146983000Y-49727779D01*
X115945745Y-49727779D01*
X116037709Y-49635815D01*
X116110184Y-49510285D01*
X116147700Y-49370275D01*
X116147700Y-49225325D01*
X116110184Y-49085315D01*
X116037709Y-48959785D01*
X115935215Y-48857291D01*
X115935213Y-48857290D01*
X115935211Y-48857288D01*
X115809687Y-48784817D01*
X115809686Y-48784816D01*
X115809685Y-48784816D01*
X115801318Y-48782574D01*
X115741659Y-48746210D01*
X115711130Y-48683363D01*
X115719425Y-48613988D01*
X115763910Y-48560110D01*
X115801317Y-48543026D01*
X115809685Y-48540784D01*
X115935215Y-48468309D01*
X116037709Y-48365815D01*
X116110184Y-48240285D01*
X116147700Y-48100275D01*
X116147700Y-47955325D01*
X116110184Y-47815315D01*
X116101151Y-47799670D01*
X116037711Y-47689788D01*
X116037706Y-47689782D01*
X115935217Y-47587293D01*
X115935211Y-47587288D01*
X115809687Y-47514817D01*
X115809686Y-47514816D01*
X115809685Y-47514816D01*
X115801318Y-47512574D01*
X115741659Y-47476210D01*
X115711130Y-47413363D01*
X115719425Y-47343988D01*
X115763910Y-47290110D01*
X115801317Y-47273026D01*
X115809685Y-47270784D01*
X115935215Y-47198309D01*
X115945794Y-47187730D01*
X146982500Y-47187730D01*
X146982500Y-47394669D01*
X147022868Y-47597612D01*
X147022870Y-47597620D01*
X147097389Y-47777525D01*
X147102059Y-47788798D01*
X147119777Y-47815315D01*
X147217024Y-47960857D01*
X147363342Y-48107175D01*
X147363345Y-48107177D01*
X147535402Y-48222141D01*
X147726580Y-48301330D01*
X147929530Y-48341699D01*
X147929534Y-48341700D01*
X147929535Y-48341700D01*
X148136466Y-48341700D01*
X148136467Y-48341699D01*
X148339420Y-48301330D01*
X148530598Y-48222141D01*
X148702655Y-48107177D01*
X148848977Y-47960855D01*
X148963941Y-47788798D01*
X149043130Y-47597620D01*
X149083500Y-47394665D01*
X149083500Y-47187735D01*
X149043130Y-46984780D01*
X148963941Y-46793602D01*
X148848977Y-46621545D01*
X148848975Y-46621542D01*
X148702657Y-46475224D01*
X148609928Y-46413265D01*
X148530598Y-46360259D01*
X148426857Y-46317288D01*
X148339420Y-46281070D01*
X148339412Y-46281068D01*
X148136469Y-46240700D01*
X148136465Y-46240700D01*
X147929535Y-46240700D01*
X147929530Y-46240700D01*
X147726587Y-46281068D01*
X147726579Y-46281070D01*
X147535403Y-46360258D01*
X147363342Y-46475224D01*
X147217024Y-46621542D01*
X147102058Y-46793603D01*
X147022870Y-46984779D01*
X147022868Y-46984787D01*
X146982500Y-47187730D01*
X115945794Y-47187730D01*
X116037709Y-47095815D01*
X116110184Y-46970285D01*
X116147700Y-46830275D01*
X116147700Y-46685325D01*
X116110184Y-46545315D01*
X116077259Y-46488288D01*
X116037711Y-46419788D01*
X116037706Y-46419782D01*
X115935217Y-46317293D01*
X115935211Y-46317288D01*
X115809688Y-46244817D01*
X115809689Y-46244817D01*
X115794324Y-46240700D01*
X115669675Y-46207300D01*
X115524725Y-46207300D01*
X115400076Y-46240700D01*
X115384711Y-46244817D01*
X115259188Y-46317288D01*
X115259182Y-46317293D01*
X115156693Y-46419782D01*
X115156688Y-46419788D01*
X115084217Y-46545311D01*
X115084216Y-46545315D01*
X115046700Y-46685325D01*
X83668145Y-46685325D01*
X83648984Y-46613815D01*
X83609435Y-46545315D01*
X83576511Y-46488288D01*
X83576506Y-46488282D01*
X83474017Y-46385793D01*
X83474011Y-46385788D01*
X83348488Y-46313317D01*
X83348489Y-46313317D01*
X83337006Y-46310240D01*
X83208475Y-46275800D01*
X83063525Y-46275800D01*
X82934993Y-46310240D01*
X82923511Y-46313317D01*
X82797988Y-46385788D01*
X82797982Y-46385793D01*
X82695493Y-46488282D01*
X82695488Y-46488288D01*
X82623017Y-46613811D01*
X82620945Y-46621545D01*
X82585500Y-46753825D01*
X68576132Y-46753825D01*
X68594579Y-46709291D01*
X68599154Y-46698245D01*
X68604506Y-46685325D01*
X68633130Y-46616220D01*
X68673500Y-46413265D01*
X68673500Y-46206335D01*
X68633130Y-46003380D01*
X68553941Y-45812202D01*
X68438977Y-45640145D01*
X68438975Y-45640142D01*
X68292657Y-45493824D01*
X68120596Y-45378857D01*
X68027169Y-45340159D01*
X67929420Y-45299670D01*
X67929412Y-45299668D01*
X67726469Y-45259300D01*
X67726465Y-45259300D01*
X67269535Y-45259300D01*
X67269530Y-45259300D01*
X67066587Y-45299668D01*
X67066579Y-45299670D01*
X66875403Y-45378858D01*
X66703342Y-45493824D01*
X66557024Y-45640142D01*
X66442058Y-45812203D01*
X66362870Y-46003379D01*
X66362868Y-46003387D01*
X66322500Y-46206330D01*
X64514300Y-46206330D01*
X64514300Y-45233725D01*
X73572300Y-45233725D01*
X73572300Y-45378675D01*
X73609816Y-45518685D01*
X73609817Y-45518688D01*
X73682288Y-45644211D01*
X73682290Y-45644213D01*
X73682291Y-45644215D01*
X73784785Y-45746709D01*
X73784786Y-45746710D01*
X73784788Y-45746711D01*
X73910311Y-45819182D01*
X73910312Y-45819182D01*
X73910315Y-45819184D01*
X74050325Y-45856700D01*
X74050328Y-45856700D01*
X74195272Y-45856700D01*
X74195275Y-45856700D01*
X74335285Y-45819184D01*
X74460815Y-45746709D01*
X74563309Y-45644215D01*
X74635784Y-45518685D01*
X74673300Y-45378675D01*
X74673300Y-45233725D01*
X74635784Y-45093715D01*
X74614944Y-45057620D01*
X74563311Y-44968188D01*
X74563306Y-44968182D01*
X74460817Y-44865693D01*
X74460811Y-44865688D01*
X74335288Y-44793217D01*
X74335289Y-44793217D01*
X74323806Y-44790140D01*
X74195275Y-44755700D01*
X74050325Y-44755700D01*
X73921793Y-44790140D01*
X73910311Y-44793217D01*
X73784788Y-44865688D01*
X73784782Y-44865693D01*
X73682293Y-44968182D01*
X73682288Y-44968188D01*
X73609817Y-45093711D01*
X73609816Y-45093715D01*
X73572300Y-45233725D01*
X64514300Y-45233725D01*
X64514300Y-41605325D01*
X115046700Y-41605325D01*
X115046700Y-41750275D01*
X115084216Y-41890285D01*
X115084217Y-41890288D01*
X115156688Y-42015811D01*
X115156690Y-42015813D01*
X115156691Y-42015815D01*
X115259185Y-42118309D01*
X115259186Y-42118310D01*
X115259188Y-42118311D01*
X115384711Y-42190782D01*
X115384712Y-42190782D01*
X115384715Y-42190784D01*
X115388586Y-42191821D01*
X115393081Y-42193026D01*
X115452741Y-42229391D01*
X115483269Y-42292239D01*
X115474974Y-42361614D01*
X115430488Y-42415491D01*
X115393081Y-42432574D01*
X115384716Y-42434815D01*
X115384711Y-42434817D01*
X115259188Y-42507288D01*
X115259182Y-42507293D01*
X115156693Y-42609782D01*
X115156688Y-42609788D01*
X115084217Y-42735311D01*
X115084216Y-42735315D01*
X115046700Y-42875325D01*
X115046700Y-43020275D01*
X115062959Y-43080952D01*
X115084217Y-43160288D01*
X115156688Y-43285811D01*
X115156690Y-43285813D01*
X115156691Y-43285815D01*
X115259185Y-43388309D01*
X115259186Y-43388310D01*
X115259188Y-43388311D01*
X115384711Y-43460782D01*
X115384712Y-43460782D01*
X115384715Y-43460784D01*
X115388586Y-43461821D01*
X115393081Y-43463026D01*
X115452741Y-43499391D01*
X115483269Y-43562239D01*
X115474974Y-43631614D01*
X115430488Y-43685491D01*
X115393081Y-43702574D01*
X115384716Y-43704815D01*
X115384711Y-43704817D01*
X115259188Y-43777288D01*
X115259182Y-43777293D01*
X115156693Y-43879782D01*
X115156688Y-43879788D01*
X115084217Y-44005311D01*
X115084216Y-44005315D01*
X115046700Y-44145325D01*
X115046700Y-44290275D01*
X115084216Y-44430285D01*
X115084217Y-44430288D01*
X115156688Y-44555811D01*
X115156690Y-44555813D01*
X115156691Y-44555815D01*
X115259185Y-44658309D01*
X115259186Y-44658310D01*
X115259188Y-44658311D01*
X115384711Y-44730782D01*
X115384712Y-44730782D01*
X115384715Y-44730784D01*
X115524725Y-44768300D01*
X115524728Y-44768300D01*
X115669672Y-44768300D01*
X115669675Y-44768300D01*
X115809685Y-44730784D01*
X115935215Y-44658309D01*
X115945794Y-44647730D01*
X146982500Y-44647730D01*
X146982500Y-44854669D01*
X147022868Y-45057612D01*
X147022870Y-45057620D01*
X147102058Y-45248796D01*
X147217024Y-45420857D01*
X147363342Y-45567175D01*
X147363345Y-45567177D01*
X147535402Y-45682141D01*
X147726580Y-45761330D01*
X147929530Y-45801699D01*
X147929534Y-45801700D01*
X147929535Y-45801700D01*
X148136466Y-45801700D01*
X148136467Y-45801699D01*
X148339420Y-45761330D01*
X148530598Y-45682141D01*
X148702655Y-45567177D01*
X148848977Y-45420855D01*
X148963941Y-45248798D01*
X149043130Y-45057620D01*
X149083500Y-44854665D01*
X149083500Y-44647735D01*
X149043130Y-44444780D01*
X148963941Y-44253602D01*
X148848977Y-44081545D01*
X148848975Y-44081542D01*
X148702657Y-43935224D01*
X148616626Y-43877741D01*
X148530598Y-43820259D01*
X148426857Y-43777288D01*
X148339420Y-43741070D01*
X148339412Y-43741068D01*
X148136469Y-43700700D01*
X148136465Y-43700700D01*
X147929535Y-43700700D01*
X147929530Y-43700700D01*
X147726587Y-43741068D01*
X147726579Y-43741070D01*
X147535403Y-43820258D01*
X147363342Y-43935224D01*
X147217024Y-44081542D01*
X147102058Y-44253603D01*
X147022870Y-44444779D01*
X147022868Y-44444787D01*
X146982500Y-44647730D01*
X115945794Y-44647730D01*
X116037709Y-44555815D01*
X116110184Y-44430285D01*
X116147700Y-44290275D01*
X116147700Y-44145325D01*
X116110184Y-44005315D01*
X116069716Y-43935223D01*
X116037711Y-43879788D01*
X116037706Y-43879782D01*
X115935217Y-43777293D01*
X115935211Y-43777288D01*
X115809687Y-43704817D01*
X115809686Y-43704816D01*
X115809685Y-43704816D01*
X115801318Y-43702574D01*
X115741659Y-43666210D01*
X115711130Y-43603363D01*
X115719425Y-43533988D01*
X115763910Y-43480110D01*
X115801317Y-43463026D01*
X115809685Y-43460784D01*
X115935215Y-43388309D01*
X116037709Y-43285815D01*
X116110184Y-43160285D01*
X116147700Y-43020275D01*
X116147700Y-42875325D01*
X116110184Y-42735315D01*
X116037709Y-42609785D01*
X115935215Y-42507291D01*
X115935213Y-42507290D01*
X115935211Y-42507288D01*
X115809687Y-42434817D01*
X115809686Y-42434816D01*
X115809685Y-42434816D01*
X115801318Y-42432574D01*
X115741659Y-42396210D01*
X115711130Y-42333363D01*
X115719425Y-42263988D01*
X115763910Y-42210110D01*
X115801317Y-42193026D01*
X115809685Y-42190784D01*
X115935215Y-42118309D01*
X116037709Y-42015815D01*
X116110184Y-41890285D01*
X116147700Y-41750275D01*
X116147700Y-41605325D01*
X116110184Y-41465315D01*
X116038669Y-41341447D01*
X146982500Y-41341447D01*
X146982500Y-43080952D01*
X146994131Y-43139429D01*
X146994132Y-43139430D01*
X147038447Y-43205752D01*
X147104769Y-43250067D01*
X147104770Y-43250068D01*
X147163247Y-43261699D01*
X147163250Y-43261700D01*
X147163252Y-43261700D01*
X148902750Y-43261700D01*
X148902751Y-43261699D01*
X148917568Y-43258752D01*
X148961229Y-43250068D01*
X148961229Y-43250067D01*
X148961231Y-43250067D01*
X149027552Y-43205752D01*
X149071867Y-43139431D01*
X149071867Y-43139429D01*
X149071868Y-43139429D01*
X149083499Y-43080952D01*
X149083500Y-43080950D01*
X149083500Y-41341449D01*
X149083499Y-41341447D01*
X149071868Y-41282970D01*
X149071867Y-41282969D01*
X149027552Y-41216647D01*
X148961230Y-41172332D01*
X148961229Y-41172331D01*
X148902752Y-41160700D01*
X148902748Y-41160700D01*
X147163252Y-41160700D01*
X147163247Y-41160700D01*
X147104770Y-41172331D01*
X147104769Y-41172332D01*
X147038447Y-41216647D01*
X146994132Y-41282969D01*
X146994131Y-41282970D01*
X146982500Y-41341447D01*
X116038669Y-41341447D01*
X116037709Y-41339785D01*
X115935215Y-41237291D01*
X115935213Y-41237290D01*
X115935211Y-41237288D01*
X115809688Y-41164817D01*
X115809689Y-41164817D01*
X115794324Y-41160700D01*
X115669675Y-41127300D01*
X115524725Y-41127300D01*
X115400076Y-41160700D01*
X115384711Y-41164817D01*
X115259188Y-41237288D01*
X115259182Y-41237293D01*
X115156693Y-41339782D01*
X115156688Y-41339788D01*
X115084217Y-41465311D01*
X115084216Y-41465315D01*
X115046700Y-41605325D01*
X64514300Y-41605325D01*
X64514300Y-39065325D01*
X115046700Y-39065325D01*
X115046700Y-39210275D01*
X115084216Y-39350285D01*
X115084217Y-39350288D01*
X115156688Y-39475811D01*
X115156690Y-39475813D01*
X115156691Y-39475815D01*
X115259185Y-39578309D01*
X115259186Y-39578310D01*
X115259188Y-39578311D01*
X115384711Y-39650782D01*
X115384712Y-39650782D01*
X115384715Y-39650784D01*
X115524725Y-39688300D01*
X115524728Y-39688300D01*
X115669672Y-39688300D01*
X115669675Y-39688300D01*
X115809685Y-39650784D01*
X115935215Y-39578309D01*
X116037709Y-39475815D01*
X116110184Y-39350285D01*
X116147700Y-39210275D01*
X116147700Y-39065325D01*
X116110184Y-38925315D01*
X116037709Y-38799785D01*
X115935215Y-38697291D01*
X115935213Y-38697290D01*
X115935211Y-38697288D01*
X115809688Y-38624817D01*
X115809689Y-38624817D01*
X115798206Y-38621740D01*
X115669675Y-38587300D01*
X115524725Y-38587300D01*
X115396193Y-38621740D01*
X115384711Y-38624817D01*
X115259188Y-38697288D01*
X115259182Y-38697293D01*
X115156693Y-38799782D01*
X115156688Y-38799788D01*
X115084217Y-38925311D01*
X115084216Y-38925315D01*
X115046700Y-39065325D01*
X64514300Y-39065325D01*
X64514300Y-38277925D01*
X139227500Y-38277925D01*
X139227500Y-38422875D01*
X139265016Y-38562885D01*
X139265017Y-38562888D01*
X139337488Y-38688411D01*
X139337490Y-38688413D01*
X139337491Y-38688415D01*
X139439985Y-38790909D01*
X139439986Y-38790910D01*
X139439988Y-38790911D01*
X139565511Y-38863382D01*
X139565512Y-38863382D01*
X139565515Y-38863384D01*
X139705525Y-38900900D01*
X139705528Y-38900900D01*
X139850472Y-38900900D01*
X139850475Y-38900900D01*
X139990485Y-38863384D01*
X140116015Y-38790909D01*
X140218509Y-38688415D01*
X140290984Y-38562885D01*
X140328500Y-38422875D01*
X140328500Y-38277925D01*
X140290984Y-38137915D01*
X140218509Y-38012385D01*
X140116015Y-37909891D01*
X140116013Y-37909890D01*
X140116011Y-37909888D01*
X139990488Y-37837417D01*
X139990489Y-37837417D01*
X139979006Y-37834340D01*
X139850475Y-37799900D01*
X139705525Y-37799900D01*
X139576993Y-37834340D01*
X139565511Y-37837417D01*
X139439988Y-37909888D01*
X139439982Y-37909893D01*
X139337493Y-38012382D01*
X139337488Y-38012388D01*
X139265017Y-38137911D01*
X139265016Y-38137915D01*
X139227500Y-38277925D01*
X64514300Y-38277925D01*
X64514300Y-34279900D01*
X64533985Y-34212861D01*
X64586789Y-34167106D01*
X64638300Y-34155900D01*
X149944500Y-34155900D01*
X150011539Y-34175585D01*
G37*
%TD.AperFunction*%
%TD*%
M02*
