%TF.GenerationSoftware,KiCad,Pcbnew,10.0.6-1.fc44*%
%TF.CreationDate,2026-09-11T21:13:22+02:00*%
%TF.ProjectId,Orion,4f72696f-6e2e-46b6-9963-61645f706362,rev?*%
%TF.SameCoordinates,Original*%
%TF.FileFunction,Soldermask,Top*%
%TF.FilePolarity,Negative*%
%FSLAX46Y46*%
G04 Gerber Fmt 4.6, Leading zero omitted, Abs format (unit mm)*
G04 Created by KiCad (PCBNEW 10.0.6-1.fc44) date 2026-09-11 21:13:22*
%MOMM*%
%LPD*%
G01*
G04 APERTURE LIST*
G04 Aperture macros list*
%AMRoundRect*
0 Rectangle with rounded corners*
0 $1 Rounding radius*
0 $2 $3 $4 $5 $6 $7 $8 $9 X,Y pos of 4 corners*
0 Add a 4 corners polygon primitive as box body*
4,1,4,$2,$3,$4,$5,$6,$7,$8,$9,$2,$3,0*
0 Add four circle primitives for the rounded corners*
1,1,$1+$1,$2,$3*
1,1,$1+$1,$4,$5*
1,1,$1+$1,$6,$7*
1,1,$1+$1,$8,$9*
0 Add four rect primitives between the rounded corners*
20,1,$1+$1,$2,$3,$4,$5,0*
20,1,$1+$1,$4,$5,$6,$7,0*
20,1,$1+$1,$6,$7,$8,$9,0*
20,1,$1+$1,$8,$9,$2,$3,0*%
G04 Aperture macros list end*
%ADD10C,0.010000*%
%ADD11RoundRect,0.287500X0.237500X-0.300000X0.237500X0.300000X-0.237500X0.300000X-0.237500X-0.300000X0*%
%ADD12RoundRect,0.287500X0.250000X0.237500X-0.250000X0.237500X-0.250000X-0.237500X0.250000X-0.237500X0*%
%ADD13RoundRect,0.287500X-0.237500X0.300000X-0.237500X-0.300000X0.237500X-0.300000X0.237500X0.300000X0*%
%ADD14RoundRect,0.212500X-0.617500X-0.162500X0.617500X-0.162500X0.617500X0.162500X-0.617500X0.162500X0*%
%ADD15RoundRect,0.287500X0.287500X0.237500X-0.287500X0.237500X-0.287500X-0.237500X0.287500X-0.237500X0*%
%ADD16RoundRect,0.300000X-0.525000X-0.250000X0.525000X-0.250000X0.525000X0.250000X-0.525000X0.250000X0*%
%ADD17RoundRect,0.300000X0.725000X-0.600000X0.725000X0.600000X-0.725000X0.600000X-0.725000X-0.600000X0*%
%ADD18O,2.050000X1.800000*%
%ADD19RoundRect,0.287500X-0.237500X0.250000X-0.237500X-0.250000X0.237500X-0.250000X0.237500X0.250000X0*%
%ADD20C,0.750000*%
%ADD21RoundRect,0.060000X-0.300000X-0.575000X0.300000X-0.575000X0.300000X0.575000X-0.300000X0.575000X0*%
%ADD22RoundRect,0.060000X-0.150000X-0.575000X0.150000X-0.575000X0.150000X0.575000X-0.150000X0.575000X0*%
%ADD23O,1.204000X2.304000*%
%ADD24O,1.204000X2.004000*%
%ADD25RoundRect,0.300000X-0.550000X0.550000X-0.550000X-0.550000X0.550000X-0.550000X0.550000X0.550000X0*%
%ADD26C,1.700000*%
%ADD27RoundRect,0.050000X-0.850000X-0.850000X0.850000X-0.850000X0.850000X0.850000X-0.850000X0.850000X0*%
%ADD28C,1.800000*%
%ADD29C,5.700000*%
%ADD30RoundRect,0.287500X-0.250000X-0.237500X0.250000X-0.237500X0.250000X0.237500X-0.250000X0.237500X0*%
%ADD31RoundRect,0.287500X-0.300000X-0.237500X0.300000X-0.237500X0.300000X0.237500X-0.300000X0.237500X0*%
%ADD32RoundRect,0.287500X0.237500X-0.250000X0.237500X0.250000X-0.237500X0.250000X-0.237500X-0.250000X0*%
%ADD33C,1.600000*%
%ADD34RoundRect,0.175000X0.125000X-0.537500X0.125000X0.537500X-0.125000X0.537500X-0.125000X-0.537500X0*%
%ADD35RoundRect,0.287500X0.300000X0.237500X-0.300000X0.237500X-0.300000X-0.237500X0.300000X-0.237500X0*%
%ADD36RoundRect,0.300000X-0.600000X-0.750000X0.600000X-0.750000X0.600000X0.750000X-0.600000X0.750000X0*%
%ADD37O,1.800000X2.100000*%
%ADD38RoundRect,0.102000X0.525000X-1.605000X0.525000X1.605000X-0.525000X1.605000X-0.525000X-1.605000X0*%
%ADD39RoundRect,0.102000X5.265000X-4.230000X5.265000X4.230000X-5.265000X4.230000X-5.265000X-4.230000X0*%
%ADD40RoundRect,0.112500X-0.062500X0.337500X-0.062500X-0.337500X0.062500X-0.337500X0.062500X0.337500X0*%
%ADD41RoundRect,0.112500X-0.337500X0.062500X-0.337500X-0.062500X0.337500X-0.062500X0.337500X0.062500X0*%
%ADD42RoundRect,0.050000X-1.850000X1.850000X-1.850000X-1.850000X1.850000X-1.850000X1.850000X1.850000X0*%
%ADD43RoundRect,0.102000X1.900000X0.600000X-1.900000X0.600000X-1.900000X-0.600000X1.900000X-0.600000X0*%
%ADD44RoundRect,0.300000X2.500000X-1.375000X2.500000X1.375000X-2.500000X1.375000X-2.500000X-1.375000X0*%
%ADD45RoundRect,0.300000X-0.650000X0.412500X-0.650000X-0.412500X0.650000X-0.412500X0.650000X0.412500X0*%
%ADD46RoundRect,0.287500X0.237500X-0.287500X0.237500X0.287500X-0.237500X0.287500X-0.237500X-0.287500X0*%
%ADD47RoundRect,0.287500X-0.287500X-0.237500X0.287500X-0.237500X0.287500X0.237500X-0.287500X0.237500X0*%
%ADD48RoundRect,0.300000X-0.650000X1.500000X-0.650000X-1.500000X0.650000X-1.500000X0.650000X1.500000X0*%
%ADD49RoundRect,0.212500X0.617500X0.162500X-0.617500X0.162500X-0.617500X-0.162500X0.617500X-0.162500X0*%
%ADD50RoundRect,0.050000X-0.750000X-0.450000X0.750000X-0.450000X0.750000X0.450000X-0.750000X0.450000X0*%
%ADD51RoundRect,0.050000X0.750000X0.450000X-0.750000X0.450000X-0.750000X-0.450000X0.750000X-0.450000X0*%
%ADD52RoundRect,0.050000X-0.450000X0.750000X-0.450000X-0.750000X0.450000X-0.750000X0.450000X0.750000X0*%
%ADD53RoundRect,0.050000X-1.950000X1.950000X-1.950000X-1.950000X1.950000X-1.950000X1.950000X1.950000X0*%
G04 APERTURE END LIST*
D10*
%TO.C,U3*%
X125230400Y-88662800D02*
X126380400Y-88662800D01*
X126380400Y-89162800D01*
X125230400Y-89162800D01*
X125230400Y-88662800D01*
G36*
X126380400Y-89162800D02*
G01*
X125230400Y-89162800D01*
X125230400Y-88662800D01*
X126380400Y-88662800D01*
X126380400Y-89162800D01*
G37*
X125230400Y-89362800D02*
X126380400Y-89362800D01*
X126380400Y-89862800D01*
X125230400Y-89862800D01*
X125230400Y-89362800D01*
G36*
X126380400Y-89862800D02*
G01*
X125230400Y-89862800D01*
X125230400Y-89362800D01*
X126380400Y-89362800D01*
X126380400Y-89862800D01*
G37*
X125580400Y-87762800D02*
X125880400Y-87762800D01*
X125880400Y-88462800D01*
X125580400Y-88462800D01*
X125580400Y-87762800D01*
G36*
X125880400Y-88462800D02*
G01*
X125580400Y-88462800D01*
X125580400Y-87762800D01*
X125880400Y-87762800D01*
X125880400Y-88462800D01*
G37*
X125580400Y-90062800D02*
X125880400Y-90062800D01*
X125880400Y-90762800D01*
X125580400Y-90762800D01*
X125580400Y-90062800D01*
G36*
X125880400Y-90762800D02*
G01*
X125580400Y-90762800D01*
X125580400Y-90062800D01*
X125880400Y-90062800D01*
X125880400Y-90762800D01*
G37*
X126080400Y-87762800D02*
X126380400Y-87762800D01*
X126380400Y-88462800D01*
X126080400Y-88462800D01*
X126080400Y-87762800D01*
G36*
X126380400Y-88462800D02*
G01*
X126080400Y-88462800D01*
X126080400Y-87762800D01*
X126380400Y-87762800D01*
X126380400Y-88462800D01*
G37*
X126080400Y-90062800D02*
X126380400Y-90062800D01*
X126380400Y-90762800D01*
X126080400Y-90762800D01*
X126080400Y-90062800D01*
G36*
X126380400Y-90762800D02*
G01*
X126080400Y-90762800D01*
X126080400Y-90062800D01*
X126380400Y-90062800D01*
X126380400Y-90762800D01*
G37*
X126580400Y-87762800D02*
X126880400Y-87762800D01*
X126880400Y-88462800D01*
X126580400Y-88462800D01*
X126580400Y-87762800D01*
G36*
X126880400Y-88462800D02*
G01*
X126580400Y-88462800D01*
X126580400Y-87762800D01*
X126880400Y-87762800D01*
X126880400Y-88462800D01*
G37*
X126580400Y-88662800D02*
X127730400Y-88662800D01*
X127730400Y-89162800D01*
X126580400Y-89162800D01*
X126580400Y-88662800D01*
G36*
X127730400Y-89162800D02*
G01*
X126580400Y-89162800D01*
X126580400Y-88662800D01*
X127730400Y-88662800D01*
X127730400Y-89162800D01*
G37*
X126580400Y-89362800D02*
X127730400Y-89362800D01*
X127730400Y-89862800D01*
X126580400Y-89862800D01*
X126580400Y-89362800D01*
G36*
X127730400Y-89862800D02*
G01*
X126580400Y-89862800D01*
X126580400Y-89362800D01*
X127730400Y-89362800D01*
X127730400Y-89862800D01*
G37*
X126580400Y-90062800D02*
X126880400Y-90062800D01*
X126880400Y-90762800D01*
X126580400Y-90762800D01*
X126580400Y-90062800D01*
G36*
X126880400Y-90762800D02*
G01*
X126580400Y-90762800D01*
X126580400Y-90062800D01*
X126880400Y-90062800D01*
X126880400Y-90762800D01*
G37*
X127080400Y-87762800D02*
X127380400Y-87762800D01*
X127380400Y-88462800D01*
X127080400Y-88462800D01*
X127080400Y-87762800D01*
G36*
X127380400Y-88462800D02*
G01*
X127080400Y-88462800D01*
X127080400Y-87762800D01*
X127380400Y-87762800D01*
X127380400Y-88462800D01*
G37*
X127080400Y-90062800D02*
X127380400Y-90062800D01*
X127380400Y-90762800D01*
X127080400Y-90762800D01*
X127080400Y-90062800D01*
G36*
X127380400Y-90762800D02*
G01*
X127080400Y-90762800D01*
X127080400Y-90062800D01*
X127380400Y-90062800D01*
X127380400Y-90762800D01*
G37*
%TD*%
D11*
%TO.C,C4*%
X110583600Y-36808200D03*
X110583600Y-35083200D03*
%TD*%
D12*
%TO.C,R30*%
X88215500Y-50737000D03*
X86390500Y-50737000D03*
%TD*%
D13*
%TO.C,C29*%
X84506200Y-73604500D03*
X84506200Y-75329500D03*
%TD*%
D14*
%TO.C,U2*%
X116085625Y-82073400D03*
X116085625Y-83023400D03*
X116085625Y-83973400D03*
X118785625Y-83973400D03*
X118785625Y-83023400D03*
X118785625Y-82073400D03*
%TD*%
D15*
%TO.C,D1*%
X139041400Y-36648600D03*
X137291400Y-36648600D03*
%TD*%
D16*
%TO.C,SW2*%
X143671000Y-35388200D03*
X148921000Y-35388200D03*
X143671000Y-38588200D03*
X148921000Y-38588200D03*
%TD*%
D17*
%TO.C,J3*%
X67498000Y-53809800D03*
D18*
X67498000Y-51309800D03*
X67498000Y-48809800D03*
X67498000Y-46309800D03*
%TD*%
D19*
%TO.C,R8*%
X120828500Y-83843700D03*
X120828500Y-85668700D03*
%TD*%
D20*
%TO.C,J2*%
X130157000Y-100024600D03*
X135937000Y-100024600D03*
D21*
X129847000Y-98949600D03*
X130647000Y-98949600D03*
D22*
X131797000Y-98949600D03*
X132797000Y-98949600D03*
X133297000Y-98949600D03*
X134297000Y-98949600D03*
D21*
X136247000Y-98949600D03*
X135447000Y-98949600D03*
D22*
X134797000Y-98949600D03*
X133797000Y-98949600D03*
X132297000Y-98949600D03*
X131297000Y-98949600D03*
D23*
X128727000Y-99524600D03*
X137367000Y-99524600D03*
D24*
X128727000Y-103704600D03*
X137367000Y-103704600D03*
%TD*%
D13*
%TO.C,C24*%
X88217400Y-52464200D03*
X88217400Y-54189200D03*
%TD*%
D25*
%TO.C,C17*%
X93245200Y-80450188D03*
D26*
X93245200Y-82450188D03*
%TD*%
D27*
%TO.C,J1*%
X148033000Y-42211200D03*
D28*
X148033000Y-44751200D03*
X148033000Y-47291200D03*
X148033000Y-49831200D03*
%TD*%
D11*
%TO.C,C14*%
X125655600Y-86486100D03*
X125655600Y-84761100D03*
%TD*%
D29*
%TO.C,H2*%
X68826000Y-38690000D03*
%TD*%
D30*
%TO.C,R1*%
X133707400Y-36648600D03*
X135532400Y-36648600D03*
%TD*%
D31*
%TO.C,C27*%
X75008800Y-80613800D03*
X76733800Y-80613800D03*
%TD*%
%TO.C,C31*%
X79706700Y-59336600D03*
X81431700Y-59336600D03*
%TD*%
D12*
%TO.C,R16*%
X79828800Y-68252000D03*
X78003800Y-68252000D03*
%TD*%
D32*
%TO.C,R36*%
X122048800Y-57093700D03*
X122048800Y-55268700D03*
%TD*%
D31*
%TO.C,C32*%
X79655900Y-73400200D03*
X81380900Y-73400200D03*
%TD*%
%TO.C,C11*%
X116078700Y-87372400D03*
X117803700Y-87372400D03*
%TD*%
D32*
%TO.C,R13*%
X84939400Y-102792100D03*
X84939400Y-100967100D03*
%TD*%
D13*
%TO.C,C19*%
X86361800Y-66504600D03*
X86361800Y-68229600D03*
%TD*%
D12*
%TO.C,R34*%
X135737500Y-40560200D03*
X133912500Y-40560200D03*
%TD*%
D19*
%TO.C,R3*%
X130634000Y-84711100D03*
X130634000Y-86536100D03*
%TD*%
D31*
%TO.C,C33*%
X79733500Y-45297300D03*
X81458500Y-45297300D03*
%TD*%
D12*
%TO.C,R27*%
X76759200Y-78150000D03*
X74934200Y-78150000D03*
%TD*%
D33*
%TO.C,TP5*%
X104929200Y-74012000D03*
%TD*%
D31*
%TO.C,C12*%
X116080900Y-85797600D03*
X117805900Y-85797600D03*
%TD*%
D32*
%TO.C,R23*%
X82956800Y-73396400D03*
X82956800Y-71571400D03*
%TD*%
D13*
%TO.C,C15*%
X117068500Y-93064200D03*
X117068500Y-94789200D03*
%TD*%
%TO.C,C26*%
X84557000Y-59540900D03*
X84557000Y-61265900D03*
%TD*%
D34*
%TO.C,U4*%
X113416700Y-94778200D03*
X114066700Y-94778200D03*
X114716700Y-94778200D03*
X115366700Y-94778200D03*
X115366700Y-92503200D03*
X114716700Y-92503200D03*
X114066700Y-92503200D03*
X113416700Y-92503200D03*
%TD*%
D19*
%TO.C,R7*%
X124157000Y-90019700D03*
X124157000Y-91844700D03*
%TD*%
D33*
%TO.C,TP2*%
X113057200Y-73935800D03*
%TD*%
D35*
%TO.C,C10*%
X119050500Y-80336600D03*
X117325500Y-80336600D03*
%TD*%
D36*
%TO.C,BT1*%
X114700900Y-101071400D03*
D37*
X117200900Y-101071400D03*
%TD*%
D25*
%TO.C,C18*%
X93322800Y-52347288D03*
D26*
X93322800Y-54347288D03*
%TD*%
D12*
%TO.C,R17*%
X79778000Y-82315600D03*
X77953000Y-82315600D03*
%TD*%
D32*
%TO.C,R15*%
X139193800Y-100680100D03*
X139193800Y-98855100D03*
%TD*%
D11*
%TO.C,C6*%
X101678000Y-36825300D03*
X101678000Y-35100300D03*
%TD*%
D13*
%TO.C,C8*%
X96775800Y-36876500D03*
X96775800Y-38601500D03*
%TD*%
%TO.C,C9*%
X141014800Y-36651500D03*
X141014800Y-38376500D03*
%TD*%
D38*
%TO.C,VR1*%
X88065400Y-101909800D03*
X89765400Y-101909800D03*
X91465400Y-101909800D03*
X93165400Y-101909800D03*
X94865400Y-101909800D03*
D39*
X91465400Y-92279800D03*
%TD*%
D40*
%TO.C,U6*%
X82324600Y-61650200D03*
X81824600Y-61650200D03*
X81324600Y-61650200D03*
X80824600Y-61650200D03*
X80324600Y-61650200D03*
X79824600Y-61650200D03*
X79324600Y-61650200D03*
D41*
X78374600Y-62600200D03*
X78374600Y-63100200D03*
X78374600Y-63600200D03*
X78374600Y-64100200D03*
X78374600Y-64600200D03*
X78374600Y-65100200D03*
X78374600Y-65600200D03*
D40*
X79324600Y-66550200D03*
X79824600Y-66550200D03*
X80324600Y-66550200D03*
X80824600Y-66550200D03*
X81324600Y-66550200D03*
X81824600Y-66550200D03*
X82324600Y-66550200D03*
D41*
X83274600Y-65600200D03*
X83274600Y-65100200D03*
X83274600Y-64600200D03*
X83274600Y-64100200D03*
X83274600Y-63600200D03*
X83274600Y-63100200D03*
X83274600Y-62600200D03*
D42*
X80824600Y-64100200D03*
%TD*%
D43*
%TO.C,L1*%
X111659100Y-83034800D03*
X111659100Y-80584800D03*
%TD*%
D30*
%TO.C,R32*%
X86312900Y-77163500D03*
X88137900Y-77163500D03*
%TD*%
D44*
%TO.C,L2*%
X103878000Y-103490600D03*
X103878000Y-92240600D03*
%TD*%
D30*
%TO.C,R33*%
X86390500Y-49060600D03*
X88215500Y-49060600D03*
%TD*%
D19*
%TO.C,R12*%
X83339200Y-100963300D03*
X83339200Y-102788300D03*
%TD*%
D40*
%TO.C,U8*%
X82351400Y-47610900D03*
X81851400Y-47610900D03*
X81351400Y-47610900D03*
X80851400Y-47610900D03*
X80351400Y-47610900D03*
X79851400Y-47610900D03*
X79351400Y-47610900D03*
D41*
X78401400Y-48560900D03*
X78401400Y-49060900D03*
X78401400Y-49560900D03*
X78401400Y-50060900D03*
X78401400Y-50560900D03*
X78401400Y-51060900D03*
X78401400Y-51560900D03*
D40*
X79351400Y-52510900D03*
X79851400Y-52510900D03*
X80351400Y-52510900D03*
X80851400Y-52510900D03*
X81351400Y-52510900D03*
X81851400Y-52510900D03*
X82351400Y-52510900D03*
D41*
X83301400Y-51560900D03*
X83301400Y-51060900D03*
X83301400Y-50560900D03*
X83301400Y-50060900D03*
X83301400Y-49560900D03*
X83301400Y-49060900D03*
X83301400Y-48560900D03*
D42*
X80851400Y-50060900D03*
%TD*%
D32*
%TO.C,R22*%
X83007600Y-59332800D03*
X83007600Y-57507800D03*
%TD*%
D45*
%TO.C,C1*%
X108602400Y-35096600D03*
X108602400Y-38221600D03*
%TD*%
D31*
%TO.C,C28*%
X75086400Y-52510900D03*
X76811400Y-52510900D03*
%TD*%
D12*
%TO.C,R25*%
X76810000Y-64086400D03*
X74985000Y-64086400D03*
%TD*%
D29*
%TO.C,H4*%
X146296000Y-99650000D03*
%TD*%
D32*
%TO.C,R24*%
X83034400Y-45293500D03*
X83034400Y-43468500D03*
%TD*%
D12*
%TO.C,R28*%
X88137900Y-78839900D03*
X86312900Y-78839900D03*
%TD*%
D13*
%TO.C,C23*%
X86311000Y-80568200D03*
X86311000Y-82293200D03*
%TD*%
D46*
%TO.C,FB1*%
X126874800Y-100668000D03*
X126874800Y-98918000D03*
%TD*%
D33*
%TO.C,TP1*%
X131218200Y-92300000D03*
%TD*%
D19*
%TO.C,R9*%
X125681000Y-91897400D03*
X125681000Y-93722400D03*
%TD*%
D12*
%TO.C,R35*%
X135737500Y-39010800D03*
X133912500Y-39010800D03*
%TD*%
D32*
%TO.C,R10*%
X127205000Y-86538000D03*
X127205000Y-84713000D03*
%TD*%
D27*
%TO.C,J6*%
X148033000Y-54581000D03*
D28*
X148033000Y-57121000D03*
X148033000Y-59661000D03*
X148033000Y-62201000D03*
%TD*%
D19*
%TO.C,R5*%
X120828500Y-80340400D03*
X120828500Y-82165400D03*
%TD*%
D12*
%TO.C,R21*%
X75947800Y-48294500D03*
X74122800Y-48294500D03*
%TD*%
D13*
%TO.C,C21*%
X86388600Y-52465300D03*
X86388600Y-54190300D03*
%TD*%
D12*
%TO.C,R19*%
X75921000Y-62333800D03*
X74096000Y-62333800D03*
%TD*%
D17*
%TO.C,J4*%
X67523400Y-67830600D03*
D18*
X67523400Y-65330600D03*
X67523400Y-62830600D03*
X67523400Y-60330600D03*
%TD*%
D19*
%TO.C,R6*%
X127281200Y-91872000D03*
X127281200Y-93697000D03*
%TD*%
D13*
%TO.C,C22*%
X88190600Y-66503500D03*
X88190600Y-68228500D03*
%TD*%
D11*
%TO.C,C7*%
X98350600Y-38604400D03*
X98350600Y-36879400D03*
%TD*%
D19*
%TO.C,R2*%
X99950800Y-36830200D03*
X99950800Y-38655200D03*
%TD*%
D16*
%TO.C,SW1*%
X89391200Y-35388200D03*
X94641200Y-35388200D03*
X89391200Y-38588200D03*
X94641200Y-38588200D03*
%TD*%
D30*
%TO.C,R11*%
X112879400Y-96973600D03*
X114704400Y-96973600D03*
%TD*%
D45*
%TO.C,C3*%
X106113200Y-35095500D03*
X106113200Y-38220500D03*
%TD*%
D19*
%TO.C,R14*%
X140819400Y-98855100D03*
X140819400Y-100680100D03*
%TD*%
D17*
%TO.C,J5*%
X67548800Y-81902200D03*
D18*
X67548800Y-79402200D03*
X67548800Y-76902200D03*
X67548800Y-74402200D03*
%TD*%
D13*
%TO.C,C20*%
X88139800Y-80567100D03*
X88139800Y-82292100D03*
%TD*%
D45*
%TO.C,C5*%
X103649400Y-35096600D03*
X103649400Y-38221600D03*
%TD*%
D29*
%TO.C,H3*%
X132326000Y-67646000D03*
%TD*%
D11*
%TO.C,C2*%
X112133000Y-36809300D03*
X112133000Y-35084300D03*
%TD*%
D25*
%TO.C,C16*%
X93296000Y-66386588D03*
D26*
X93296000Y-68386588D03*
%TD*%
D31*
%TO.C,C25*%
X75059600Y-66550200D03*
X76784600Y-66550200D03*
%TD*%
D47*
%TO.C,D2*%
X128870000Y-88112800D03*
X130620000Y-88112800D03*
%TD*%
D31*
%TO.C,C13*%
X111712100Y-78507800D03*
X113437100Y-78507800D03*
%TD*%
D33*
%TO.C,TP3*%
X103837000Y-84172000D03*
%TD*%
D40*
%TO.C,U7*%
X82273800Y-75713800D03*
X81773800Y-75713800D03*
X81273800Y-75713800D03*
X80773800Y-75713800D03*
X80273800Y-75713800D03*
X79773800Y-75713800D03*
X79273800Y-75713800D03*
D41*
X78323800Y-76663800D03*
X78323800Y-77163800D03*
X78323800Y-77663800D03*
X78323800Y-78163800D03*
X78323800Y-78663800D03*
X78323800Y-79163800D03*
X78323800Y-79663800D03*
D40*
X79273800Y-80613800D03*
X79773800Y-80613800D03*
X80273800Y-80613800D03*
X80773800Y-80613800D03*
X81273800Y-80613800D03*
X81773800Y-80613800D03*
X82273800Y-80613800D03*
D41*
X83223800Y-79663800D03*
X83223800Y-79163800D03*
X83223800Y-78663800D03*
X83223800Y-78163800D03*
X83223800Y-77663800D03*
X83223800Y-77163800D03*
X83223800Y-76663800D03*
D42*
X80773800Y-78163800D03*
%TD*%
D13*
%TO.C,C30*%
X84583800Y-45501600D03*
X84583800Y-47226600D03*
%TD*%
D12*
%TO.C,R20*%
X75870200Y-76397400D03*
X74045200Y-76397400D03*
%TD*%
D48*
%TO.C,D3*%
X99341200Y-82926000D03*
X99341200Y-87926000D03*
%TD*%
D12*
%TO.C,R29*%
X76836800Y-50047100D03*
X75011800Y-50047100D03*
%TD*%
D19*
%TO.C,R4*%
X128805200Y-90019700D03*
X128805200Y-91844700D03*
%TD*%
D49*
%TO.C,U5*%
X134393200Y-96541800D03*
X134393200Y-95591800D03*
X134393200Y-94641800D03*
X131693200Y-94641800D03*
X131693200Y-95591800D03*
X131693200Y-96541800D03*
%TD*%
D29*
%TO.C,H1*%
X70096000Y-100412000D03*
%TD*%
D33*
%TO.C,TP4*%
X109475800Y-88667800D03*
%TD*%
D12*
%TO.C,R18*%
X79855600Y-54212700D03*
X78030600Y-54212700D03*
%TD*%
D30*
%TO.C,R31*%
X86363700Y-63099900D03*
X88188700Y-63099900D03*
%TD*%
D50*
%TO.C,U1*%
X114073800Y-35353200D03*
X114073800Y-36623200D03*
X114073800Y-37893200D03*
X114073800Y-39163200D03*
X114073800Y-40433200D03*
X114073800Y-41703200D03*
X114073800Y-42973200D03*
X114073800Y-44243200D03*
X114073800Y-45513200D03*
X114073800Y-46783200D03*
X114073800Y-48053200D03*
X114073800Y-49323200D03*
X114073800Y-50593200D03*
D51*
X114073800Y-51863200D03*
D52*
X115838800Y-53113200D03*
X117108800Y-53113200D03*
X118378800Y-53113200D03*
X119648800Y-53113200D03*
X120918800Y-53113200D03*
X122188800Y-53113200D03*
X123458800Y-53113200D03*
X124728800Y-53113200D03*
X125998800Y-53113200D03*
X127268800Y-53113200D03*
X128538800Y-53113200D03*
X129808800Y-53113200D03*
D50*
X131573800Y-51863200D03*
X131573800Y-50593200D03*
X131573800Y-49323200D03*
X131573800Y-48053200D03*
X131573800Y-46783200D03*
X131573800Y-45513200D03*
X131573800Y-44243200D03*
X131573800Y-42973200D03*
X131573800Y-41703200D03*
X131573800Y-40433200D03*
X131573800Y-39163200D03*
X131573800Y-37893200D03*
X131573800Y-36623200D03*
X131573800Y-35353200D03*
D53*
X121323800Y-43073200D03*
%TD*%
D32*
%TO.C,R37*%
X123598200Y-57093700D03*
X123598200Y-55268700D03*
%TD*%
D12*
%TO.C,R26*%
X88188700Y-64776300D03*
X86363700Y-64776300D03*
%TD*%
M02*
