%TF.GenerationSoftware,KiCad,Pcbnew,10.0.5-unknown-202607221313~667fa36054~ubuntu25.10.1*%
%TF.CreationDate,Date%
%TF.ProjectId,Orion,4f72696f-6e2e-46b6-9963-61645f706362,+ (Unreleased)*%
%TF.SameCoordinates,Original*%
%TF.FileFunction,Copper,L4,Bot*%
%TF.FilePolarity,Positive*%
%FSLAX46Y46*%
G04 Gerber Fmt 4.6, Leading zero omitted, Abs format (unit mm)*
G04 Created by KiCad*
%MOMM*%
%LPD*%
G01*
G04 APERTURE LIST*
G04 Aperture macros list*
%AMRoundRect*
0 Rectangle with rounded corners*
0 $1 Rounding radius*
0 $2 $3 $4 $5 $6 $7 $8 $9 X,Y pos of 4 corners*
0 Add a 4 corners polygon primitive as box body*
4,1,4,$2,$3,$4,$5,$6,$7,$8,$9,$2,$3,0*
0 Add four circle primitives for the rounded corners*
1,1,$1+$1,$2,$3*
1,1,$1+$1,$4,$5*
1,1,$1+$1,$6,$7*
1,1,$1+$1,$8,$9*
0 Add four rect primitives between the rounded corners*
20,1,$1+$1,$2,$3,$4,$5,0*
20,1,$1+$1,$4,$5,$6,$7,0*
20,1,$1+$1,$6,$7,$8,$9,0*
20,1,$1+$1,$8,$9,$2,$3,0*%
G04 Aperture macros list end*
%TA.AperFunction,ComponentPad*%
%ADD10RoundRect,0.250000X0.725000X-0.600000X0.725000X0.600000X-0.725000X0.600000X-0.725000X-0.600000X0*%
%TD*%
%TA.AperFunction,ComponentPad*%
%ADD11O,1.950000X1.700000*%
%TD*%
%TA.AperFunction,ComponentPad*%
%ADD12O,1.000000X2.100000*%
%TD*%
%TA.AperFunction,ComponentPad*%
%ADD13O,1.000000X1.800000*%
%TD*%
%TA.AperFunction,ComponentPad*%
%ADD14RoundRect,0.250000X-0.550000X0.550000X-0.550000X-0.550000X0.550000X-0.550000X0.550000X0.550000X0*%
%TD*%
%TA.AperFunction,ComponentPad*%
%ADD15C,1.600000*%
%TD*%
%TA.AperFunction,ComponentPad*%
%ADD16R,1.700000X1.700000*%
%TD*%
%TA.AperFunction,ComponentPad*%
%ADD17C,1.700000*%
%TD*%
%TA.AperFunction,ComponentPad*%
%ADD18C,5.600000*%
%TD*%
%TA.AperFunction,ComponentPad*%
%ADD19RoundRect,0.250000X-0.600000X-0.750000X0.600000X-0.750000X0.600000X0.750000X-0.600000X0.750000X0*%
%TD*%
%TA.AperFunction,ComponentPad*%
%ADD20O,1.700000X2.000000*%
%TD*%
%TA.AperFunction,ViaPad*%
%ADD21C,0.700000*%
%TD*%
%TA.AperFunction,Conductor*%
%ADD22C,0.300000*%
%TD*%
%TA.AperFunction,Conductor*%
%ADD23C,0.254000*%
%TD*%
%TA.AperFunction,Conductor*%
%ADD24C,0.500000*%
%TD*%
%TA.AperFunction,Conductor*%
%ADD25C,0.250000*%
%TD*%
G04 APERTURE END LIST*
D10*
%TO.P,J3,1,Pin_1_1*%
%TO.N,M1_A+*%
X67498000Y-53809800D03*
D11*
%TO.P,J3,2,Pin_2_2*%
%TO.N,M1_A-*%
X67498000Y-51309800D03*
%TO.P,J3,3,Pin_3_3*%
%TO.N,M1_B+*%
X67498000Y-48809800D03*
%TO.P,J3,4,Pin_4_4*%
%TO.N,M1_B-*%
X67498000Y-46309800D03*
%TD*%
D12*
%TO.P,J2,SH1,SHELL_GND_SH1*%
%TO.N,GND*%
X128727000Y-99524600D03*
%TO.P,J2,SH2,SHELL_GND_SH2*%
X137367000Y-99524600D03*
D13*
%TO.P,J2,SH3,SHELL_GND_SH3*%
X128727000Y-103704600D03*
%TO.P,J2,SH4,SHELL_GND_SH4*%
X137367000Y-103704600D03*
%TD*%
D14*
%TO.P,C17,1*%
%TO.N,VM*%
X93245200Y-80450188D03*
D15*
%TO.P,C17,2*%
%TO.N,GND*%
X93245200Y-82450188D03*
%TD*%
D16*
%TO.P,J1,1,Pin_1_1*%
%TO.N,/Project Architecture/Connectors/IMU_SDA*%
X148033000Y-42211200D03*
D17*
%TO.P,J1,2,Pin_2_2*%
%TO.N,/Project Architecture/Connectors/IMU_SCL*%
X148033000Y-44751200D03*
%TO.P,J1,3,Pin_3_3*%
%TO.N,+3.3V*%
X148033000Y-47291200D03*
%TO.P,J1,4,Pin_4_4*%
%TO.N,GND*%
X148033000Y-49831200D03*
%TD*%
D18*
%TO.P,H2,1,1_1*%
%TO.N,GND*%
X68826000Y-38690000D03*
%TD*%
D14*
%TO.P,C34,1*%
%TO.N,Net-(BT1-+)*%
X123105800Y-99025088D03*
D15*
%TO.P,C34,2*%
%TO.N,GND*%
X123105800Y-101025088D03*
%TD*%
D19*
%TO.P,BT1,1,+_1*%
%TO.N,Net-(BT1-+)*%
X114700900Y-101071400D03*
D20*
%TO.P,BT1,2,-_2*%
%TO.N,GND*%
X117200900Y-101071400D03*
%TD*%
D14*
%TO.P,C18,1*%
%TO.N,VM*%
X93322800Y-52347288D03*
D15*
%TO.P,C18,2*%
%TO.N,GND*%
X93322800Y-54347288D03*
%TD*%
D18*
%TO.P,H4,1,1_1*%
%TO.N,GND*%
X146296000Y-99650000D03*
%TD*%
D16*
%TO.P,J6,1,Pin_1_1*%
%TO.N,+3.3V*%
X148033000Y-54581000D03*
D17*
%TO.P,J6,2,Pin_2_2*%
%TO.N,GND*%
X148033000Y-57121000D03*
%TO.P,J6,3,Pin_3_3*%
%TO.N,A4988_DIR*%
X148033000Y-59661000D03*
%TO.P,J6,4,Pin_4_4*%
%TO.N,A4988_STEP*%
X148033000Y-62201000D03*
%TD*%
D10*
%TO.P,J4,1,Pin_1_1*%
%TO.N,M2_A+*%
X67523400Y-67830600D03*
D11*
%TO.P,J4,2,Pin_2_2*%
%TO.N,M2_A-*%
X67523400Y-65330600D03*
%TO.P,J4,3,Pin_3_3*%
%TO.N,M2_B+*%
X67523400Y-62830600D03*
%TO.P,J4,4,Pin_4_4*%
%TO.N,M2_B-*%
X67523400Y-60330600D03*
%TD*%
D10*
%TO.P,J5,1,Pin_1_1*%
%TO.N,M3_A+*%
X67548800Y-81902200D03*
D11*
%TO.P,J5,2,Pin_2_2*%
%TO.N,M3_A-*%
X67548800Y-79402200D03*
%TO.P,J5,3,Pin_3_3*%
%TO.N,M3_B+*%
X67548800Y-76902200D03*
%TO.P,J5,4,Pin_4_4*%
%TO.N,M3_B-*%
X67548800Y-74402200D03*
%TD*%
D18*
%TO.P,H3,1,1_1*%
%TO.N,GND*%
X132326000Y-67646000D03*
%TD*%
D14*
%TO.P,C16,1*%
%TO.N,VM*%
X93296000Y-66386588D03*
D15*
%TO.P,C16,2*%
%TO.N,GND*%
X93296000Y-68386588D03*
%TD*%
D18*
%TO.P,H1,1,1_1*%
%TO.N,GND*%
X70096000Y-100412000D03*
%TD*%
D21*
%TO.N,+3.3V*%
X118416600Y-94789200D03*
X126011200Y-57095600D03*
X76709800Y-86051600D03*
X129386550Y-83463650D03*
%TO.N,GND*%
X146550000Y-43516000D03*
X115851200Y-35327800D03*
X124766600Y-54504800D03*
X78056000Y-75485200D03*
X75897000Y-58543400D03*
X115673400Y-40382400D03*
X77903600Y-47164200D03*
X124944400Y-87550200D03*
X77395600Y-83689400D03*
X87225400Y-84299000D03*
X85574400Y-70659200D03*
X129999000Y-35454800D03*
X124436400Y-93747800D03*
X96064600Y-100021600D03*
X149455400Y-104923800D03*
X92610200Y-98980200D03*
X146991600Y-60981800D03*
X79554600Y-56663800D03*
X90197200Y-97405400D03*
X85980800Y-47799200D03*
X112523800Y-95754400D03*
X73052200Y-47443600D03*
X85117200Y-55368400D03*
X112219000Y-40484000D03*
X84482200Y-82267000D03*
X117172000Y-57908400D03*
X124309400Y-58492600D03*
X115597200Y-96160800D03*
X128576600Y-93671600D03*
X90070200Y-99488200D03*
X112396800Y-48866000D03*
X112727000Y-53336400D03*
X86692000Y-75942400D03*
X73687200Y-52599800D03*
X112600000Y-93849400D03*
X114428800Y-52980800D03*
X73865000Y-78228400D03*
X75744600Y-69440000D03*
X133148600Y-35277000D03*
X126443000Y-83486200D03*
X99265000Y-96541800D03*
X107393000Y-105203200D03*
X113539800Y-91284000D03*
X73839600Y-67255600D03*
X133047000Y-37791600D03*
X114454200Y-81886000D03*
X130329200Y-94586000D03*
X113565200Y-97964200D03*
X131218200Y-53209400D03*
X85498200Y-72335600D03*
X75922400Y-72970600D03*
X75922400Y-83740200D03*
X146737600Y-46046600D03*
X135968000Y-60931000D03*
X79884800Y-70735400D03*
X115952800Y-93646200D03*
X85523600Y-43481200D03*
X115597200Y-45462400D03*
X110009200Y-52955400D03*
X88114400Y-99234200D03*
X124995200Y-90877600D03*
X83110600Y-56232000D03*
X103964000Y-100666000D03*
X95150200Y-105101600D03*
X86387200Y-102129800D03*
X110771200Y-95602000D03*
X72772800Y-75815400D03*
X136466200Y-42423800D03*
X81078600Y-83486200D03*
X75693800Y-45360800D03*
X127890800Y-87448600D03*
X147779000Y-52168000D03*
X114022400Y-76348800D03*
X131370600Y-89455200D03*
X78081400Y-40179200D03*
X124258600Y-60550000D03*
X116613200Y-50618600D03*
X105640400Y-45767200D03*
X65051200Y-34819800D03*
X128957600Y-55647800D03*
X85650600Y-58365600D03*
X124893600Y-75231200D03*
X90400400Y-60829400D03*
X133021600Y-41525400D03*
X119966000Y-81276400D03*
X120220000Y-51177400D03*
X140082800Y-35531000D03*
X146890000Y-63699600D03*
X124334800Y-64309200D03*
X73509400Y-64029800D03*
X86107800Y-61820000D03*
X136069600Y-95500400D03*
X78208400Y-61439000D03*
X73128400Y-80641400D03*
X84406000Y-68017600D03*
X131878600Y-86940600D03*
X73611000Y-50110600D03*
X146270600Y-37013600D03*
X95912200Y-37715400D03*
X85752200Y-105050800D03*
X89968600Y-54200000D03*
X130075200Y-51507600D03*
X110720400Y-98243600D03*
X109450400Y-93671600D03*
%TO.N,VM*%
X83223800Y-75952900D03*
X83301400Y-52473100D03*
X83274600Y-66512400D03*
X83223800Y-80576000D03*
X83301400Y-47850000D03*
X83274600Y-61889300D03*
%TO.N,Net-(U1-IO0)*%
X133199400Y-51863200D03*
X139778000Y-38350400D03*
%TO.N,M1_A+*%
X84761600Y-50671600D03*
%TO.N,M1_A-*%
X82348600Y-53717400D03*
%TO.N,M1_B+*%
X84707296Y-49773237D03*
%TO.N,M1_B-*%
X83136000Y-46826300D03*
%TO.N,VB*%
X130659400Y-97659400D03*
X135460000Y-97659400D03*
%TO.N,STEP2*%
X115597200Y-48027800D03*
X78972729Y-69520214D03*
%TO.N,/Project Architecture/MCU/INA_SDA*%
X122175800Y-51558400D03*
X114428800Y-91004600D03*
%TO.N,/Project Architecture/MCU/INA_SCL*%
X115724200Y-91030000D03*
X123445800Y-51558400D03*
%TO.N,STEP3*%
X79275200Y-83841800D03*
X118365800Y-51558400D03*
%TO.N,M2_B-*%
X83109200Y-60865600D03*
%TO.N,DIR2*%
X84609200Y-69109800D03*
X115597200Y-46757800D03*
%TO.N,M2_A-*%
X82321800Y-67756700D03*
%TO.N,M2_A+*%
X84734800Y-64710900D03*
%TO.N,M2_B+*%
X84680496Y-63812537D03*
%TO.N,DIR1*%
X115597200Y-42947800D03*
X83847200Y-55368400D03*
%TO.N,RX1*%
X115597200Y-39137800D03*
X74122800Y-45306200D03*
%TO.N,RX2*%
X74068200Y-59584800D03*
X115597200Y-44217800D03*
%TO.N,M3_A+*%
X84684000Y-78774500D03*
%TO.N,M3_A-*%
X82271000Y-81820300D03*
%TO.N,M3_B+*%
X84629696Y-77876137D03*
%TO.N,M3_B-*%
X83058400Y-74929200D03*
%TO.N,DIR3*%
X117095800Y-51558400D03*
X84355200Y-83841800D03*
%TO.N,RX3*%
X115597200Y-49297800D03*
X74045200Y-73681800D03*
%TO.N,STEP1*%
X79249800Y-55393800D03*
X115597200Y-41677800D03*
%TD*%
%TO.N,+3.3V*%
D22*
X129386550Y-83463650D02*
X129386550Y-87476200D01*
X126011200Y-57095600D02*
X126011200Y-80088300D01*
X128525800Y-54581000D02*
X148033000Y-54581000D01*
X129386550Y-87476200D02*
X122073550Y-94789200D01*
D23*
X85447400Y-94789200D02*
X118416600Y-94789200D01*
X76709800Y-86051600D02*
X85447400Y-94789200D01*
D22*
X126011200Y-57095600D02*
X128525800Y-54581000D01*
X122073550Y-94789200D02*
X118416600Y-94789200D01*
X126011200Y-80088300D02*
X129386550Y-83463650D01*
%TO.N,VM*%
D24*
X83301400Y-52473100D02*
X83301400Y-47850000D01*
X83223800Y-75952900D02*
X83223800Y-80576000D01*
X83250600Y-61903488D02*
X83250600Y-66526588D01*
%TO.N,Net-(U1-IO0)*%
D22*
X139778000Y-38350400D02*
X139778000Y-45284600D01*
X139778000Y-45284600D02*
X133199400Y-51863200D01*
%TO.N,M1_A+*%
D25*
X84761600Y-50671600D02*
X84761600Y-52603891D01*
X82860691Y-54504800D02*
X81866000Y-54504800D01*
X81154800Y-53793600D02*
X67514200Y-53793600D01*
X67514200Y-53793600D02*
X67498000Y-53809800D01*
X84761600Y-52603891D02*
X82860691Y-54504800D01*
X81866000Y-54504800D02*
X81154800Y-53793600D01*
%TO.N,M1_A-*%
X82348600Y-53717400D02*
X79941000Y-51309800D01*
X79941000Y-51309800D02*
X67498000Y-51309800D01*
%TO.N,M1_B+*%
X84705368Y-49773237D02*
X84025000Y-50453605D01*
X84707296Y-49773237D02*
X84705368Y-49773237D01*
X78395595Y-48809800D02*
X67498000Y-48809800D01*
X83341895Y-53387200D02*
X82972995Y-53387200D01*
X84025000Y-50453605D02*
X84025000Y-52704095D01*
X84025000Y-52704095D02*
X83341895Y-53387200D01*
X82972995Y-53387200D02*
X78395595Y-48809800D01*
%TO.N,M1_B-*%
D22*
X82619500Y-46309800D02*
X67498000Y-46309800D01*
X83136000Y-46826300D02*
X82619500Y-46309800D01*
%TO.N,VB*%
D23*
X135460000Y-97659400D02*
X130659400Y-97659400D01*
%TO.N,STEP2*%
D22*
X106961200Y-48027800D02*
X115597200Y-48027800D01*
X78972729Y-69520214D02*
X79262315Y-69809800D01*
X79262315Y-69809800D02*
X85179200Y-69809800D01*
X85179200Y-69809800D02*
X106961200Y-48027800D01*
%TO.N,/Project Architecture/MCU/INA_SDA*%
X122175800Y-51558400D02*
X122175800Y-83257600D01*
X122175800Y-83257600D02*
X114428800Y-91004600D01*
%TO.N,/Project Architecture/MCU/INA_SCL*%
X123445800Y-83308400D02*
X123445800Y-51558400D01*
X115724200Y-91030000D02*
X123445800Y-83308400D01*
%TO.N,STEP3*%
X85382400Y-84541800D02*
X118365800Y-51558400D01*
X79275200Y-83841800D02*
X79975200Y-84541800D01*
X79975200Y-84541800D02*
X85382400Y-84541800D01*
%TO.N,M2_B-*%
X83109200Y-60865600D02*
X82574200Y-60330600D01*
X82574200Y-60330600D02*
X67523400Y-60330600D01*
%TO.N,DIR2*%
X84609200Y-69109800D02*
X106961200Y-46757800D01*
X106961200Y-46757800D02*
X115597200Y-46757800D01*
%TO.N,M2_A-*%
D25*
X79895700Y-65330600D02*
X67523400Y-65330600D01*
X82321800Y-67756700D02*
X79895700Y-65330600D01*
%TO.N,M2_A+*%
X84734800Y-66643191D02*
X82946291Y-68431700D01*
X84734800Y-64710900D02*
X84734800Y-66643191D01*
X68124500Y-68431700D02*
X67523400Y-67830600D01*
X82946291Y-68431700D02*
X68124500Y-68431700D01*
%TO.N,M2_B+*%
X78638205Y-62830600D02*
X67523400Y-62830600D01*
X83949600Y-66791995D02*
X83554195Y-67187400D01*
X82995005Y-67187400D02*
X78638205Y-62830600D01*
X83949600Y-64541505D02*
X83949600Y-66791995D01*
X84678568Y-63812537D02*
X83949600Y-64541505D01*
X84680496Y-63812537D02*
X84678568Y-63812537D01*
X83554195Y-67187400D02*
X82995005Y-67187400D01*
%TO.N,DIR1*%
D22*
X96267800Y-42947800D02*
X115597200Y-42947800D01*
X83847200Y-55368400D02*
X96267800Y-42947800D01*
%TO.N,RX1*%
X74122800Y-42512200D02*
X77497200Y-39137800D01*
X74122800Y-45306200D02*
X74122800Y-42512200D01*
X77497200Y-39137800D02*
X115597200Y-39137800D01*
%TO.N,RX2*%
X74068200Y-59584800D02*
X89711634Y-59584800D01*
X89711634Y-59584800D02*
X105078634Y-44217800D01*
X105078634Y-44217800D02*
X115597200Y-44217800D01*
%TO.N,M3_A+*%
D25*
X84684000Y-78774500D02*
X84684000Y-80706791D01*
X84684000Y-80706791D02*
X82895491Y-82495300D01*
X82895491Y-82495300D02*
X68141900Y-82495300D01*
X68141900Y-82495300D02*
X67548800Y-81902200D01*
%TO.N,M3_A-*%
X82271000Y-81820300D02*
X79852900Y-79402200D01*
X79852900Y-79402200D02*
X67548800Y-79402200D01*
%TO.N,M3_B+*%
X78307495Y-76902200D02*
X67548800Y-76902200D01*
X83898800Y-80855595D02*
X83503395Y-81251000D01*
X84453463Y-77876137D02*
X83898800Y-78430800D01*
X82656295Y-81251000D02*
X78307495Y-76902200D01*
X84629696Y-77876137D02*
X84453463Y-77876137D01*
X83898800Y-78430800D02*
X83898800Y-80855595D01*
X83503395Y-81251000D02*
X82656295Y-81251000D01*
%TO.N,M3_B-*%
D22*
X82531400Y-74402200D02*
X67548800Y-74402200D01*
X83058400Y-74929200D02*
X82531400Y-74402200D01*
%TO.N,DIR3*%
X84355200Y-83841800D02*
X84812400Y-83841800D01*
X84812400Y-83841800D02*
X117095800Y-51558400D01*
%TO.N,RX3*%
X74045200Y-73681800D02*
X91213200Y-73681800D01*
X91213200Y-73681800D02*
X115597200Y-49297800D01*
%TO.N,STEP1*%
X82831850Y-55393800D02*
X96547850Y-41677800D01*
X96547850Y-41677800D02*
X115597200Y-41677800D01*
X79249800Y-55393800D02*
X82831850Y-55393800D01*
%TD*%
%TA.AperFunction,Conductor*%
%TO.N,GND*%
G36*
X150011539Y-34175585D02*
G01*
X150057294Y-34228389D01*
X150068500Y-34279900D01*
X150068500Y-105463700D01*
X150048815Y-105530739D01*
X149996011Y-105576494D01*
X149944500Y-105587700D01*
X64638300Y-105587700D01*
X64571261Y-105568015D01*
X64525506Y-105515211D01*
X64514300Y-105463700D01*
X64514300Y-104173546D01*
X128026999Y-104173546D01*
X128053899Y-104308776D01*
X128053902Y-104308786D01*
X128106664Y-104436166D01*
X128106671Y-104436179D01*
X128183275Y-104550826D01*
X128280773Y-104648324D01*
X128395420Y-104724928D01*
X128395424Y-104724930D01*
X128477000Y-104758719D01*
X128477000Y-104271588D01*
X128486940Y-104288805D01*
X128542795Y-104344660D01*
X128611204Y-104384156D01*
X128687504Y-104404600D01*
X128766496Y-104404600D01*
X128842796Y-104384156D01*
X128911205Y-104344660D01*
X128967060Y-104288805D01*
X128977000Y-104271588D01*
X128977000Y-104758718D01*
X129058575Y-104724930D01*
X129058579Y-104724928D01*
X129173226Y-104648324D01*
X129270724Y-104550826D01*
X129347328Y-104436179D01*
X129347335Y-104436166D01*
X129400097Y-104308786D01*
X129400100Y-104308776D01*
X129427000Y-104173546D01*
X136666999Y-104173546D01*
X136693899Y-104308776D01*
X136693902Y-104308786D01*
X136746664Y-104436166D01*
X136746671Y-104436179D01*
X136823275Y-104550826D01*
X136920773Y-104648324D01*
X137035420Y-104724928D01*
X137035424Y-104724930D01*
X137117000Y-104758719D01*
X137117000Y-104271588D01*
X137126940Y-104288805D01*
X137182795Y-104344660D01*
X137251204Y-104384156D01*
X137327504Y-104404600D01*
X137406496Y-104404600D01*
X137482796Y-104384156D01*
X137551205Y-104344660D01*
X137607060Y-104288805D01*
X137617000Y-104271588D01*
X137617000Y-104758718D01*
X137698575Y-104724930D01*
X137698579Y-104724928D01*
X137813226Y-104648324D01*
X137910724Y-104550826D01*
X137987328Y-104436179D01*
X137987335Y-104436166D01*
X138040097Y-104308786D01*
X138040100Y-104308776D01*
X138067000Y-104173546D01*
X138067000Y-103954600D01*
X137667000Y-103954600D01*
X137667000Y-103454600D01*
X138067000Y-103454600D01*
X138067000Y-103235653D01*
X138040100Y-103100423D01*
X138040097Y-103100413D01*
X137987335Y-102973033D01*
X137987328Y-102973020D01*
X137910724Y-102858373D01*
X137813226Y-102760875D01*
X137698573Y-102684267D01*
X137617000Y-102650479D01*
X137617000Y-103137611D01*
X137607060Y-103120395D01*
X137551205Y-103064540D01*
X137482796Y-103025044D01*
X137406496Y-103004600D01*
X137327504Y-103004600D01*
X137251204Y-103025044D01*
X137182795Y-103064540D01*
X137126940Y-103120395D01*
X137117000Y-103137611D01*
X137117000Y-102650479D01*
X137116999Y-102650479D01*
X137035426Y-102684267D01*
X136920773Y-102760875D01*
X136823275Y-102858373D01*
X136746671Y-102973020D01*
X136746664Y-102973033D01*
X136693902Y-103100413D01*
X136693899Y-103100423D01*
X136667000Y-103235653D01*
X136667000Y-103454600D01*
X137067000Y-103454600D01*
X137067000Y-103954600D01*
X136667000Y-103954600D01*
X136667000Y-104173546D01*
X136666999Y-104173546D01*
X129427000Y-104173546D01*
X129427000Y-103954600D01*
X129027000Y-103954600D01*
X129027000Y-103454600D01*
X129427000Y-103454600D01*
X129427000Y-103235653D01*
X129400100Y-103100423D01*
X129400097Y-103100413D01*
X129347335Y-102973033D01*
X129347328Y-102973020D01*
X129270724Y-102858373D01*
X129173226Y-102760875D01*
X129058573Y-102684267D01*
X128977000Y-102650479D01*
X128977000Y-103137611D01*
X128967060Y-103120395D01*
X128911205Y-103064540D01*
X128842796Y-103025044D01*
X128766496Y-103004600D01*
X128687504Y-103004600D01*
X128611204Y-103025044D01*
X128542795Y-103064540D01*
X128486940Y-103120395D01*
X128477000Y-103137611D01*
X128477000Y-102650479D01*
X128476999Y-102650479D01*
X128395426Y-102684267D01*
X128280773Y-102760875D01*
X128183275Y-102858373D01*
X128106671Y-102973020D01*
X128106664Y-102973033D01*
X128053902Y-103100413D01*
X128053899Y-103100423D01*
X128027000Y-103235653D01*
X128027000Y-103454600D01*
X128427000Y-103454600D01*
X128427000Y-103954600D01*
X128027000Y-103954600D01*
X128027000Y-104173546D01*
X128026999Y-104173546D01*
X64514300Y-104173546D01*
X64514300Y-100267130D01*
X113650400Y-100267130D01*
X113650400Y-101875669D01*
X113653253Y-101906099D01*
X113653253Y-101906101D01*
X113698106Y-102034280D01*
X113698107Y-102034282D01*
X113778750Y-102143550D01*
X113888018Y-102224193D01*
X113930745Y-102239144D01*
X114016199Y-102269046D01*
X114046630Y-102271900D01*
X114046634Y-102271900D01*
X115355170Y-102271900D01*
X115385599Y-102269046D01*
X115385601Y-102269046D01*
X115449690Y-102246619D01*
X115513782Y-102224193D01*
X115623050Y-102143550D01*
X115703693Y-102034282D01*
X115726119Y-101970190D01*
X115748546Y-101906101D01*
X115748546Y-101906099D01*
X115751400Y-101875669D01*
X115751400Y-100817979D01*
X116150900Y-100817979D01*
X116150900Y-100821400D01*
X116767888Y-100821400D01*
X116734975Y-100878407D01*
X116700900Y-101005574D01*
X116700900Y-101137226D01*
X116734975Y-101264393D01*
X116767888Y-101321400D01*
X116150900Y-101321400D01*
X116150900Y-101324820D01*
X116191248Y-101527666D01*
X116191250Y-101527674D01*
X116270400Y-101718758D01*
X116270405Y-101718768D01*
X116385310Y-101890735D01*
X116385313Y-101890739D01*
X116531560Y-102036986D01*
X116531564Y-102036989D01*
X116703531Y-102151894D01*
X116703541Y-102151899D01*
X116894623Y-102231048D01*
X116894625Y-102231049D01*
X116950900Y-102242242D01*
X116950900Y-101504412D01*
X117007907Y-101537325D01*
X117135074Y-101571400D01*
X117266726Y-101571400D01*
X117393893Y-101537325D01*
X117450900Y-101504412D01*
X117450900Y-102242242D01*
X117507174Y-102231049D01*
X117507176Y-102231048D01*
X117698258Y-102151899D01*
X117698268Y-102151894D01*
X117870235Y-102036989D01*
X117870239Y-102036986D01*
X118016486Y-101890739D01*
X118016489Y-101890735D01*
X118095453Y-101772559D01*
X118095454Y-101772557D01*
X118131391Y-101718773D01*
X118131399Y-101718758D01*
X118210549Y-101527674D01*
X118210551Y-101527666D01*
X118250899Y-101324820D01*
X118250900Y-101324817D01*
X118250900Y-101321400D01*
X117633912Y-101321400D01*
X117666825Y-101264393D01*
X117700900Y-101137226D01*
X117700900Y-101005574D01*
X117666825Y-100878407D01*
X117633912Y-100821400D01*
X118250900Y-100821400D01*
X118250900Y-100817983D01*
X118250899Y-100817979D01*
X118210551Y-100615133D01*
X118210549Y-100615125D01*
X118131399Y-100424041D01*
X118131394Y-100424031D01*
X118016489Y-100252064D01*
X118016486Y-100252060D01*
X117870239Y-100105813D01*
X117870235Y-100105810D01*
X117698268Y-99990905D01*
X117698258Y-99990900D01*
X117507172Y-99911749D01*
X117507167Y-99911747D01*
X117450900Y-99900555D01*
X117450900Y-100638388D01*
X117393893Y-100605475D01*
X117266726Y-100571400D01*
X117135074Y-100571400D01*
X117007907Y-100605475D01*
X116950900Y-100638388D01*
X116950900Y-99900556D01*
X116950899Y-99900555D01*
X116894632Y-99911747D01*
X116894627Y-99911749D01*
X116703541Y-99990900D01*
X116703531Y-99990905D01*
X116531564Y-100105810D01*
X116531560Y-100105813D01*
X116385313Y-100252060D01*
X116385310Y-100252064D01*
X116270405Y-100424031D01*
X116270400Y-100424041D01*
X116191250Y-100615125D01*
X116191248Y-100615133D01*
X116150900Y-100817979D01*
X115751400Y-100817979D01*
X115751400Y-100267130D01*
X115748546Y-100236700D01*
X115748546Y-100236698D01*
X115705645Y-100114096D01*
X115703693Y-100108518D01*
X115623050Y-99999250D01*
X115513782Y-99918607D01*
X115513780Y-99918606D01*
X115385600Y-99873753D01*
X115355170Y-99870900D01*
X115355166Y-99870900D01*
X114046634Y-99870900D01*
X114046630Y-99870900D01*
X114016200Y-99873753D01*
X114016198Y-99873753D01*
X113888019Y-99918606D01*
X113888017Y-99918607D01*
X113778750Y-99999250D01*
X113698107Y-100108517D01*
X113698106Y-100108519D01*
X113653253Y-100236698D01*
X113653253Y-100236700D01*
X113650400Y-100267130D01*
X64514300Y-100267130D01*
X64514300Y-98420818D01*
X122105300Y-98420818D01*
X122105300Y-99629357D01*
X122108153Y-99659787D01*
X122108153Y-99659789D01*
X122153006Y-99787968D01*
X122153007Y-99787970D01*
X122233650Y-99897238D01*
X122342918Y-99977881D01*
X122380124Y-99990900D01*
X122471096Y-100022733D01*
X122471098Y-100022733D01*
X122471101Y-100022734D01*
X122485232Y-100024059D01*
X122550138Y-100049914D01*
X122590765Y-100106758D01*
X122597058Y-100159670D01*
X122596777Y-100162513D01*
X123059354Y-100625088D01*
X123053139Y-100625088D01*
X122951406Y-100652347D01*
X122860194Y-100705008D01*
X122785720Y-100779482D01*
X122733059Y-100870694D01*
X122705800Y-100972427D01*
X122705800Y-100978640D01*
X122243226Y-100516066D01*
X122243226Y-100516067D01*
X122219613Y-100551406D01*
X122219609Y-100551413D01*
X122144229Y-100733398D01*
X122144227Y-100733406D01*
X122105800Y-100926592D01*
X122105800Y-101123583D01*
X122144227Y-101316769D01*
X122144230Y-101316781D01*
X122219608Y-101498761D01*
X122219609Y-101498763D01*
X122243225Y-101534107D01*
X122705800Y-101071533D01*
X122705800Y-101077749D01*
X122733059Y-101179482D01*
X122785720Y-101270694D01*
X122860194Y-101345168D01*
X122951406Y-101397829D01*
X123053139Y-101425088D01*
X123059353Y-101425088D01*
X122596779Y-101887660D01*
X122632128Y-101911280D01*
X122814106Y-101986657D01*
X122814118Y-101986660D01*
X123007304Y-102025087D01*
X123007308Y-102025088D01*
X123204292Y-102025088D01*
X123204295Y-102025087D01*
X123397481Y-101986660D01*
X123397493Y-101986657D01*
X123579476Y-101911278D01*
X123579480Y-101911275D01*
X123614819Y-101887661D01*
X123614820Y-101887660D01*
X123152248Y-101425088D01*
X123158461Y-101425088D01*
X123260194Y-101397829D01*
X123351406Y-101345168D01*
X123425880Y-101270694D01*
X123478541Y-101179482D01*
X123505800Y-101077749D01*
X123505800Y-101071536D01*
X123968372Y-101534108D01*
X123968373Y-101534107D01*
X123991987Y-101498768D01*
X123991990Y-101498764D01*
X124067369Y-101316781D01*
X124067372Y-101316769D01*
X124105799Y-101123583D01*
X124105800Y-101123580D01*
X124105800Y-100926596D01*
X124105799Y-100926592D01*
X124067372Y-100733406D01*
X124067369Y-100733394D01*
X123991992Y-100551416D01*
X123968372Y-100516067D01*
X123505800Y-100978639D01*
X123505800Y-100972427D01*
X123478541Y-100870694D01*
X123425880Y-100779482D01*
X123351406Y-100705008D01*
X123260194Y-100652347D01*
X123158461Y-100625088D01*
X123152247Y-100625088D01*
X123614820Y-100162513D01*
X123614540Y-100159670D01*
X123617598Y-100143546D01*
X128026999Y-100143546D01*
X128053899Y-100278776D01*
X128053902Y-100278786D01*
X128106664Y-100406166D01*
X128106671Y-100406179D01*
X128183275Y-100520826D01*
X128280773Y-100618324D01*
X128395420Y-100694928D01*
X128395424Y-100694930D01*
X128477000Y-100728719D01*
X128477000Y-100241588D01*
X128486940Y-100258805D01*
X128542795Y-100314660D01*
X128611204Y-100354156D01*
X128687504Y-100374600D01*
X128766496Y-100374600D01*
X128842796Y-100354156D01*
X128911205Y-100314660D01*
X128967060Y-100258805D01*
X128977000Y-100241588D01*
X128977000Y-100728718D01*
X129058575Y-100694930D01*
X129058579Y-100694928D01*
X129173226Y-100618324D01*
X129270724Y-100520826D01*
X129347328Y-100406179D01*
X129347335Y-100406166D01*
X129400097Y-100278786D01*
X129400100Y-100278775D01*
X129416060Y-100198541D01*
X129448444Y-100136630D01*
X129509160Y-100102056D01*
X129578929Y-100105795D01*
X129635602Y-100146661D01*
X129657451Y-100190637D01*
X129667310Y-100227431D01*
X129667313Y-100227438D01*
X129736492Y-100347261D01*
X129736494Y-100347264D01*
X129736495Y-100347265D01*
X129834335Y-100445105D01*
X129954164Y-100514288D01*
X130087817Y-100550100D01*
X130087819Y-100550100D01*
X130226181Y-100550100D01*
X130226183Y-100550100D01*
X130359836Y-100514288D01*
X130479665Y-100445105D01*
X130577505Y-100347265D01*
X130646688Y-100227436D01*
X130682500Y-100093783D01*
X130682500Y-99955417D01*
X135411500Y-99955417D01*
X135411500Y-100093783D01*
X135439570Y-100198540D01*
X135447312Y-100227435D01*
X135447313Y-100227438D01*
X135516492Y-100347261D01*
X135516494Y-100347264D01*
X135516495Y-100347265D01*
X135614335Y-100445105D01*
X135734164Y-100514288D01*
X135867817Y-100550100D01*
X135867819Y-100550100D01*
X136006181Y-100550100D01*
X136006183Y-100550100D01*
X136139836Y-100514288D01*
X136259665Y-100445105D01*
X136357505Y-100347265D01*
X136426688Y-100227436D01*
X136436548Y-100190637D01*
X136472911Y-100130979D01*
X136535758Y-100100449D01*
X136605134Y-100108743D01*
X136659012Y-100153228D01*
X136677939Y-100198540D01*
X136693899Y-100278776D01*
X136693902Y-100278786D01*
X136746664Y-100406166D01*
X136746671Y-100406179D01*
X136823275Y-100520826D01*
X136920773Y-100618324D01*
X137035420Y-100694928D01*
X137035424Y-100694930D01*
X137117000Y-100728719D01*
X137117000Y-100241588D01*
X137126940Y-100258805D01*
X137182795Y-100314660D01*
X137251204Y-100354156D01*
X137327504Y-100374600D01*
X137406496Y-100374600D01*
X137482796Y-100354156D01*
X137551205Y-100314660D01*
X137607060Y-100258805D01*
X137617000Y-100241588D01*
X137617000Y-100728718D01*
X137698575Y-100694930D01*
X137698579Y-100694928D01*
X137813226Y-100618324D01*
X137910724Y-100520826D01*
X137987328Y-100406179D01*
X137987335Y-100406166D01*
X138040097Y-100278786D01*
X138040100Y-100278776D01*
X138067000Y-100143546D01*
X138067000Y-99774600D01*
X137667000Y-99774600D01*
X137667000Y-99274600D01*
X138067000Y-99274600D01*
X138067000Y-98905653D01*
X138040100Y-98770423D01*
X138040097Y-98770413D01*
X137987335Y-98643033D01*
X137987328Y-98643020D01*
X137910724Y-98528373D01*
X137813226Y-98430875D01*
X137698573Y-98354267D01*
X137617000Y-98320479D01*
X137617000Y-98807611D01*
X137607060Y-98790395D01*
X137551205Y-98734540D01*
X137482796Y-98695044D01*
X137406496Y-98674600D01*
X137327504Y-98674600D01*
X137251204Y-98695044D01*
X137182795Y-98734540D01*
X137126940Y-98790395D01*
X137117000Y-98807611D01*
X137117000Y-98320479D01*
X137116999Y-98320479D01*
X137035426Y-98354267D01*
X136920773Y-98430875D01*
X136823275Y-98528373D01*
X136746671Y-98643020D01*
X136746664Y-98643033D01*
X136693902Y-98770413D01*
X136693899Y-98770423D01*
X136667000Y-98905653D01*
X136667000Y-99274600D01*
X137067000Y-99274600D01*
X137067000Y-99774600D01*
X136667000Y-99774600D01*
X136667000Y-99778538D01*
X136647315Y-99845577D01*
X136594511Y-99891332D01*
X136525353Y-99901276D01*
X136461797Y-99872251D01*
X136428440Y-99825992D01*
X136426690Y-99821767D01*
X136357507Y-99701938D01*
X136357503Y-99701933D01*
X136259666Y-99604096D01*
X136259661Y-99604092D01*
X136139838Y-99534913D01*
X136139837Y-99534912D01*
X136139836Y-99534912D01*
X136006183Y-99499100D01*
X135867817Y-99499100D01*
X135734164Y-99534912D01*
X135734161Y-99534913D01*
X135614338Y-99604092D01*
X135614333Y-99604096D01*
X135516496Y-99701933D01*
X135516492Y-99701938D01*
X135447313Y-99821761D01*
X135447312Y-99821764D01*
X135411500Y-99955417D01*
X130682500Y-99955417D01*
X130646688Y-99821764D01*
X130577505Y-99701935D01*
X130479665Y-99604095D01*
X130479664Y-99604094D01*
X130479661Y-99604092D01*
X130359838Y-99534913D01*
X130359837Y-99534912D01*
X130359836Y-99534912D01*
X130226183Y-99499100D01*
X130087817Y-99499100D01*
X129954164Y-99534912D01*
X129954161Y-99534913D01*
X129834338Y-99604092D01*
X129834333Y-99604096D01*
X129736496Y-99701933D01*
X129736492Y-99701938D01*
X129667309Y-99821767D01*
X129665560Y-99825992D01*
X129621718Y-99880395D01*
X129555424Y-99902459D01*
X129487725Y-99885179D01*
X129440115Y-99834041D01*
X129427000Y-99778538D01*
X129427000Y-99774600D01*
X129027000Y-99774600D01*
X129027000Y-99274600D01*
X129427000Y-99274600D01*
X129427000Y-98905653D01*
X129400100Y-98770423D01*
X129400097Y-98770413D01*
X129347335Y-98643033D01*
X129347328Y-98643020D01*
X129270724Y-98528373D01*
X129173226Y-98430875D01*
X129058573Y-98354267D01*
X128977000Y-98320479D01*
X128977000Y-98807611D01*
X128967060Y-98790395D01*
X128911205Y-98734540D01*
X128842796Y-98695044D01*
X128766496Y-98674600D01*
X128687504Y-98674600D01*
X128611204Y-98695044D01*
X128542795Y-98734540D01*
X128486940Y-98790395D01*
X128477000Y-98807611D01*
X128477000Y-98320479D01*
X128476999Y-98320479D01*
X128395426Y-98354267D01*
X128280773Y-98430875D01*
X128183275Y-98528373D01*
X128106671Y-98643020D01*
X128106664Y-98643033D01*
X128053902Y-98770413D01*
X128053899Y-98770423D01*
X128027000Y-98905653D01*
X128027000Y-99274600D01*
X128427000Y-99274600D01*
X128427000Y-99774600D01*
X128027000Y-99774600D01*
X128027000Y-100143546D01*
X128026999Y-100143546D01*
X123617598Y-100143546D01*
X123627559Y-100091024D01*
X123675625Y-100040314D01*
X123726366Y-100024059D01*
X123740499Y-100022734D01*
X123740501Y-100022733D01*
X123740503Y-100022733D01*
X123787094Y-100006429D01*
X123868682Y-99977881D01*
X123977950Y-99897238D01*
X124058593Y-99787970D01*
X124088699Y-99701933D01*
X124095575Y-99682283D01*
X124103446Y-99659789D01*
X124103446Y-99659787D01*
X124106300Y-99629357D01*
X124106300Y-98420818D01*
X124103446Y-98390388D01*
X124103446Y-98390386D01*
X124058593Y-98262207D01*
X124058592Y-98262205D01*
X123977950Y-98152938D01*
X123868682Y-98072295D01*
X123868680Y-98072294D01*
X123740500Y-98027441D01*
X123710070Y-98024588D01*
X123710066Y-98024588D01*
X122501534Y-98024588D01*
X122501530Y-98024588D01*
X122471100Y-98027441D01*
X122471098Y-98027441D01*
X122342919Y-98072294D01*
X122342917Y-98072295D01*
X122233650Y-98152938D01*
X122153007Y-98262205D01*
X122153006Y-98262207D01*
X122108153Y-98390386D01*
X122108153Y-98390388D01*
X122105300Y-98420818D01*
X64514300Y-98420818D01*
X64514300Y-97586925D01*
X130108900Y-97586925D01*
X130108900Y-97731875D01*
X130146416Y-97871885D01*
X130146417Y-97871888D01*
X130218888Y-97997411D01*
X130218890Y-97997413D01*
X130218891Y-97997415D01*
X130321385Y-98099909D01*
X130321386Y-98099910D01*
X130321388Y-98099911D01*
X130446911Y-98172382D01*
X130446912Y-98172382D01*
X130446915Y-98172384D01*
X130586925Y-98209900D01*
X130586928Y-98209900D01*
X130731872Y-98209900D01*
X130731875Y-98209900D01*
X130871885Y-98172384D01*
X130997415Y-98099909D01*
X131074106Y-98023218D01*
X131135430Y-97989734D01*
X131161787Y-97986900D01*
X134957613Y-97986900D01*
X135024652Y-98006585D01*
X135045294Y-98023218D01*
X135121985Y-98099909D01*
X135121987Y-98099910D01*
X135121988Y-98099911D01*
X135247511Y-98172382D01*
X135247512Y-98172382D01*
X135247515Y-98172384D01*
X135387525Y-98209900D01*
X135387528Y-98209900D01*
X135532472Y-98209900D01*
X135532475Y-98209900D01*
X135672485Y-98172384D01*
X135798015Y-98099909D01*
X135900509Y-97997415D01*
X135972984Y-97871885D01*
X136010500Y-97731875D01*
X136010500Y-97586925D01*
X135972984Y-97446915D01*
X135900509Y-97321385D01*
X135798015Y-97218891D01*
X135798013Y-97218890D01*
X135798011Y-97218888D01*
X135672488Y-97146417D01*
X135672489Y-97146417D01*
X135661006Y-97143340D01*
X135532475Y-97108900D01*
X135387525Y-97108900D01*
X135258993Y-97143340D01*
X135247511Y-97146417D01*
X135121988Y-97218888D01*
X135045294Y-97295582D01*
X134983970Y-97329066D01*
X134957613Y-97331900D01*
X131161787Y-97331900D01*
X131094748Y-97312215D01*
X131074106Y-97295582D01*
X130997415Y-97218891D01*
X130997412Y-97218889D01*
X130997411Y-97218888D01*
X130871888Y-97146417D01*
X130871889Y-97146417D01*
X130860406Y-97143340D01*
X130731875Y-97108900D01*
X130586925Y-97108900D01*
X130458393Y-97143340D01*
X130446911Y-97146417D01*
X130321388Y-97218888D01*
X130321382Y-97218893D01*
X130218893Y-97321382D01*
X130218888Y-97321388D01*
X130146417Y-97446911D01*
X130146416Y-97446915D01*
X130108900Y-97586925D01*
X64514300Y-97586925D01*
X64514300Y-85979125D01*
X76159300Y-85979125D01*
X76159300Y-86124075D01*
X76196816Y-86264085D01*
X76196817Y-86264088D01*
X76269288Y-86389611D01*
X76269290Y-86389613D01*
X76269291Y-86389615D01*
X76371785Y-86492109D01*
X76371786Y-86492110D01*
X76371788Y-86492111D01*
X76497311Y-86564582D01*
X76497312Y-86564582D01*
X76497315Y-86564584D01*
X76637325Y-86602100D01*
X76637328Y-86602100D01*
X76745783Y-86602100D01*
X76812822Y-86621785D01*
X76833464Y-86638419D01*
X85246310Y-95051265D01*
X85320990Y-95094381D01*
X85404284Y-95116700D01*
X85490516Y-95116700D01*
X117914213Y-95116700D01*
X117981252Y-95136385D01*
X118001894Y-95153018D01*
X118078585Y-95229709D01*
X118078587Y-95229710D01*
X118078588Y-95229711D01*
X118204111Y-95302182D01*
X118204112Y-95302182D01*
X118204115Y-95302184D01*
X118344125Y-95339700D01*
X118344128Y-95339700D01*
X118489072Y-95339700D01*
X118489075Y-95339700D01*
X118629085Y-95302184D01*
X118754615Y-95229709D01*
X118808305Y-95176019D01*
X118869628Y-95142534D01*
X118895986Y-95139700D01*
X122119692Y-95139700D01*
X122119694Y-95139700D01*
X122208838Y-95115814D01*
X122219462Y-95109680D01*
X122288762Y-95069670D01*
X129667020Y-87691412D01*
X129713164Y-87611488D01*
X129737050Y-87522344D01*
X129737050Y-87430056D01*
X129737050Y-83943036D01*
X129756735Y-83875997D01*
X129773369Y-83855355D01*
X129783468Y-83845256D01*
X129827059Y-83801665D01*
X129899534Y-83676135D01*
X129937050Y-83536125D01*
X129937050Y-83391175D01*
X129899534Y-83251165D01*
X129869726Y-83199537D01*
X129827061Y-83125638D01*
X129827056Y-83125632D01*
X129724567Y-83023143D01*
X129724561Y-83023138D01*
X129599038Y-82950667D01*
X129599039Y-82950667D01*
X129587556Y-82947590D01*
X129459025Y-82913150D01*
X129459022Y-82913150D01*
X129383094Y-82913150D01*
X129316055Y-82893465D01*
X129295413Y-82876831D01*
X126398019Y-79979437D01*
X126364534Y-79918114D01*
X126361700Y-79891756D01*
X126361700Y-62097530D01*
X146982500Y-62097530D01*
X146982500Y-62304469D01*
X147022868Y-62507412D01*
X147022870Y-62507420D01*
X147102059Y-62698598D01*
X147121127Y-62727135D01*
X147217024Y-62870657D01*
X147363342Y-63016975D01*
X147363345Y-63016977D01*
X147535402Y-63131941D01*
X147726580Y-63211130D01*
X147929530Y-63251499D01*
X147929534Y-63251500D01*
X147929535Y-63251500D01*
X148136466Y-63251500D01*
X148136467Y-63251499D01*
X148339420Y-63211130D01*
X148530598Y-63131941D01*
X148702655Y-63016977D01*
X148848977Y-62870655D01*
X148963941Y-62698598D01*
X149043130Y-62507420D01*
X149083500Y-62304465D01*
X149083500Y-62097535D01*
X149043130Y-61894580D01*
X148963941Y-61703402D01*
X148848977Y-61531345D01*
X148848975Y-61531342D01*
X148702657Y-61385024D01*
X148584551Y-61306109D01*
X148530598Y-61270059D01*
X148339420Y-61190870D01*
X148339412Y-61190868D01*
X148136469Y-61150500D01*
X148136465Y-61150500D01*
X147929535Y-61150500D01*
X147929530Y-61150500D01*
X147726587Y-61190868D01*
X147726579Y-61190870D01*
X147535403Y-61270058D01*
X147363342Y-61385024D01*
X147217024Y-61531342D01*
X147102058Y-61703403D01*
X147022870Y-61894579D01*
X147022868Y-61894587D01*
X146982500Y-62097530D01*
X126361700Y-62097530D01*
X126361700Y-59557530D01*
X146982500Y-59557530D01*
X146982500Y-59764469D01*
X147022868Y-59967412D01*
X147022870Y-59967420D01*
X147102058Y-60158596D01*
X147217024Y-60330657D01*
X147363342Y-60476975D01*
X147363345Y-60476977D01*
X147535402Y-60591941D01*
X147726580Y-60671130D01*
X147875667Y-60700785D01*
X147929530Y-60711499D01*
X147929534Y-60711500D01*
X147929535Y-60711500D01*
X148136466Y-60711500D01*
X148136467Y-60711499D01*
X148339420Y-60671130D01*
X148530598Y-60591941D01*
X148702655Y-60476977D01*
X148848977Y-60330655D01*
X148963941Y-60158598D01*
X149043130Y-59967420D01*
X149083500Y-59764465D01*
X149083500Y-59557535D01*
X149043130Y-59354580D01*
X148963941Y-59163402D01*
X148848977Y-58991345D01*
X148848975Y-58991342D01*
X148702657Y-58845024D01*
X148616626Y-58787541D01*
X148530598Y-58730059D01*
X148339420Y-58650870D01*
X148339412Y-58650868D01*
X148136469Y-58610500D01*
X148136465Y-58610500D01*
X147929535Y-58610500D01*
X147929530Y-58610500D01*
X147726587Y-58650868D01*
X147726579Y-58650870D01*
X147535403Y-58730058D01*
X147363342Y-58845024D01*
X147217024Y-58991342D01*
X147102058Y-59163403D01*
X147022870Y-59354579D01*
X147022868Y-59354587D01*
X146982500Y-59557530D01*
X126361700Y-59557530D01*
X126361700Y-57574986D01*
X126381385Y-57507947D01*
X126398019Y-57487305D01*
X126410770Y-57474554D01*
X126451709Y-57433615D01*
X126524184Y-57308085D01*
X126561700Y-57168075D01*
X126561700Y-57092143D01*
X126570344Y-57062702D01*
X126576868Y-57032716D01*
X126580622Y-57027700D01*
X126581385Y-57025104D01*
X126587449Y-57017579D01*
X146983000Y-57017579D01*
X146983000Y-57224420D01*
X147023348Y-57427266D01*
X147023350Y-57427274D01*
X147102500Y-57618359D01*
X147134377Y-57666067D01*
X147134378Y-57666067D01*
X147550037Y-57250408D01*
X147567075Y-57313993D01*
X147632901Y-57428007D01*
X147725993Y-57521099D01*
X147840007Y-57586925D01*
X147903590Y-57603962D01*
X147487931Y-58019620D01*
X147487932Y-58019621D01*
X147535633Y-58051495D01*
X147535639Y-58051498D01*
X147726725Y-58130649D01*
X147726733Y-58130651D01*
X147929579Y-58170999D01*
X147929583Y-58171000D01*
X148136417Y-58171000D01*
X148136420Y-58170999D01*
X148339266Y-58130651D01*
X148339274Y-58130649D01*
X148530366Y-58051495D01*
X148578066Y-58019621D01*
X148578067Y-58019620D01*
X148162409Y-57603962D01*
X148225993Y-57586925D01*
X148340007Y-57521099D01*
X148433099Y-57428007D01*
X148498925Y-57313993D01*
X148515962Y-57250409D01*
X148931620Y-57666067D01*
X148931621Y-57666066D01*
X148963495Y-57618366D01*
X149042649Y-57427274D01*
X149042651Y-57427266D01*
X149082999Y-57224420D01*
X149083000Y-57224417D01*
X149083000Y-57017583D01*
X149082999Y-57017579D01*
X149042651Y-56814733D01*
X149042649Y-56814725D01*
X148963498Y-56623639D01*
X148963495Y-56623633D01*
X148931621Y-56575932D01*
X148931620Y-56575931D01*
X148515962Y-56991590D01*
X148498925Y-56928007D01*
X148433099Y-56813993D01*
X148340007Y-56720901D01*
X148225993Y-56655075D01*
X148162409Y-56638037D01*
X148578067Y-56222378D01*
X148578067Y-56222377D01*
X148530359Y-56190500D01*
X148339274Y-56111350D01*
X148339266Y-56111348D01*
X148136420Y-56071000D01*
X147929579Y-56071000D01*
X147726733Y-56111348D01*
X147726725Y-56111350D01*
X147535641Y-56190500D01*
X147535631Y-56190505D01*
X147487932Y-56222377D01*
X147487932Y-56222378D01*
X147903591Y-56638037D01*
X147840007Y-56655075D01*
X147725993Y-56720901D01*
X147632901Y-56813993D01*
X147567075Y-56928007D01*
X147550037Y-56991591D01*
X147134378Y-56575932D01*
X147134377Y-56575932D01*
X147102505Y-56623631D01*
X147102500Y-56623641D01*
X147023350Y-56814725D01*
X147023348Y-56814733D01*
X146983000Y-57017579D01*
X126587449Y-57017579D01*
X126598019Y-57004462D01*
X128634662Y-54967819D01*
X128695985Y-54934334D01*
X128722343Y-54931500D01*
X146858500Y-54931500D01*
X146925539Y-54951185D01*
X146971294Y-55003989D01*
X146982500Y-55055500D01*
X146982500Y-55450752D01*
X146994131Y-55509229D01*
X146994132Y-55509230D01*
X147038447Y-55575552D01*
X147104769Y-55619867D01*
X147104770Y-55619868D01*
X147163247Y-55631499D01*
X147163250Y-55631500D01*
X147163252Y-55631500D01*
X148902750Y-55631500D01*
X148902751Y-55631499D01*
X148917568Y-55628552D01*
X148961229Y-55619868D01*
X148961229Y-55619867D01*
X148961231Y-55619867D01*
X149027552Y-55575552D01*
X149071867Y-55509231D01*
X149071867Y-55509229D01*
X149071868Y-55509229D01*
X149083499Y-55450752D01*
X149083500Y-55450750D01*
X149083500Y-53711249D01*
X149083499Y-53711247D01*
X149071868Y-53652770D01*
X149071867Y-53652769D01*
X149027552Y-53586447D01*
X148961230Y-53542132D01*
X148961229Y-53542131D01*
X148902752Y-53530500D01*
X148902748Y-53530500D01*
X147163252Y-53530500D01*
X147163247Y-53530500D01*
X147104770Y-53542131D01*
X147104769Y-53542132D01*
X147038447Y-53586447D01*
X146994132Y-53652769D01*
X146994131Y-53652770D01*
X146982500Y-53711247D01*
X146982500Y-54106500D01*
X146962815Y-54173539D01*
X146910011Y-54219294D01*
X146858500Y-54230500D01*
X128479656Y-54230500D01*
X128390512Y-54254386D01*
X128390511Y-54254386D01*
X128390509Y-54254387D01*
X128390506Y-54254388D01*
X128310594Y-54300526D01*
X128310585Y-54300533D01*
X126102337Y-56508781D01*
X126041014Y-56542266D01*
X126014656Y-56545100D01*
X125938725Y-56545100D01*
X125823660Y-56575932D01*
X125798711Y-56582617D01*
X125673188Y-56655088D01*
X125673182Y-56655093D01*
X125570693Y-56757582D01*
X125570688Y-56757588D01*
X125498217Y-56883111D01*
X125498216Y-56883115D01*
X125460700Y-57023125D01*
X125460700Y-57168075D01*
X125475798Y-57224420D01*
X125498217Y-57308088D01*
X125570688Y-57433611D01*
X125570693Y-57433617D01*
X125624381Y-57487305D01*
X125657866Y-57548628D01*
X125660700Y-57574986D01*
X125660700Y-80134445D01*
X125671700Y-80175500D01*
X125671701Y-80175500D01*
X125684586Y-80223589D01*
X125684587Y-80223590D01*
X125730727Y-80303508D01*
X125730731Y-80303513D01*
X128799731Y-83372513D01*
X128833216Y-83433836D01*
X128836050Y-83460194D01*
X128836050Y-83536125D01*
X128873566Y-83676135D01*
X128873567Y-83676138D01*
X128946038Y-83801661D01*
X128946043Y-83801667D01*
X128999731Y-83855355D01*
X129033216Y-83916678D01*
X129036050Y-83943036D01*
X129036050Y-87279656D01*
X129016365Y-87346695D01*
X128999731Y-87367337D01*
X121964687Y-94402381D01*
X121903364Y-94435866D01*
X121877006Y-94438700D01*
X118895986Y-94438700D01*
X118828947Y-94419015D01*
X118808305Y-94402381D01*
X118754617Y-94348693D01*
X118754611Y-94348688D01*
X118629088Y-94276217D01*
X118629089Y-94276217D01*
X118617606Y-94273140D01*
X118489075Y-94238700D01*
X118344125Y-94238700D01*
X118215593Y-94273140D01*
X118204111Y-94276217D01*
X118078588Y-94348688D01*
X118001894Y-94425382D01*
X117940570Y-94458866D01*
X117914213Y-94461700D01*
X85634417Y-94461700D01*
X85567378Y-94442015D01*
X85546736Y-94425381D01*
X82053480Y-90932125D01*
X113878300Y-90932125D01*
X113878300Y-91077075D01*
X113915816Y-91217085D01*
X113915817Y-91217088D01*
X113988288Y-91342611D01*
X113988290Y-91342613D01*
X113988291Y-91342615D01*
X114090785Y-91445109D01*
X114090786Y-91445110D01*
X114090788Y-91445111D01*
X114216311Y-91517582D01*
X114216312Y-91517582D01*
X114216315Y-91517584D01*
X114356325Y-91555100D01*
X114356328Y-91555100D01*
X114501272Y-91555100D01*
X114501275Y-91555100D01*
X114641285Y-91517584D01*
X114766815Y-91445109D01*
X114869309Y-91342615D01*
X114941784Y-91217085D01*
X114953323Y-91174021D01*
X114989687Y-91114362D01*
X115052534Y-91083833D01*
X115121909Y-91092128D01*
X115175787Y-91136613D01*
X115192870Y-91174017D01*
X115204410Y-91217085D01*
X115211217Y-91242488D01*
X115283688Y-91368011D01*
X115283690Y-91368013D01*
X115283691Y-91368015D01*
X115386185Y-91470509D01*
X115386186Y-91470510D01*
X115386188Y-91470511D01*
X115511711Y-91542982D01*
X115511712Y-91542982D01*
X115511715Y-91542984D01*
X115651725Y-91580500D01*
X115651728Y-91580500D01*
X115796672Y-91580500D01*
X115796675Y-91580500D01*
X115936685Y-91542984D01*
X116062215Y-91470509D01*
X116164709Y-91368015D01*
X116237184Y-91242485D01*
X116274700Y-91102475D01*
X116274700Y-91026544D01*
X116294385Y-90959505D01*
X116311019Y-90938863D01*
X119970226Y-87279656D01*
X123726269Y-83523613D01*
X123772414Y-83443688D01*
X123783774Y-83401291D01*
X123796300Y-83354544D01*
X123796300Y-52037786D01*
X123815985Y-51970747D01*
X123832619Y-51950105D01*
X123847052Y-51935672D01*
X123886309Y-51896415D01*
X123947329Y-51790725D01*
X132648900Y-51790725D01*
X132648900Y-51935675D01*
X132676261Y-52037786D01*
X132686417Y-52075688D01*
X132758888Y-52201211D01*
X132758890Y-52201213D01*
X132758891Y-52201215D01*
X132861385Y-52303709D01*
X132861386Y-52303710D01*
X132861388Y-52303711D01*
X132986911Y-52376182D01*
X132986912Y-52376182D01*
X132986915Y-52376184D01*
X133126925Y-52413700D01*
X133126928Y-52413700D01*
X133271872Y-52413700D01*
X133271875Y-52413700D01*
X133411885Y-52376184D01*
X133537415Y-52303709D01*
X133639909Y-52201215D01*
X133712384Y-52075685D01*
X133749900Y-51935675D01*
X133749900Y-51859743D01*
X133769585Y-51792704D01*
X133786219Y-51772062D01*
X135830502Y-49727779D01*
X146983000Y-49727779D01*
X146983000Y-49934620D01*
X147023348Y-50137466D01*
X147023350Y-50137474D01*
X147102500Y-50328559D01*
X147134377Y-50376267D01*
X147134378Y-50376267D01*
X147550037Y-49960608D01*
X147567075Y-50024193D01*
X147632901Y-50138207D01*
X147725993Y-50231299D01*
X147840007Y-50297125D01*
X147903590Y-50314162D01*
X147487931Y-50729820D01*
X147487932Y-50729821D01*
X147535633Y-50761695D01*
X147535639Y-50761698D01*
X147726725Y-50840849D01*
X147726733Y-50840851D01*
X147929579Y-50881199D01*
X147929583Y-50881200D01*
X148136417Y-50881200D01*
X148136420Y-50881199D01*
X148339266Y-50840851D01*
X148339274Y-50840849D01*
X148530366Y-50761695D01*
X148578066Y-50729821D01*
X148578067Y-50729820D01*
X148162409Y-50314162D01*
X148225993Y-50297125D01*
X148340007Y-50231299D01*
X148433099Y-50138207D01*
X148498925Y-50024193D01*
X148515962Y-49960609D01*
X148931620Y-50376267D01*
X148931621Y-50376266D01*
X148963495Y-50328566D01*
X149042649Y-50137474D01*
X149042651Y-50137466D01*
X149082999Y-49934620D01*
X149083000Y-49934617D01*
X149083000Y-49727783D01*
X149082999Y-49727779D01*
X149042651Y-49524933D01*
X149042649Y-49524925D01*
X148963498Y-49333839D01*
X148963495Y-49333833D01*
X148931621Y-49286132D01*
X148931620Y-49286131D01*
X148515962Y-49701790D01*
X148498925Y-49638207D01*
X148433099Y-49524193D01*
X148340007Y-49431101D01*
X148225993Y-49365275D01*
X148162409Y-49348237D01*
X148578067Y-48932578D01*
X148578067Y-48932577D01*
X148530359Y-48900700D01*
X148339274Y-48821550D01*
X148339266Y-48821548D01*
X148136420Y-48781200D01*
X147929579Y-48781200D01*
X147726733Y-48821548D01*
X147726725Y-48821550D01*
X147535641Y-48900700D01*
X147535631Y-48900705D01*
X147487932Y-48932577D01*
X147487932Y-48932578D01*
X147903591Y-49348237D01*
X147840007Y-49365275D01*
X147725993Y-49431101D01*
X147632901Y-49524193D01*
X147567075Y-49638207D01*
X147550037Y-49701791D01*
X147134378Y-49286132D01*
X147134377Y-49286132D01*
X147102505Y-49333831D01*
X147102500Y-49333841D01*
X147023350Y-49524925D01*
X147023348Y-49524933D01*
X146983000Y-49727779D01*
X135830502Y-49727779D01*
X138370551Y-47187730D01*
X146982500Y-47187730D01*
X146982500Y-47394669D01*
X147022868Y-47597612D01*
X147022870Y-47597620D01*
X147097389Y-47777525D01*
X147102059Y-47788798D01*
X147119777Y-47815315D01*
X147217024Y-47960857D01*
X147363342Y-48107175D01*
X147363345Y-48107177D01*
X147535402Y-48222141D01*
X147726580Y-48301330D01*
X147929530Y-48341699D01*
X147929534Y-48341700D01*
X147929535Y-48341700D01*
X148136466Y-48341700D01*
X148136467Y-48341699D01*
X148339420Y-48301330D01*
X148530598Y-48222141D01*
X148702655Y-48107177D01*
X148848977Y-47960855D01*
X148963941Y-47788798D01*
X149043130Y-47597620D01*
X149083500Y-47394665D01*
X149083500Y-47187735D01*
X149043130Y-46984780D01*
X148963941Y-46793602D01*
X148848977Y-46621545D01*
X148848975Y-46621542D01*
X148702657Y-46475224D01*
X148596759Y-46404466D01*
X148530598Y-46360259D01*
X148426857Y-46317288D01*
X148339420Y-46281070D01*
X148339412Y-46281068D01*
X148136469Y-46240700D01*
X148136465Y-46240700D01*
X147929535Y-46240700D01*
X147929530Y-46240700D01*
X147726587Y-46281068D01*
X147726579Y-46281070D01*
X147535403Y-46360258D01*
X147363342Y-46475224D01*
X147217024Y-46621542D01*
X147102058Y-46793603D01*
X147022870Y-46984779D01*
X147022868Y-46984787D01*
X146982500Y-47187730D01*
X138370551Y-47187730D01*
X138464319Y-47093962D01*
X139244965Y-46313316D01*
X140058469Y-45499812D01*
X140104614Y-45419888D01*
X140105580Y-45416284D01*
X140128500Y-45330744D01*
X140128500Y-44647730D01*
X146982500Y-44647730D01*
X146982500Y-44854669D01*
X147022868Y-45057612D01*
X147022870Y-45057620D01*
X147102058Y-45248796D01*
X147217024Y-45420857D01*
X147363342Y-45567175D01*
X147363345Y-45567177D01*
X147535402Y-45682141D01*
X147726580Y-45761330D01*
X147929530Y-45801699D01*
X147929534Y-45801700D01*
X147929535Y-45801700D01*
X148136466Y-45801700D01*
X148136467Y-45801699D01*
X148339420Y-45761330D01*
X148530598Y-45682141D01*
X148702655Y-45567177D01*
X148848977Y-45420855D01*
X148963941Y-45248798D01*
X149043130Y-45057620D01*
X149083500Y-44854665D01*
X149083500Y-44647735D01*
X149043130Y-44444780D01*
X148963941Y-44253602D01*
X148848977Y-44081545D01*
X148848975Y-44081542D01*
X148702657Y-43935224D01*
X148596759Y-43864466D01*
X148530598Y-43820259D01*
X148426857Y-43777288D01*
X148339420Y-43741070D01*
X148339412Y-43741068D01*
X148136469Y-43700700D01*
X148136465Y-43700700D01*
X147929535Y-43700700D01*
X147929530Y-43700700D01*
X147726587Y-43741068D01*
X147726579Y-43741070D01*
X147535403Y-43820258D01*
X147363342Y-43935224D01*
X147217024Y-44081542D01*
X147102058Y-44253603D01*
X147022870Y-44444779D01*
X147022868Y-44444787D01*
X146982500Y-44647730D01*
X140128500Y-44647730D01*
X140128500Y-41341447D01*
X146982500Y-41341447D01*
X146982500Y-43080952D01*
X146994131Y-43139429D01*
X146994132Y-43139430D01*
X147038447Y-43205752D01*
X147104769Y-43250067D01*
X147104770Y-43250068D01*
X147163247Y-43261699D01*
X147163250Y-43261700D01*
X147163252Y-43261700D01*
X148902750Y-43261700D01*
X148902751Y-43261699D01*
X148917568Y-43258752D01*
X148961229Y-43250068D01*
X148961229Y-43250067D01*
X148961231Y-43250067D01*
X149027552Y-43205752D01*
X149071867Y-43139431D01*
X149071867Y-43139429D01*
X149071868Y-43139429D01*
X149083499Y-43080952D01*
X149083500Y-43080950D01*
X149083500Y-41341449D01*
X149083499Y-41341447D01*
X149071868Y-41282970D01*
X149071867Y-41282969D01*
X149027552Y-41216647D01*
X148961230Y-41172332D01*
X148961229Y-41172331D01*
X148902752Y-41160700D01*
X148902748Y-41160700D01*
X147163252Y-41160700D01*
X147163247Y-41160700D01*
X147104770Y-41172331D01*
X147104769Y-41172332D01*
X147038447Y-41216647D01*
X146994132Y-41282969D01*
X146994131Y-41282970D01*
X146982500Y-41341447D01*
X140128500Y-41341447D01*
X140128500Y-38829786D01*
X140148185Y-38762747D01*
X140164819Y-38742105D01*
X140218509Y-38688415D01*
X140290984Y-38562885D01*
X140328500Y-38422875D01*
X140328500Y-38277925D01*
X140290984Y-38137915D01*
X140218509Y-38012385D01*
X140116015Y-37909891D01*
X140116013Y-37909890D01*
X140116011Y-37909888D01*
X139990488Y-37837417D01*
X139990489Y-37837417D01*
X139979006Y-37834340D01*
X139850475Y-37799900D01*
X139705525Y-37799900D01*
X139576993Y-37834340D01*
X139565511Y-37837417D01*
X139439988Y-37909888D01*
X139439982Y-37909893D01*
X139337493Y-38012382D01*
X139337488Y-38012388D01*
X139265017Y-38137911D01*
X139265016Y-38137915D01*
X139227500Y-38277925D01*
X139227500Y-38422875D01*
X139265016Y-38562885D01*
X139265017Y-38562888D01*
X139337488Y-38688411D01*
X139337493Y-38688417D01*
X139391181Y-38742105D01*
X139424666Y-38803428D01*
X139427500Y-38829786D01*
X139427500Y-45088056D01*
X139407815Y-45155095D01*
X139391181Y-45175737D01*
X133290537Y-51276381D01*
X133229214Y-51309866D01*
X133202856Y-51312700D01*
X133126925Y-51312700D01*
X133002981Y-51345911D01*
X132986911Y-51350217D01*
X132861388Y-51422688D01*
X132861382Y-51422693D01*
X132758893Y-51525182D01*
X132758888Y-51525188D01*
X132686417Y-51650711D01*
X132686416Y-51650715D01*
X132648900Y-51790725D01*
X123947329Y-51790725D01*
X123958784Y-51770885D01*
X123996300Y-51630875D01*
X123996300Y-51485925D01*
X123958784Y-51345915D01*
X123939607Y-51312700D01*
X123886311Y-51220388D01*
X123886306Y-51220382D01*
X123783817Y-51117893D01*
X123783811Y-51117888D01*
X123658288Y-51045417D01*
X123658289Y-51045417D01*
X123634430Y-51039024D01*
X123518275Y-51007900D01*
X123373325Y-51007900D01*
X123257170Y-51039024D01*
X123233311Y-51045417D01*
X123107788Y-51117888D01*
X123107782Y-51117893D01*
X123005293Y-51220382D01*
X123005288Y-51220388D01*
X122932817Y-51345911D01*
X122932815Y-51345916D01*
X122930574Y-51354281D01*
X122894209Y-51413941D01*
X122831361Y-51444469D01*
X122761986Y-51436174D01*
X122708109Y-51391688D01*
X122691026Y-51354281D01*
X122688784Y-51345916D01*
X122688782Y-51345911D01*
X122616311Y-51220388D01*
X122616306Y-51220382D01*
X122513817Y-51117893D01*
X122513811Y-51117888D01*
X122388288Y-51045417D01*
X122388289Y-51045417D01*
X122364430Y-51039024D01*
X122248275Y-51007900D01*
X122103325Y-51007900D01*
X121987170Y-51039024D01*
X121963311Y-51045417D01*
X121837788Y-51117888D01*
X121837782Y-51117893D01*
X121735293Y-51220382D01*
X121735288Y-51220388D01*
X121662817Y-51345911D01*
X121661663Y-51350217D01*
X121625300Y-51485925D01*
X121625300Y-51630875D01*
X121660575Y-51762520D01*
X121662817Y-51770888D01*
X121735288Y-51896411D01*
X121735293Y-51896417D01*
X121788981Y-51950105D01*
X121822466Y-52011428D01*
X121825300Y-52037786D01*
X121825300Y-83061056D01*
X121805615Y-83128095D01*
X121788981Y-83148737D01*
X114519937Y-90417781D01*
X114458614Y-90451266D01*
X114432256Y-90454100D01*
X114356325Y-90454100D01*
X114227793Y-90488540D01*
X114216311Y-90491617D01*
X114090788Y-90564088D01*
X114090782Y-90564093D01*
X113988293Y-90666582D01*
X113988288Y-90666588D01*
X113915817Y-90792111D01*
X113915816Y-90792115D01*
X113878300Y-90932125D01*
X82053480Y-90932125D01*
X77296619Y-86175264D01*
X77263134Y-86113941D01*
X77260300Y-86087583D01*
X77260300Y-85979127D01*
X77260300Y-85979125D01*
X77222784Y-85839115D01*
X77150309Y-85713585D01*
X77047815Y-85611091D01*
X77047813Y-85611090D01*
X77047811Y-85611088D01*
X76922288Y-85538617D01*
X76922289Y-85538617D01*
X76910806Y-85535540D01*
X76782275Y-85501100D01*
X76637325Y-85501100D01*
X76508793Y-85535540D01*
X76497311Y-85538617D01*
X76371788Y-85611088D01*
X76371782Y-85611093D01*
X76269293Y-85713582D01*
X76269288Y-85713588D01*
X76196817Y-85839111D01*
X76196816Y-85839115D01*
X76159300Y-85979125D01*
X64514300Y-85979125D01*
X64514300Y-83769325D01*
X78724700Y-83769325D01*
X78724700Y-83914275D01*
X78729701Y-83932937D01*
X78762217Y-84054288D01*
X78834688Y-84179811D01*
X78834690Y-84179813D01*
X78834691Y-84179815D01*
X78937185Y-84282309D01*
X78937186Y-84282310D01*
X78937188Y-84282311D01*
X79062711Y-84354782D01*
X79062712Y-84354782D01*
X79062715Y-84354784D01*
X79202725Y-84392300D01*
X79278656Y-84392300D01*
X79345695Y-84411985D01*
X79366337Y-84428619D01*
X79759987Y-84822269D01*
X79839912Y-84868414D01*
X79929056Y-84892300D01*
X79929058Y-84892300D01*
X85428542Y-84892300D01*
X85428544Y-84892300D01*
X85517688Y-84868414D01*
X85597612Y-84822270D01*
X90573964Y-79845918D01*
X92244700Y-79845918D01*
X92244700Y-81054457D01*
X92247553Y-81084887D01*
X92247553Y-81084889D01*
X92292406Y-81213068D01*
X92292407Y-81213070D01*
X92373050Y-81322338D01*
X92482318Y-81402981D01*
X92523111Y-81417255D01*
X92610496Y-81447833D01*
X92610498Y-81447833D01*
X92610501Y-81447834D01*
X92624632Y-81449159D01*
X92689538Y-81475014D01*
X92730165Y-81531858D01*
X92736458Y-81584770D01*
X92736177Y-81587613D01*
X93198754Y-82050188D01*
X93192539Y-82050188D01*
X93090806Y-82077447D01*
X92999594Y-82130108D01*
X92925120Y-82204582D01*
X92872459Y-82295794D01*
X92845200Y-82397527D01*
X92845200Y-82403740D01*
X92382626Y-81941166D01*
X92382626Y-81941167D01*
X92359013Y-81976506D01*
X92359009Y-81976513D01*
X92283629Y-82158498D01*
X92283627Y-82158506D01*
X92245200Y-82351692D01*
X92245200Y-82548683D01*
X92283627Y-82741869D01*
X92283630Y-82741881D01*
X92359008Y-82923861D01*
X92359009Y-82923863D01*
X92382625Y-82959207D01*
X92845200Y-82496633D01*
X92845200Y-82502849D01*
X92872459Y-82604582D01*
X92925120Y-82695794D01*
X92999594Y-82770268D01*
X93090806Y-82822929D01*
X93192539Y-82850188D01*
X93198753Y-82850188D01*
X92736179Y-83312760D01*
X92771528Y-83336380D01*
X92953506Y-83411757D01*
X92953518Y-83411760D01*
X93146704Y-83450187D01*
X93146708Y-83450188D01*
X93343692Y-83450188D01*
X93343695Y-83450187D01*
X93536881Y-83411760D01*
X93536893Y-83411757D01*
X93718876Y-83336378D01*
X93718880Y-83336375D01*
X93754219Y-83312761D01*
X93754220Y-83312760D01*
X93291648Y-82850188D01*
X93297861Y-82850188D01*
X93399594Y-82822929D01*
X93490806Y-82770268D01*
X93565280Y-82695794D01*
X93617941Y-82604582D01*
X93645200Y-82502849D01*
X93645200Y-82496635D01*
X94107772Y-82959208D01*
X94107773Y-82959207D01*
X94131387Y-82923868D01*
X94131390Y-82923864D01*
X94206769Y-82741881D01*
X94206772Y-82741869D01*
X94245199Y-82548683D01*
X94245200Y-82548680D01*
X94245200Y-82351696D01*
X94245199Y-82351692D01*
X94206772Y-82158506D01*
X94206769Y-82158494D01*
X94131392Y-81976516D01*
X94107772Y-81941167D01*
X93645200Y-82403739D01*
X93645200Y-82397527D01*
X93617941Y-82295794D01*
X93565280Y-82204582D01*
X93490806Y-82130108D01*
X93399594Y-82077447D01*
X93297861Y-82050188D01*
X93291647Y-82050188D01*
X93754220Y-81587613D01*
X93753940Y-81584770D01*
X93766959Y-81516124D01*
X93815025Y-81465414D01*
X93865766Y-81449159D01*
X93879899Y-81447834D01*
X93879901Y-81447833D01*
X93879903Y-81447833D01*
X93926494Y-81431529D01*
X94008082Y-81402981D01*
X94117350Y-81322338D01*
X94197993Y-81213070D01*
X94220419Y-81148978D01*
X94242846Y-81084889D01*
X94242846Y-81084887D01*
X94245700Y-81054457D01*
X94245700Y-79845918D01*
X94242846Y-79815488D01*
X94242846Y-79815486D01*
X94197993Y-79687307D01*
X94197992Y-79687305D01*
X94117350Y-79578038D01*
X94008082Y-79497395D01*
X94008080Y-79497394D01*
X93879900Y-79452541D01*
X93849470Y-79449688D01*
X93849466Y-79449688D01*
X92640934Y-79449688D01*
X92640930Y-79449688D01*
X92610500Y-79452541D01*
X92610498Y-79452541D01*
X92482319Y-79497394D01*
X92482317Y-79497395D01*
X92373050Y-79578038D01*
X92292407Y-79687305D01*
X92292406Y-79687307D01*
X92247553Y-79815486D01*
X92247553Y-79815488D01*
X92244700Y-79845918D01*
X90573964Y-79845918D01*
X118274663Y-52145219D01*
X118335986Y-52111734D01*
X118362344Y-52108900D01*
X118438272Y-52108900D01*
X118438275Y-52108900D01*
X118578285Y-52071384D01*
X118703815Y-51998909D01*
X118806309Y-51896415D01*
X118878784Y-51770885D01*
X118916300Y-51630875D01*
X118916300Y-51485925D01*
X118878784Y-51345915D01*
X118859607Y-51312700D01*
X118806311Y-51220388D01*
X118806306Y-51220382D01*
X118703817Y-51117893D01*
X118703811Y-51117888D01*
X118578288Y-51045417D01*
X118578289Y-51045417D01*
X118554430Y-51039024D01*
X118438275Y-51007900D01*
X118293325Y-51007900D01*
X118177170Y-51039024D01*
X118153311Y-51045417D01*
X118027788Y-51117888D01*
X118027782Y-51117893D01*
X117925293Y-51220382D01*
X117925288Y-51220388D01*
X117852817Y-51345911D01*
X117852815Y-51345916D01*
X117850574Y-51354281D01*
X117814209Y-51413941D01*
X117751361Y-51444469D01*
X117681986Y-51436174D01*
X117628109Y-51391688D01*
X117611026Y-51354281D01*
X117608784Y-51345916D01*
X117608782Y-51345911D01*
X117536311Y-51220388D01*
X117536306Y-51220382D01*
X117433817Y-51117893D01*
X117433811Y-51117888D01*
X117308288Y-51045417D01*
X117308289Y-51045417D01*
X117284430Y-51039024D01*
X117168275Y-51007900D01*
X117023325Y-51007900D01*
X116907170Y-51039024D01*
X116883311Y-51045417D01*
X116757788Y-51117888D01*
X116757782Y-51117893D01*
X116655293Y-51220382D01*
X116655288Y-51220388D01*
X116582817Y-51345911D01*
X116581663Y-51350217D01*
X116545300Y-51485925D01*
X116545300Y-51485927D01*
X116545300Y-51561856D01*
X116525615Y-51628895D01*
X116508981Y-51649537D01*
X84801077Y-83357440D01*
X84739754Y-83390925D01*
X84670062Y-83385941D01*
X84651396Y-83377146D01*
X84567688Y-83328817D01*
X84567689Y-83328817D01*
X84556206Y-83325740D01*
X84427675Y-83291300D01*
X84282725Y-83291300D01*
X84154193Y-83325740D01*
X84142711Y-83328817D01*
X84017188Y-83401288D01*
X84017182Y-83401293D01*
X83914693Y-83503782D01*
X83914688Y-83503788D01*
X83842217Y-83629311D01*
X83842216Y-83629315D01*
X83804700Y-83769325D01*
X83804700Y-83914275D01*
X83809701Y-83932937D01*
X83837104Y-84035206D01*
X83835441Y-84105056D01*
X83796279Y-84162919D01*
X83732050Y-84190423D01*
X83717329Y-84191300D01*
X80171744Y-84191300D01*
X80104705Y-84171615D01*
X80084063Y-84154981D01*
X79862019Y-83932937D01*
X79828534Y-83871614D01*
X79825700Y-83845256D01*
X79825700Y-83769327D01*
X79825700Y-83769325D01*
X79788184Y-83629315D01*
X79779782Y-83614763D01*
X79715711Y-83503788D01*
X79715706Y-83503782D01*
X79613217Y-83401293D01*
X79613211Y-83401288D01*
X79487688Y-83328817D01*
X79487689Y-83328817D01*
X79476206Y-83325740D01*
X79347675Y-83291300D01*
X79202725Y-83291300D01*
X79074193Y-83325740D01*
X79062711Y-83328817D01*
X78937188Y-83401288D01*
X78937182Y-83401293D01*
X78834693Y-83503782D01*
X78834688Y-83503788D01*
X78762217Y-83629311D01*
X78762216Y-83629315D01*
X78724700Y-83769325D01*
X64514300Y-83769325D01*
X64514300Y-46206330D01*
X66322500Y-46206330D01*
X66322500Y-46413269D01*
X66362868Y-46616212D01*
X66362870Y-46616220D01*
X66442058Y-46807396D01*
X66557024Y-46979457D01*
X66703342Y-47125775D01*
X66703345Y-47125777D01*
X66875402Y-47240741D01*
X67066580Y-47319930D01*
X67269530Y-47360299D01*
X67269534Y-47360300D01*
X67269535Y-47360300D01*
X67726466Y-47360300D01*
X67726467Y-47360299D01*
X67929420Y-47319930D01*
X68120598Y-47240741D01*
X68292655Y-47125777D01*
X68438977Y-46979455D01*
X68553941Y-46807398D01*
X68559656Y-46793602D01*
X68583164Y-46736848D01*
X68627005Y-46682444D01*
X68693299Y-46660379D01*
X68697725Y-46660300D01*
X82422955Y-46660300D01*
X82489994Y-46679985D01*
X82510635Y-46696618D01*
X82549180Y-46735162D01*
X82582666Y-46796484D01*
X82585500Y-46822844D01*
X82585500Y-46898775D01*
X82623016Y-47038785D01*
X82623017Y-47038788D01*
X82695488Y-47164311D01*
X82695490Y-47164313D01*
X82695491Y-47164315D01*
X82797985Y-47266809D01*
X82853352Y-47298775D01*
X82901567Y-47349343D01*
X82914789Y-47417950D01*
X82888821Y-47482814D01*
X82879034Y-47493841D01*
X82860894Y-47511981D01*
X82860888Y-47511988D01*
X82788417Y-47637511D01*
X82788416Y-47637515D01*
X82750900Y-47777525D01*
X82750900Y-47922475D01*
X82788416Y-48062485D01*
X82834287Y-48141936D01*
X82850900Y-48203935D01*
X82850900Y-52119163D01*
X82834287Y-52181162D01*
X82788419Y-52260608D01*
X82788416Y-52260613D01*
X82776869Y-52303709D01*
X82750900Y-52400625D01*
X82750900Y-52400627D01*
X82750900Y-52405416D01*
X82731215Y-52472455D01*
X82678411Y-52518210D01*
X82609253Y-52528154D01*
X82545697Y-52499129D01*
X82539219Y-52493097D01*
X78595459Y-48549337D01*
X78595457Y-48549335D01*
X78558345Y-48527908D01*
X78521235Y-48506482D01*
X78479841Y-48495391D01*
X78438448Y-48484300D01*
X78438447Y-48484300D01*
X68708081Y-48484300D01*
X68641042Y-48464615D01*
X68595287Y-48411811D01*
X68593520Y-48407753D01*
X68553942Y-48312203D01*
X68438975Y-48140142D01*
X68292657Y-47993824D01*
X68185870Y-47922472D01*
X68120598Y-47878859D01*
X67967180Y-47815311D01*
X67929420Y-47799670D01*
X67929412Y-47799668D01*
X67726469Y-47759300D01*
X67726465Y-47759300D01*
X67269535Y-47759300D01*
X67269530Y-47759300D01*
X67066587Y-47799668D01*
X67066579Y-47799670D01*
X66875403Y-47878858D01*
X66703342Y-47993824D01*
X66557024Y-48140142D01*
X66442058Y-48312203D01*
X66362870Y-48503379D01*
X66362868Y-48503387D01*
X66322500Y-48706330D01*
X66322500Y-48913269D01*
X66362868Y-49116212D01*
X66362870Y-49116220D01*
X66442058Y-49307396D01*
X66557024Y-49479457D01*
X66703342Y-49625775D01*
X66703345Y-49625777D01*
X66875402Y-49740741D01*
X67066580Y-49819930D01*
X67258721Y-49858149D01*
X67269530Y-49860299D01*
X67269534Y-49860300D01*
X67269535Y-49860300D01*
X67726466Y-49860300D01*
X67726467Y-49860299D01*
X67929420Y-49819930D01*
X68120598Y-49740741D01*
X68292655Y-49625777D01*
X68438977Y-49479455D01*
X68553941Y-49307398D01*
X68593520Y-49211847D01*
X68637361Y-49157444D01*
X68703655Y-49135379D01*
X68708081Y-49135300D01*
X78209406Y-49135300D01*
X78276445Y-49154985D01*
X78297087Y-49171619D01*
X79898087Y-50772619D01*
X79931572Y-50833942D01*
X79926588Y-50903634D01*
X79884716Y-50959567D01*
X79819252Y-50983984D01*
X79810406Y-50984300D01*
X68708081Y-50984300D01*
X68641042Y-50964615D01*
X68595287Y-50911811D01*
X68593520Y-50907753D01*
X68553942Y-50812203D01*
X68438975Y-50640142D01*
X68292657Y-50493824D01*
X68206626Y-50436341D01*
X68120598Y-50378859D01*
X68114340Y-50376267D01*
X67929420Y-50299670D01*
X67929412Y-50299668D01*
X67726469Y-50259300D01*
X67726465Y-50259300D01*
X67269535Y-50259300D01*
X67269530Y-50259300D01*
X67066587Y-50299668D01*
X67066579Y-50299670D01*
X66875403Y-50378858D01*
X66703342Y-50493824D01*
X66557024Y-50640142D01*
X66442058Y-50812203D01*
X66362870Y-51003379D01*
X66362868Y-51003387D01*
X66322500Y-51206330D01*
X66322500Y-51413269D01*
X66362868Y-51616212D01*
X66362870Y-51616220D01*
X66442058Y-51807396D01*
X66557024Y-51979457D01*
X66703342Y-52125775D01*
X66703345Y-52125777D01*
X66875402Y-52240741D01*
X67066580Y-52319930D01*
X67269530Y-52360299D01*
X67269534Y-52360300D01*
X67269535Y-52360300D01*
X67726466Y-52360300D01*
X67726467Y-52360299D01*
X67929420Y-52319930D01*
X68120598Y-52240741D01*
X68292655Y-52125777D01*
X68438977Y-51979455D01*
X68553941Y-51807398D01*
X68560847Y-51790727D01*
X68593520Y-51711847D01*
X68637361Y-51657444D01*
X68703655Y-51635379D01*
X68708081Y-51635300D01*
X79754811Y-51635300D01*
X79821850Y-51654985D01*
X79842492Y-51671619D01*
X80725537Y-52554664D01*
X81518357Y-53347483D01*
X81551842Y-53408806D01*
X81546858Y-53478498D01*
X81504986Y-53534431D01*
X81439522Y-53558848D01*
X81371249Y-53543996D01*
X81355191Y-53533541D01*
X81354664Y-53533136D01*
X81280440Y-53490282D01*
X81236460Y-53478498D01*
X81197653Y-53468100D01*
X81197652Y-53468100D01*
X68797500Y-53468100D01*
X68730461Y-53448415D01*
X68684706Y-53395611D01*
X68673500Y-53344100D01*
X68673500Y-53155530D01*
X68670646Y-53125100D01*
X68670646Y-53125098D01*
X68625793Y-52996919D01*
X68625792Y-52996917D01*
X68592315Y-52951557D01*
X68545150Y-52887650D01*
X68435882Y-52807007D01*
X68435880Y-52807006D01*
X68307700Y-52762153D01*
X68277270Y-52759300D01*
X68277266Y-52759300D01*
X66718734Y-52759300D01*
X66718730Y-52759300D01*
X66688300Y-52762153D01*
X66688298Y-52762153D01*
X66560119Y-52807006D01*
X66560117Y-52807007D01*
X66450850Y-52887650D01*
X66370207Y-52996917D01*
X66370206Y-52996919D01*
X66325353Y-53125098D01*
X66325353Y-53125100D01*
X66322500Y-53155530D01*
X66322500Y-54464069D01*
X66325353Y-54494499D01*
X66325353Y-54494501D01*
X66370206Y-54622680D01*
X66370207Y-54622682D01*
X66450850Y-54731950D01*
X66560118Y-54812593D01*
X66602845Y-54827544D01*
X66688299Y-54857446D01*
X66718730Y-54860300D01*
X66718734Y-54860300D01*
X68277270Y-54860300D01*
X68307699Y-54857446D01*
X68307701Y-54857446D01*
X68385278Y-54830300D01*
X68435882Y-54812593D01*
X68545150Y-54731950D01*
X68625793Y-54622682D01*
X68648219Y-54558590D01*
X68670646Y-54494501D01*
X68670646Y-54494499D01*
X68673500Y-54464069D01*
X68673500Y-54243100D01*
X68693185Y-54176061D01*
X68745989Y-54130306D01*
X68797500Y-54119100D01*
X80968611Y-54119100D01*
X81035650Y-54138785D01*
X81056292Y-54155419D01*
X81601194Y-54700320D01*
X81601204Y-54700331D01*
X81605534Y-54704661D01*
X81605535Y-54704662D01*
X81666138Y-54765265D01*
X81703250Y-54786691D01*
X81740361Y-54808118D01*
X81740362Y-54808118D01*
X81746935Y-54811913D01*
X81795150Y-54862481D01*
X81808372Y-54931088D01*
X81782404Y-54995953D01*
X81725489Y-55036481D01*
X81684934Y-55043300D01*
X79729186Y-55043300D01*
X79662147Y-55023615D01*
X79641505Y-55006981D01*
X79587817Y-54953293D01*
X79587811Y-54953288D01*
X79462288Y-54880817D01*
X79462289Y-54880817D01*
X79450806Y-54877740D01*
X79322275Y-54843300D01*
X79177325Y-54843300D01*
X79048793Y-54877740D01*
X79037311Y-54880817D01*
X78911788Y-54953288D01*
X78911782Y-54953293D01*
X78809293Y-55055782D01*
X78809288Y-55055788D01*
X78736817Y-55181311D01*
X78736816Y-55181315D01*
X78699300Y-55321325D01*
X78699300Y-55466275D01*
X78734593Y-55597989D01*
X78736817Y-55606288D01*
X78809288Y-55731811D01*
X78809290Y-55731813D01*
X78809291Y-55731815D01*
X78911785Y-55834309D01*
X78911786Y-55834310D01*
X78911788Y-55834311D01*
X79037311Y-55906782D01*
X79037312Y-55906782D01*
X79037315Y-55906784D01*
X79177325Y-55944300D01*
X79177328Y-55944300D01*
X79322272Y-55944300D01*
X79322275Y-55944300D01*
X79462285Y-55906784D01*
X79587815Y-55834309D01*
X79641505Y-55780619D01*
X79702828Y-55747134D01*
X79729186Y-55744300D01*
X82877992Y-55744300D01*
X82877994Y-55744300D01*
X82967138Y-55720414D01*
X82991385Y-55706415D01*
X83047062Y-55674270D01*
X83149026Y-55572305D01*
X83210345Y-55538823D01*
X83280037Y-55543807D01*
X83335971Y-55585678D01*
X83344091Y-55597989D01*
X83406691Y-55706415D01*
X83509185Y-55808909D01*
X83509186Y-55808910D01*
X83509188Y-55808911D01*
X83634711Y-55881382D01*
X83634712Y-55881382D01*
X83634715Y-55881384D01*
X83774725Y-55918900D01*
X83774728Y-55918900D01*
X83919672Y-55918900D01*
X83919675Y-55918900D01*
X84059685Y-55881384D01*
X84185215Y-55808909D01*
X84287709Y-55706415D01*
X84360184Y-55580885D01*
X84397700Y-55440875D01*
X84397700Y-55364944D01*
X84417385Y-55297905D01*
X84434019Y-55277263D01*
X96376663Y-43334619D01*
X96437986Y-43301134D01*
X96464344Y-43298300D01*
X115117814Y-43298300D01*
X115184853Y-43317985D01*
X115205495Y-43334619D01*
X115259185Y-43388309D01*
X115259186Y-43388310D01*
X115259188Y-43388311D01*
X115384711Y-43460782D01*
X115384712Y-43460782D01*
X115384715Y-43460784D01*
X115388586Y-43461821D01*
X115393081Y-43463026D01*
X115452741Y-43499391D01*
X115483269Y-43562239D01*
X115474974Y-43631614D01*
X115430488Y-43685491D01*
X115393081Y-43702574D01*
X115384716Y-43704815D01*
X115384711Y-43704817D01*
X115259188Y-43777288D01*
X115259182Y-43777293D01*
X115205495Y-43830981D01*
X115144172Y-43864466D01*
X115117814Y-43867300D01*
X105032490Y-43867300D01*
X104943346Y-43891186D01*
X104943343Y-43891187D01*
X104863425Y-43937327D01*
X104863420Y-43937331D01*
X94524859Y-54275891D01*
X94463536Y-54309376D01*
X94393844Y-54304392D01*
X94337911Y-54262520D01*
X94315561Y-54212401D01*
X94284372Y-54055606D01*
X94284369Y-54055594D01*
X94208992Y-53873616D01*
X94185372Y-53838267D01*
X93722800Y-54300841D01*
X93722800Y-54294627D01*
X93695541Y-54192894D01*
X93642880Y-54101682D01*
X93568406Y-54027208D01*
X93477194Y-53974547D01*
X93375461Y-53947288D01*
X93369247Y-53947288D01*
X93831820Y-53484713D01*
X93831540Y-53481870D01*
X93844559Y-53413224D01*
X93892625Y-53362514D01*
X93943366Y-53346259D01*
X93957499Y-53344934D01*
X93957501Y-53344933D01*
X93957503Y-53344933D01*
X94004094Y-53328629D01*
X94085682Y-53300081D01*
X94194950Y-53219438D01*
X94275593Y-53110170D01*
X94305885Y-53023600D01*
X94320446Y-52981989D01*
X94320446Y-52981987D01*
X94323300Y-52951557D01*
X94323300Y-51743018D01*
X94320446Y-51712588D01*
X94320446Y-51712586D01*
X94275593Y-51584407D01*
X94275592Y-51584405D01*
X94231888Y-51525188D01*
X94194950Y-51475138D01*
X94085682Y-51394495D01*
X94085680Y-51394494D01*
X93957500Y-51349641D01*
X93927070Y-51346788D01*
X93927066Y-51346788D01*
X92718534Y-51346788D01*
X92718530Y-51346788D01*
X92688100Y-51349641D01*
X92688098Y-51349641D01*
X92559919Y-51394494D01*
X92559917Y-51394495D01*
X92450650Y-51475138D01*
X92370007Y-51584405D01*
X92370006Y-51584407D01*
X92325153Y-51712586D01*
X92325153Y-51712588D01*
X92322300Y-51743018D01*
X92322300Y-52951557D01*
X92325153Y-52981987D01*
X92325153Y-52981989D01*
X92370006Y-53110168D01*
X92370007Y-53110170D01*
X92450650Y-53219438D01*
X92559918Y-53300081D01*
X92600711Y-53314355D01*
X92688096Y-53344933D01*
X92688098Y-53344933D01*
X92688101Y-53344934D01*
X92702232Y-53346259D01*
X92767138Y-53372114D01*
X92807765Y-53428958D01*
X92814058Y-53481870D01*
X92813777Y-53484713D01*
X93276354Y-53947288D01*
X93270139Y-53947288D01*
X93168406Y-53974547D01*
X93077194Y-54027208D01*
X93002720Y-54101682D01*
X92950059Y-54192894D01*
X92922800Y-54294627D01*
X92922800Y-54300840D01*
X92460226Y-53838266D01*
X92460226Y-53838267D01*
X92436613Y-53873606D01*
X92436609Y-53873613D01*
X92361229Y-54055598D01*
X92361227Y-54055606D01*
X92322800Y-54248792D01*
X92322800Y-54445783D01*
X92361227Y-54638969D01*
X92361230Y-54638981D01*
X92436608Y-54820961D01*
X92436609Y-54820963D01*
X92460225Y-54856307D01*
X92922800Y-54393733D01*
X92922800Y-54399949D01*
X92950059Y-54501682D01*
X93002720Y-54592894D01*
X93077194Y-54667368D01*
X93168406Y-54720029D01*
X93270139Y-54747288D01*
X93276353Y-54747288D01*
X92813779Y-55209860D01*
X92849128Y-55233480D01*
X93031106Y-55308857D01*
X93031118Y-55308860D01*
X93187913Y-55340049D01*
X93249824Y-55372434D01*
X93284398Y-55433149D01*
X93280659Y-55502919D01*
X93251403Y-55549347D01*
X89602771Y-59197981D01*
X89541448Y-59231466D01*
X89515090Y-59234300D01*
X74547586Y-59234300D01*
X74480547Y-59214615D01*
X74459905Y-59197981D01*
X74406217Y-59144293D01*
X74406211Y-59144288D01*
X74280688Y-59071817D01*
X74280689Y-59071817D01*
X74269206Y-59068740D01*
X74140675Y-59034300D01*
X73995725Y-59034300D01*
X73867193Y-59068740D01*
X73855711Y-59071817D01*
X73730188Y-59144288D01*
X73730182Y-59144293D01*
X73627693Y-59246782D01*
X73627688Y-59246788D01*
X73555217Y-59372311D01*
X73555216Y-59372315D01*
X73517700Y-59512325D01*
X73517700Y-59657275D01*
X73546422Y-59764465D01*
X73555217Y-59797289D01*
X73558328Y-59804799D01*
X73556185Y-59805686D01*
X73569850Y-59861989D01*
X73547004Y-59928018D01*
X73492087Y-59971213D01*
X73445990Y-59980100D01*
X68723125Y-59980100D01*
X68656086Y-59960415D01*
X68610331Y-59907611D01*
X68608564Y-59903552D01*
X68579343Y-59833005D01*
X68464375Y-59660942D01*
X68318057Y-59514624D01*
X68232026Y-59457141D01*
X68145998Y-59399659D01*
X68079974Y-59372311D01*
X67954820Y-59320470D01*
X67954812Y-59320468D01*
X67751869Y-59280100D01*
X67751865Y-59280100D01*
X67294935Y-59280100D01*
X67294930Y-59280100D01*
X67091987Y-59320468D01*
X67091979Y-59320470D01*
X66900803Y-59399658D01*
X66728742Y-59514624D01*
X66582424Y-59660942D01*
X66467458Y-59833003D01*
X66388270Y-60024179D01*
X66388268Y-60024187D01*
X66347900Y-60227130D01*
X66347900Y-60434069D01*
X66388268Y-60637012D01*
X66388270Y-60637020D01*
X66460244Y-60810781D01*
X66467459Y-60828198D01*
X66490141Y-60862144D01*
X66582424Y-61000257D01*
X66728742Y-61146575D01*
X66728745Y-61146577D01*
X66900802Y-61261541D01*
X67091980Y-61340730D01*
X67220309Y-61366256D01*
X67294930Y-61381099D01*
X67294934Y-61381100D01*
X67294935Y-61381100D01*
X67751866Y-61381100D01*
X67751867Y-61381099D01*
X67954820Y-61340730D01*
X68145998Y-61261541D01*
X68318055Y-61146577D01*
X68464377Y-61000255D01*
X68579341Y-60828198D01*
X68586556Y-60810781D01*
X68608564Y-60757648D01*
X68652405Y-60703244D01*
X68718699Y-60681179D01*
X68723125Y-60681100D01*
X82377655Y-60681100D01*
X82444694Y-60700785D01*
X82465335Y-60717418D01*
X82522380Y-60774462D01*
X82555866Y-60835785D01*
X82558700Y-60862144D01*
X82558700Y-60938075D01*
X82575362Y-61000257D01*
X82596217Y-61078088D01*
X82668688Y-61203611D01*
X82668690Y-61203613D01*
X82668691Y-61203615D01*
X82771185Y-61306109D01*
X82826552Y-61338075D01*
X82874767Y-61388643D01*
X82887989Y-61457250D01*
X82862021Y-61522114D01*
X82852234Y-61533141D01*
X82834094Y-61551281D01*
X82834088Y-61551288D01*
X82761617Y-61676811D01*
X82761616Y-61676815D01*
X82724100Y-61816825D01*
X82724100Y-61961775D01*
X82761616Y-62101785D01*
X82761617Y-62101787D01*
X82783486Y-62139664D01*
X82800100Y-62201666D01*
X82800100Y-66200033D01*
X82783486Y-66262035D01*
X82771490Y-66282812D01*
X82720923Y-66331026D01*
X82652315Y-66344248D01*
X82587451Y-66318279D01*
X82576423Y-66308491D01*
X78838069Y-62570137D01*
X78838067Y-62570135D01*
X78800955Y-62548708D01*
X78763845Y-62527282D01*
X78722451Y-62516191D01*
X78681058Y-62505100D01*
X78681057Y-62505100D01*
X68733481Y-62505100D01*
X68666442Y-62485415D01*
X68620687Y-62432611D01*
X68618920Y-62428553D01*
X68579342Y-62333003D01*
X68464375Y-62160942D01*
X68318057Y-62014624D01*
X68232026Y-61957141D01*
X68145998Y-61899659D01*
X68133753Y-61894587D01*
X67954820Y-61820470D01*
X67954812Y-61820468D01*
X67751869Y-61780100D01*
X67751865Y-61780100D01*
X67294935Y-61780100D01*
X67294930Y-61780100D01*
X67091987Y-61820468D01*
X67091979Y-61820470D01*
X66900803Y-61899658D01*
X66728742Y-62014624D01*
X66582424Y-62160942D01*
X66467458Y-62333003D01*
X66388270Y-62524179D01*
X66388268Y-62524187D01*
X66347900Y-62727130D01*
X66347900Y-62934069D01*
X66388268Y-63137012D01*
X66388270Y-63137020D01*
X66418967Y-63211130D01*
X66467459Y-63328198D01*
X66524941Y-63414226D01*
X66582424Y-63500257D01*
X66728742Y-63646575D01*
X66728745Y-63646577D01*
X66900802Y-63761541D01*
X67091980Y-63840730D01*
X67294930Y-63881099D01*
X67294934Y-63881100D01*
X67294935Y-63881100D01*
X67751866Y-63881100D01*
X67751867Y-63881099D01*
X67954820Y-63840730D01*
X68145998Y-63761541D01*
X68318055Y-63646577D01*
X68464377Y-63500255D01*
X68579341Y-63328198D01*
X68618920Y-63232647D01*
X68662761Y-63178244D01*
X68729055Y-63156179D01*
X68733481Y-63156100D01*
X78452016Y-63156100D01*
X78519055Y-63175785D01*
X78539697Y-63192419D01*
X80191065Y-64843787D01*
X80224550Y-64905109D01*
X80219566Y-64974801D01*
X80177694Y-65030734D01*
X80112230Y-65055151D01*
X80043957Y-65040299D01*
X80041385Y-65038855D01*
X80021341Y-65027282D01*
X79966148Y-65012494D01*
X79938553Y-65005100D01*
X79938552Y-65005100D01*
X68733481Y-65005100D01*
X68666442Y-64985415D01*
X68620687Y-64932611D01*
X68618920Y-64928553D01*
X68579342Y-64833003D01*
X68464375Y-64660942D01*
X68318057Y-64514624D01*
X68232026Y-64457141D01*
X68145998Y-64399659D01*
X68081367Y-64372888D01*
X67954820Y-64320470D01*
X67954812Y-64320468D01*
X67751869Y-64280100D01*
X67751865Y-64280100D01*
X67294935Y-64280100D01*
X67294930Y-64280100D01*
X67091987Y-64320468D01*
X67091979Y-64320470D01*
X66900803Y-64399658D01*
X66728742Y-64514624D01*
X66582424Y-64660942D01*
X66467458Y-64833003D01*
X66388270Y-65024179D01*
X66388268Y-65024187D01*
X66347900Y-65227130D01*
X66347900Y-65434069D01*
X66388268Y-65637012D01*
X66388270Y-65637020D01*
X66467458Y-65828196D01*
X66582424Y-66000257D01*
X66728742Y-66146575D01*
X66728745Y-66146577D01*
X66900802Y-66261541D01*
X67091980Y-66340730D01*
X67294930Y-66381099D01*
X67294934Y-66381100D01*
X67294935Y-66381100D01*
X67751866Y-66381100D01*
X67751867Y-66381099D01*
X67954820Y-66340730D01*
X68145998Y-66261541D01*
X68318055Y-66146577D01*
X68464377Y-66000255D01*
X68579341Y-65828198D01*
X68618920Y-65732647D01*
X68662761Y-65678244D01*
X68729055Y-65656179D01*
X68733481Y-65656100D01*
X79709511Y-65656100D01*
X79776550Y-65675785D01*
X79797192Y-65692419D01*
X81734981Y-67630207D01*
X81768466Y-67691530D01*
X81771300Y-67717888D01*
X81771300Y-67829175D01*
X81784267Y-67877567D01*
X81803704Y-67950106D01*
X81802041Y-68019956D01*
X81762879Y-68077819D01*
X81698650Y-68105323D01*
X81683929Y-68106200D01*
X68822900Y-68106200D01*
X68755861Y-68086515D01*
X68710106Y-68033711D01*
X68698900Y-67982200D01*
X68698900Y-67176330D01*
X68696046Y-67145900D01*
X68696046Y-67145898D01*
X68662406Y-67049763D01*
X68651193Y-67017718D01*
X68570550Y-66908450D01*
X68461282Y-66827807D01*
X68461280Y-66827806D01*
X68333100Y-66782953D01*
X68302670Y-66780100D01*
X68302666Y-66780100D01*
X66744134Y-66780100D01*
X66744130Y-66780100D01*
X66713700Y-66782953D01*
X66713698Y-66782953D01*
X66585519Y-66827806D01*
X66585517Y-66827807D01*
X66476250Y-66908450D01*
X66395607Y-67017717D01*
X66395606Y-67017719D01*
X66350753Y-67145898D01*
X66350753Y-67145900D01*
X66347900Y-67176330D01*
X66347900Y-68484869D01*
X66350753Y-68515299D01*
X66350753Y-68515301D01*
X66391657Y-68632194D01*
X66395607Y-68643482D01*
X66476250Y-68752750D01*
X66585518Y-68833393D01*
X66628245Y-68848344D01*
X66713699Y-68878246D01*
X66744130Y-68881100D01*
X66744134Y-68881100D01*
X68302670Y-68881100D01*
X68333099Y-68878246D01*
X68333101Y-68878246D01*
X68397190Y-68855819D01*
X68461282Y-68833393D01*
X68531689Y-68781429D01*
X68597318Y-68757459D01*
X68605323Y-68757200D01*
X78751496Y-68757200D01*
X78818535Y-68776885D01*
X78864290Y-68829689D01*
X78874234Y-68898847D01*
X78845209Y-68962403D01*
X78786431Y-69000177D01*
X78783637Y-69000961D01*
X78762684Y-69006576D01*
X78760240Y-69007231D01*
X78634717Y-69079702D01*
X78634711Y-69079707D01*
X78532222Y-69182196D01*
X78532217Y-69182202D01*
X78459746Y-69307725D01*
X78459745Y-69307729D01*
X78422229Y-69447739D01*
X78422229Y-69592689D01*
X78459745Y-69732699D01*
X78459746Y-69732702D01*
X78532217Y-69858225D01*
X78532219Y-69858227D01*
X78532220Y-69858229D01*
X78634714Y-69960723D01*
X78634715Y-69960724D01*
X78634717Y-69960725D01*
X78760240Y-70033196D01*
X78760241Y-70033196D01*
X78760244Y-70033198D01*
X78900254Y-70070714D01*
X78980006Y-70070714D01*
X79042007Y-70087327D01*
X79047101Y-70090268D01*
X79047102Y-70090269D01*
X79102543Y-70122278D01*
X79127023Y-70136412D01*
X79127027Y-70136414D01*
X79216171Y-70160300D01*
X79216173Y-70160300D01*
X85225342Y-70160300D01*
X85225344Y-70160300D01*
X85314488Y-70136414D01*
X85394412Y-70090270D01*
X89702364Y-65782318D01*
X92295500Y-65782318D01*
X92295500Y-66990857D01*
X92298353Y-67021287D01*
X92298353Y-67021289D01*
X92341958Y-67145901D01*
X92343207Y-67149470D01*
X92423850Y-67258738D01*
X92533118Y-67339381D01*
X92573911Y-67353655D01*
X92661296Y-67384233D01*
X92661298Y-67384233D01*
X92661301Y-67384234D01*
X92675432Y-67385559D01*
X92740338Y-67411414D01*
X92780965Y-67468258D01*
X92787258Y-67521170D01*
X92786977Y-67524013D01*
X93249554Y-67986588D01*
X93243339Y-67986588D01*
X93141606Y-68013847D01*
X93050394Y-68066508D01*
X92975920Y-68140982D01*
X92923259Y-68232194D01*
X92896000Y-68333927D01*
X92896000Y-68340140D01*
X92433426Y-67877566D01*
X92433426Y-67877567D01*
X92409813Y-67912906D01*
X92409809Y-67912913D01*
X92334429Y-68094898D01*
X92334427Y-68094906D01*
X92296000Y-68288092D01*
X92296000Y-68485083D01*
X92334427Y-68678269D01*
X92334430Y-68678281D01*
X92409808Y-68860261D01*
X92409809Y-68860263D01*
X92433425Y-68895607D01*
X92896000Y-68433033D01*
X92896000Y-68439249D01*
X92923259Y-68540982D01*
X92975920Y-68632194D01*
X93050394Y-68706668D01*
X93141606Y-68759329D01*
X93243339Y-68786588D01*
X93249553Y-68786588D01*
X92786979Y-69249160D01*
X92822328Y-69272780D01*
X93004306Y-69348157D01*
X93004318Y-69348160D01*
X93197504Y-69386587D01*
X93197508Y-69386588D01*
X93394492Y-69386588D01*
X93394495Y-69386587D01*
X93587681Y-69348160D01*
X93587693Y-69348157D01*
X93769676Y-69272778D01*
X93769680Y-69272775D01*
X93805019Y-69249161D01*
X93805020Y-69249160D01*
X93342448Y-68786588D01*
X93348661Y-68786588D01*
X93450394Y-68759329D01*
X93541606Y-68706668D01*
X93616080Y-68632194D01*
X93668741Y-68540982D01*
X93696000Y-68439249D01*
X93696000Y-68433036D01*
X94158572Y-68895608D01*
X94158573Y-68895607D01*
X94182187Y-68860268D01*
X94182190Y-68860264D01*
X94257569Y-68678281D01*
X94257572Y-68678269D01*
X94295999Y-68485083D01*
X94296000Y-68485080D01*
X94296000Y-68288096D01*
X94295999Y-68288092D01*
X94257572Y-68094906D01*
X94257569Y-68094894D01*
X94182192Y-67912916D01*
X94158572Y-67877567D01*
X93696000Y-68340139D01*
X93696000Y-68333927D01*
X93668741Y-68232194D01*
X93616080Y-68140982D01*
X93541606Y-68066508D01*
X93450394Y-68013847D01*
X93348661Y-67986588D01*
X93342447Y-67986588D01*
X93805020Y-67524013D01*
X93804740Y-67521170D01*
X93817759Y-67452524D01*
X93865825Y-67401814D01*
X93916566Y-67385559D01*
X93930699Y-67384234D01*
X93930701Y-67384233D01*
X93930703Y-67384233D01*
X93977294Y-67367929D01*
X94058882Y-67339381D01*
X94168150Y-67258738D01*
X94248793Y-67149470D01*
X94271219Y-67085378D01*
X94293646Y-67021289D01*
X94293646Y-67021287D01*
X94296500Y-66990857D01*
X94296500Y-65782318D01*
X94293646Y-65751888D01*
X94293646Y-65751886D01*
X94248793Y-65623707D01*
X94248792Y-65623705D01*
X94168150Y-65514438D01*
X94058882Y-65433795D01*
X94058880Y-65433794D01*
X93930700Y-65388941D01*
X93900270Y-65386088D01*
X93900266Y-65386088D01*
X92691734Y-65386088D01*
X92691730Y-65386088D01*
X92661300Y-65388941D01*
X92661298Y-65388941D01*
X92533119Y-65433794D01*
X92533117Y-65433795D01*
X92423850Y-65514438D01*
X92343207Y-65623705D01*
X92343206Y-65623707D01*
X92298353Y-65751886D01*
X92298353Y-65751888D01*
X92295500Y-65782318D01*
X89702364Y-65782318D01*
X107070063Y-48414619D01*
X107131386Y-48381134D01*
X107157744Y-48378300D01*
X115117814Y-48378300D01*
X115184853Y-48397985D01*
X115205495Y-48414619D01*
X115259185Y-48468309D01*
X115259186Y-48468310D01*
X115259188Y-48468311D01*
X115384711Y-48540782D01*
X115384712Y-48540782D01*
X115384715Y-48540784D01*
X115388586Y-48541821D01*
X115393081Y-48543026D01*
X115452741Y-48579391D01*
X115483269Y-48642239D01*
X115474974Y-48711614D01*
X115430488Y-48765491D01*
X115393081Y-48782574D01*
X115384716Y-48784815D01*
X115384711Y-48784817D01*
X115259188Y-48857288D01*
X115259182Y-48857293D01*
X115156693Y-48959782D01*
X115156688Y-48959788D01*
X115084217Y-49085311D01*
X115084216Y-49085315D01*
X115046700Y-49225325D01*
X115046700Y-49225327D01*
X115046700Y-49301256D01*
X115027015Y-49368295D01*
X115010381Y-49388937D01*
X91104337Y-73294981D01*
X91043014Y-73328466D01*
X91016656Y-73331300D01*
X74524586Y-73331300D01*
X74457547Y-73311615D01*
X74436905Y-73294981D01*
X74383217Y-73241293D01*
X74383211Y-73241288D01*
X74257688Y-73168817D01*
X74257689Y-73168817D01*
X74246206Y-73165740D01*
X74117675Y-73131300D01*
X73972725Y-73131300D01*
X73844193Y-73165740D01*
X73832711Y-73168817D01*
X73707188Y-73241288D01*
X73707182Y-73241293D01*
X73604693Y-73343782D01*
X73604688Y-73343788D01*
X73532217Y-73469311D01*
X73532216Y-73469315D01*
X73494700Y-73609325D01*
X73494700Y-73754275D01*
X73532216Y-73894285D01*
X73532217Y-73894288D01*
X73532571Y-73895606D01*
X73530908Y-73965456D01*
X73491746Y-74023318D01*
X73427518Y-74050823D01*
X73412796Y-74051700D01*
X68748525Y-74051700D01*
X68681486Y-74032015D01*
X68635731Y-73979211D01*
X68633964Y-73975152D01*
X68604743Y-73904605D01*
X68489775Y-73732542D01*
X68343457Y-73586224D01*
X68257426Y-73528741D01*
X68171398Y-73471259D01*
X68166695Y-73469311D01*
X67980220Y-73392070D01*
X67980212Y-73392068D01*
X67777269Y-73351700D01*
X67777265Y-73351700D01*
X67320335Y-73351700D01*
X67320330Y-73351700D01*
X67117387Y-73392068D01*
X67117379Y-73392070D01*
X66926203Y-73471258D01*
X66754142Y-73586224D01*
X66607824Y-73732542D01*
X66492858Y-73904603D01*
X66413670Y-74095779D01*
X66413668Y-74095787D01*
X66373300Y-74298730D01*
X66373300Y-74505669D01*
X66413668Y-74708612D01*
X66413670Y-74708620D01*
X66446972Y-74789019D01*
X66492859Y-74899798D01*
X66550341Y-74985826D01*
X66607824Y-75071857D01*
X66754142Y-75218175D01*
X66754145Y-75218177D01*
X66926202Y-75333141D01*
X67117380Y-75412330D01*
X67320330Y-75452699D01*
X67320334Y-75452700D01*
X67320335Y-75452700D01*
X67777266Y-75452700D01*
X67777267Y-75452699D01*
X67980220Y-75412330D01*
X68171398Y-75333141D01*
X68343455Y-75218177D01*
X68489777Y-75071855D01*
X68604741Y-74899798D01*
X68622583Y-74856725D01*
X68633964Y-74829248D01*
X68677805Y-74774844D01*
X68744099Y-74752779D01*
X68748525Y-74752700D01*
X82334856Y-74752700D01*
X82401895Y-74772385D01*
X82422537Y-74789019D01*
X82471581Y-74838063D01*
X82505066Y-74899386D01*
X82507900Y-74925744D01*
X82507900Y-75001675D01*
X82545416Y-75141685D01*
X82545417Y-75141688D01*
X82617888Y-75267211D01*
X82617890Y-75267213D01*
X82617891Y-75267215D01*
X82720385Y-75369709D01*
X82775752Y-75401675D01*
X82823967Y-75452243D01*
X82837189Y-75520850D01*
X82811221Y-75585714D01*
X82801434Y-75596741D01*
X82783294Y-75614881D01*
X82783288Y-75614888D01*
X82710817Y-75740411D01*
X82710816Y-75740415D01*
X82673300Y-75880425D01*
X82673300Y-76025375D01*
X82710816Y-76165385D01*
X82756687Y-76244836D01*
X82773300Y-76306835D01*
X82773300Y-80222063D01*
X82756687Y-80284062D01*
X82710819Y-80363508D01*
X82710816Y-80363513D01*
X82692058Y-80433520D01*
X82673300Y-80503525D01*
X82673300Y-80503527D01*
X82673300Y-80508316D01*
X82653615Y-80575355D01*
X82600811Y-80621110D01*
X82531653Y-80631054D01*
X82468097Y-80602029D01*
X82461619Y-80595997D01*
X78507359Y-76641737D01*
X78507357Y-76641735D01*
X78470245Y-76620308D01*
X78433135Y-76598882D01*
X78391741Y-76587791D01*
X78350348Y-76576700D01*
X78350347Y-76576700D01*
X68758881Y-76576700D01*
X68691842Y-76557015D01*
X68646087Y-76504211D01*
X68644320Y-76500153D01*
X68604742Y-76404603D01*
X68489775Y-76232542D01*
X68343457Y-76086224D01*
X68252384Y-76025372D01*
X68171398Y-75971259D01*
X67980220Y-75892070D01*
X67980212Y-75892068D01*
X67777269Y-75851700D01*
X67777265Y-75851700D01*
X67320335Y-75851700D01*
X67320330Y-75851700D01*
X67117387Y-75892068D01*
X67117379Y-75892070D01*
X66926203Y-75971258D01*
X66754142Y-76086224D01*
X66607824Y-76232542D01*
X66492858Y-76404603D01*
X66413670Y-76595779D01*
X66413668Y-76595787D01*
X66373300Y-76798730D01*
X66373300Y-77005669D01*
X66413668Y-77208612D01*
X66413670Y-77208620D01*
X66492858Y-77399796D01*
X66607824Y-77571857D01*
X66754142Y-77718175D01*
X66754145Y-77718177D01*
X66926202Y-77833141D01*
X67117380Y-77912330D01*
X67299768Y-77948609D01*
X67320330Y-77952699D01*
X67320334Y-77952700D01*
X67320335Y-77952700D01*
X67777266Y-77952700D01*
X67777267Y-77952699D01*
X67980220Y-77912330D01*
X68171398Y-77833141D01*
X68343455Y-77718177D01*
X68489777Y-77571855D01*
X68604741Y-77399798D01*
X68644320Y-77304247D01*
X68688161Y-77249844D01*
X68754455Y-77227779D01*
X68758881Y-77227700D01*
X78121306Y-77227700D01*
X78188345Y-77247385D01*
X78208987Y-77264019D01*
X79809987Y-78865019D01*
X79843472Y-78926342D01*
X79838488Y-78996034D01*
X79796616Y-79051967D01*
X79731152Y-79076384D01*
X79722306Y-79076700D01*
X68758881Y-79076700D01*
X68691842Y-79057015D01*
X68646087Y-79004211D01*
X68644320Y-79000153D01*
X68604742Y-78904603D01*
X68489775Y-78732542D01*
X68343457Y-78586224D01*
X68257426Y-78528741D01*
X68171398Y-78471259D01*
X68087439Y-78436482D01*
X67980220Y-78392070D01*
X67980212Y-78392068D01*
X67777269Y-78351700D01*
X67777265Y-78351700D01*
X67320335Y-78351700D01*
X67320330Y-78351700D01*
X67117387Y-78392068D01*
X67117379Y-78392070D01*
X66926203Y-78471258D01*
X66754142Y-78586224D01*
X66607824Y-78732542D01*
X66492858Y-78904603D01*
X66413670Y-79095779D01*
X66413668Y-79095787D01*
X66373300Y-79298730D01*
X66373300Y-79505669D01*
X66413668Y-79708612D01*
X66413670Y-79708620D01*
X66492859Y-79899798D01*
X66521804Y-79943118D01*
X66607824Y-80071857D01*
X66754142Y-80218175D01*
X66754145Y-80218177D01*
X66926202Y-80333141D01*
X67117380Y-80412330D01*
X67320330Y-80452699D01*
X67320334Y-80452700D01*
X67320335Y-80452700D01*
X67777266Y-80452700D01*
X67777267Y-80452699D01*
X67980220Y-80412330D01*
X68171398Y-80333141D01*
X68343455Y-80218177D01*
X68489777Y-80071855D01*
X68604741Y-79899798D01*
X68627058Y-79845922D01*
X68644320Y-79804247D01*
X68688161Y-79749844D01*
X68754455Y-79727779D01*
X68758881Y-79727700D01*
X79666711Y-79727700D01*
X79733750Y-79747385D01*
X79754392Y-79764019D01*
X81684181Y-81693807D01*
X81717666Y-81755130D01*
X81720500Y-81781488D01*
X81720500Y-81892775D01*
X81733467Y-81941167D01*
X81752904Y-82013706D01*
X81751241Y-82083556D01*
X81712079Y-82141419D01*
X81647850Y-82168923D01*
X81633129Y-82169800D01*
X68848300Y-82169800D01*
X68781261Y-82150115D01*
X68735506Y-82097311D01*
X68724300Y-82045800D01*
X68724300Y-81247930D01*
X68721446Y-81217500D01*
X68721446Y-81217498D01*
X68676593Y-81089319D01*
X68676592Y-81089317D01*
X68673324Y-81084889D01*
X68595950Y-80980050D01*
X68486682Y-80899407D01*
X68486680Y-80899406D01*
X68358500Y-80854553D01*
X68328070Y-80851700D01*
X68328066Y-80851700D01*
X66769534Y-80851700D01*
X66769530Y-80851700D01*
X66739100Y-80854553D01*
X66739098Y-80854553D01*
X66610919Y-80899406D01*
X66610917Y-80899407D01*
X66501650Y-80980050D01*
X66421007Y-81089317D01*
X66421006Y-81089319D01*
X66376153Y-81217498D01*
X66376153Y-81217500D01*
X66373300Y-81247930D01*
X66373300Y-82556469D01*
X66376153Y-82586899D01*
X66376153Y-82586901D01*
X66421006Y-82715080D01*
X66421007Y-82715082D01*
X66501650Y-82824350D01*
X66610918Y-82904993D01*
X66653645Y-82919944D01*
X66739099Y-82949846D01*
X66769530Y-82952700D01*
X66769534Y-82952700D01*
X68328070Y-82952700D01*
X68358499Y-82949846D01*
X68358501Y-82949846D01*
X68432740Y-82923868D01*
X68486682Y-82904993D01*
X68502302Y-82893465D01*
X68567930Y-82845030D01*
X68633558Y-82821059D01*
X68641563Y-82820800D01*
X82938342Y-82820800D01*
X82938344Y-82820800D01*
X83021130Y-82798618D01*
X83095353Y-82755765D01*
X84873652Y-80977463D01*
X84873657Y-80977460D01*
X84883860Y-80967256D01*
X84883862Y-80967256D01*
X84944465Y-80906653D01*
X84976192Y-80851700D01*
X84987318Y-80832430D01*
X85009501Y-80749644D01*
X85009501Y-80663938D01*
X85009501Y-80656343D01*
X85009500Y-80656325D01*
X85009500Y-79278886D01*
X85029185Y-79211847D01*
X85045819Y-79191205D01*
X85124509Y-79112515D01*
X85196984Y-78986985D01*
X85234500Y-78846975D01*
X85234500Y-78702025D01*
X85196984Y-78562015D01*
X85144585Y-78471258D01*
X85124511Y-78436488D01*
X85124506Y-78436482D01*
X85073871Y-78385847D01*
X85040386Y-78324524D01*
X85045370Y-78254832D01*
X85066678Y-78221694D01*
X85065256Y-78220603D01*
X85070202Y-78214156D01*
X85070203Y-78214153D01*
X85070205Y-78214152D01*
X85142680Y-78088622D01*
X85180196Y-77948612D01*
X85180196Y-77803662D01*
X85142680Y-77663652D01*
X85070205Y-77538122D01*
X84967711Y-77435628D01*
X84967709Y-77435627D01*
X84967707Y-77435625D01*
X84842184Y-77363154D01*
X84842185Y-77363154D01*
X84830702Y-77360077D01*
X84702171Y-77325637D01*
X84557221Y-77325637D01*
X84428689Y-77360077D01*
X84417207Y-77363154D01*
X84291684Y-77435625D01*
X84291678Y-77435630D01*
X84189189Y-77538119D01*
X84189184Y-77538125D01*
X84116713Y-77663648D01*
X84116710Y-77663655D01*
X84092766Y-77753012D01*
X84060673Y-77808598D01*
X83885981Y-77983291D01*
X83824658Y-78016776D01*
X83754967Y-78011792D01*
X83699033Y-77969921D01*
X83674616Y-77904456D01*
X83674300Y-77895610D01*
X83674300Y-76306835D01*
X83690912Y-76244836D01*
X83736784Y-76165385D01*
X83774300Y-76025375D01*
X83774300Y-75880425D01*
X83736784Y-75740415D01*
X83664309Y-75614885D01*
X83561815Y-75512391D01*
X83559917Y-75511295D01*
X83506447Y-75480423D01*
X83458232Y-75429856D01*
X83445010Y-75361249D01*
X83470978Y-75296384D01*
X83480761Y-75285362D01*
X83498909Y-75267215D01*
X83571384Y-75141685D01*
X83608900Y-75001675D01*
X83608900Y-74856725D01*
X83571384Y-74716715D01*
X83566710Y-74708620D01*
X83498911Y-74591188D01*
X83498906Y-74591182D01*
X83396417Y-74488693D01*
X83396411Y-74488688D01*
X83270888Y-74416217D01*
X83270889Y-74416217D01*
X83259406Y-74413140D01*
X83130875Y-74378700D01*
X83130872Y-74378700D01*
X83054944Y-74378700D01*
X82987905Y-74359015D01*
X82967263Y-74342381D01*
X82868863Y-74243981D01*
X82835378Y-74182658D01*
X82840362Y-74112966D01*
X82882234Y-74057033D01*
X82947698Y-74032616D01*
X82956544Y-74032300D01*
X91259342Y-74032300D01*
X91259344Y-74032300D01*
X91348488Y-74008414D01*
X91359112Y-74002280D01*
X91428412Y-73962270D01*
X115506063Y-49884619D01*
X115567386Y-49851134D01*
X115593744Y-49848300D01*
X115669672Y-49848300D01*
X115669675Y-49848300D01*
X115809685Y-49810784D01*
X115935215Y-49738309D01*
X116037709Y-49635815D01*
X116110184Y-49510285D01*
X116147700Y-49370275D01*
X116147700Y-49225325D01*
X116110184Y-49085315D01*
X116037709Y-48959785D01*
X115935215Y-48857291D01*
X115935213Y-48857290D01*
X115935211Y-48857288D01*
X115809687Y-48784817D01*
X115809686Y-48784816D01*
X115809685Y-48784816D01*
X115801318Y-48782574D01*
X115741659Y-48746210D01*
X115711130Y-48683363D01*
X115719425Y-48613988D01*
X115763910Y-48560110D01*
X115801317Y-48543026D01*
X115809685Y-48540784D01*
X115935215Y-48468309D01*
X116037709Y-48365815D01*
X116110184Y-48240285D01*
X116147700Y-48100275D01*
X116147700Y-47955325D01*
X116110184Y-47815315D01*
X116101151Y-47799670D01*
X116037711Y-47689788D01*
X116037706Y-47689782D01*
X115935217Y-47587293D01*
X115935211Y-47587288D01*
X115809687Y-47514817D01*
X115809686Y-47514816D01*
X115809685Y-47514816D01*
X115801318Y-47512574D01*
X115741659Y-47476210D01*
X115711130Y-47413363D01*
X115719425Y-47343988D01*
X115763910Y-47290110D01*
X115801317Y-47273026D01*
X115809685Y-47270784D01*
X115935215Y-47198309D01*
X116037709Y-47095815D01*
X116110184Y-46970285D01*
X116147700Y-46830275D01*
X116147700Y-46685325D01*
X116110184Y-46545315D01*
X116077259Y-46488288D01*
X116037711Y-46419788D01*
X116037706Y-46419782D01*
X115935217Y-46317293D01*
X115935211Y-46317288D01*
X115809688Y-46244817D01*
X115809689Y-46244817D01*
X115789775Y-46239481D01*
X115669675Y-46207300D01*
X115524725Y-46207300D01*
X115404625Y-46239481D01*
X115384711Y-46244817D01*
X115259188Y-46317288D01*
X115259182Y-46317293D01*
X115205495Y-46370981D01*
X115144172Y-46404466D01*
X115117814Y-46407300D01*
X106915056Y-46407300D01*
X106846012Y-46425800D01*
X106846011Y-46425799D01*
X106825914Y-46431185D01*
X106825909Y-46431187D01*
X106745991Y-46477327D01*
X106745986Y-46477331D01*
X84700337Y-68522981D01*
X84639014Y-68556466D01*
X84612656Y-68559300D01*
X84536725Y-68559300D01*
X84408193Y-68593740D01*
X84396711Y-68596817D01*
X84271188Y-68669288D01*
X84271182Y-68669293D01*
X84168693Y-68771782D01*
X84168688Y-68771788D01*
X84096217Y-68897311D01*
X84096216Y-68897315D01*
X84058700Y-69037325D01*
X84058700Y-69182275D01*
X84082951Y-69272780D01*
X84091104Y-69303206D01*
X84089441Y-69373056D01*
X84050279Y-69430919D01*
X83986050Y-69458423D01*
X83971329Y-69459300D01*
X79621475Y-69459300D01*
X79554436Y-69439615D01*
X79508681Y-69386811D01*
X79501700Y-69367394D01*
X79485713Y-69307729D01*
X79465532Y-69272775D01*
X79413240Y-69182202D01*
X79413235Y-69182196D01*
X79310746Y-69079707D01*
X79310740Y-69079702D01*
X79185217Y-69007231D01*
X79185218Y-69007231D01*
X79182773Y-69006576D01*
X79161866Y-69000973D01*
X79102208Y-68964610D01*
X79071679Y-68901763D01*
X79079974Y-68832387D01*
X79124459Y-68778509D01*
X79191011Y-68757235D01*
X79193962Y-68757200D01*
X82989142Y-68757200D01*
X82989144Y-68757200D01*
X83071930Y-68735018D01*
X83146153Y-68692165D01*
X84924452Y-66913863D01*
X84924457Y-66913860D01*
X84934660Y-66903656D01*
X84934662Y-66903656D01*
X84995265Y-66843053D01*
X85031610Y-66780102D01*
X85031611Y-66780101D01*
X85038117Y-66768832D01*
X85038118Y-66768830D01*
X85060301Y-66686044D01*
X85060301Y-66600338D01*
X85060301Y-66592743D01*
X85060300Y-66592725D01*
X85060300Y-65215286D01*
X85079985Y-65148247D01*
X85096619Y-65127605D01*
X85175309Y-65048915D01*
X85247784Y-64923385D01*
X85285300Y-64783375D01*
X85285300Y-64638425D01*
X85247784Y-64498415D01*
X85190766Y-64399658D01*
X85175311Y-64372888D01*
X85175306Y-64372882D01*
X85124671Y-64322247D01*
X85091186Y-64260924D01*
X85096170Y-64191232D01*
X85117478Y-64158094D01*
X85116056Y-64157003D01*
X85121002Y-64150556D01*
X85121003Y-64150553D01*
X85121005Y-64150552D01*
X85193480Y-64025022D01*
X85230996Y-63885012D01*
X85230996Y-63740062D01*
X85193480Y-63600052D01*
X85121005Y-63474522D01*
X85018511Y-63372028D01*
X85018509Y-63372027D01*
X85018507Y-63372025D01*
X84892984Y-63299554D01*
X84892985Y-63299554D01*
X84881502Y-63296477D01*
X84752971Y-63262037D01*
X84608021Y-63262037D01*
X84479489Y-63296477D01*
X84468007Y-63299554D01*
X84342484Y-63372025D01*
X84342478Y-63372030D01*
X84239989Y-63474519D01*
X84239984Y-63474525D01*
X84167513Y-63600048D01*
X84167512Y-63600052D01*
X84129996Y-63740062D01*
X84129996Y-63740064D01*
X84129996Y-63849419D01*
X84110311Y-63916458D01*
X84093677Y-63937100D01*
X83912781Y-64117996D01*
X83851458Y-64151481D01*
X83781766Y-64146497D01*
X83725833Y-64104625D01*
X83701416Y-64039161D01*
X83701100Y-64030315D01*
X83701100Y-62284804D01*
X83717712Y-62222806D01*
X83787584Y-62101785D01*
X83825100Y-61961775D01*
X83825100Y-61816825D01*
X83787584Y-61676815D01*
X83715109Y-61551285D01*
X83612615Y-61448791D01*
X83610717Y-61447695D01*
X83557247Y-61416823D01*
X83509032Y-61366256D01*
X83495810Y-61297649D01*
X83521778Y-61232784D01*
X83531561Y-61221762D01*
X83549709Y-61203615D01*
X83622184Y-61078085D01*
X83659700Y-60938075D01*
X83659700Y-60793125D01*
X83622184Y-60653115D01*
X83549709Y-60527585D01*
X83447215Y-60425091D01*
X83447213Y-60425090D01*
X83447211Y-60425088D01*
X83321688Y-60352617D01*
X83321689Y-60352617D01*
X83310206Y-60349540D01*
X83181675Y-60315100D01*
X83181672Y-60315100D01*
X83105744Y-60315100D01*
X83038705Y-60295415D01*
X83018063Y-60278781D01*
X82886263Y-60146981D01*
X82852778Y-60085658D01*
X82857762Y-60015966D01*
X82899634Y-59960033D01*
X82965098Y-59935616D01*
X82973944Y-59935300D01*
X89757776Y-59935300D01*
X89757778Y-59935300D01*
X89846922Y-59911414D01*
X89857546Y-59905280D01*
X89926846Y-59865270D01*
X105187497Y-44604619D01*
X105248820Y-44571134D01*
X105275178Y-44568300D01*
X115117814Y-44568300D01*
X115184853Y-44587985D01*
X115205495Y-44604619D01*
X115259185Y-44658309D01*
X115259186Y-44658310D01*
X115259188Y-44658311D01*
X115384711Y-44730782D01*
X115384712Y-44730782D01*
X115384715Y-44730784D01*
X115524725Y-44768300D01*
X115524728Y-44768300D01*
X115669672Y-44768300D01*
X115669675Y-44768300D01*
X115809685Y-44730784D01*
X115935215Y-44658309D01*
X116037709Y-44555815D01*
X116110184Y-44430285D01*
X116147700Y-44290275D01*
X116147700Y-44145325D01*
X116110184Y-44005315D01*
X116070933Y-43937331D01*
X116037711Y-43879788D01*
X116037706Y-43879782D01*
X115935217Y-43777293D01*
X115935211Y-43777288D01*
X115809687Y-43704817D01*
X115809686Y-43704816D01*
X115809685Y-43704816D01*
X115801318Y-43702574D01*
X115741659Y-43666210D01*
X115711130Y-43603363D01*
X115719425Y-43533988D01*
X115763910Y-43480110D01*
X115801317Y-43463026D01*
X115809685Y-43460784D01*
X115935215Y-43388309D01*
X116037709Y-43285815D01*
X116110184Y-43160285D01*
X116147700Y-43020275D01*
X116147700Y-42875325D01*
X116110184Y-42735315D01*
X116069817Y-42665398D01*
X116037711Y-42609788D01*
X116037706Y-42609782D01*
X115935217Y-42507293D01*
X115935211Y-42507288D01*
X115809687Y-42434817D01*
X115809686Y-42434816D01*
X115809685Y-42434816D01*
X115801318Y-42432574D01*
X115741659Y-42396210D01*
X115711130Y-42333363D01*
X115719425Y-42263988D01*
X115763910Y-42210110D01*
X115801317Y-42193026D01*
X115809685Y-42190784D01*
X115935215Y-42118309D01*
X116037709Y-42015815D01*
X116110184Y-41890285D01*
X116147700Y-41750275D01*
X116147700Y-41605325D01*
X116110184Y-41465315D01*
X116070933Y-41397331D01*
X116037711Y-41339788D01*
X116037706Y-41339782D01*
X115935217Y-41237293D01*
X115935211Y-41237288D01*
X115809688Y-41164817D01*
X115809689Y-41164817D01*
X115794324Y-41160700D01*
X115669675Y-41127300D01*
X115524725Y-41127300D01*
X115400076Y-41160700D01*
X115384711Y-41164817D01*
X115259188Y-41237288D01*
X115259182Y-41237293D01*
X115205495Y-41290981D01*
X115144172Y-41324466D01*
X115117814Y-41327300D01*
X96501706Y-41327300D01*
X96412562Y-41351186D01*
X96412559Y-41351187D01*
X96332641Y-41397327D01*
X96332636Y-41397331D01*
X85298781Y-52431187D01*
X85237458Y-52464672D01*
X85167766Y-52459688D01*
X85111833Y-52417816D01*
X85087416Y-52352352D01*
X85087100Y-52343506D01*
X85087100Y-51175986D01*
X85106785Y-51108947D01*
X85123419Y-51088305D01*
X85162389Y-51049335D01*
X85202109Y-51009615D01*
X85274584Y-50884085D01*
X85312100Y-50744075D01*
X85312100Y-50599125D01*
X85274584Y-50459115D01*
X85228247Y-50378858D01*
X85202111Y-50333588D01*
X85202106Y-50333582D01*
X85151471Y-50282947D01*
X85117986Y-50221624D01*
X85122970Y-50151932D01*
X85144278Y-50118794D01*
X85142856Y-50117703D01*
X85147802Y-50111256D01*
X85147803Y-50111253D01*
X85147805Y-50111252D01*
X85220280Y-49985722D01*
X85257796Y-49845712D01*
X85257796Y-49700762D01*
X85220280Y-49560752D01*
X85199595Y-49524925D01*
X85147807Y-49435225D01*
X85147802Y-49435219D01*
X85045313Y-49332730D01*
X85045307Y-49332725D01*
X84919784Y-49260254D01*
X84919785Y-49260254D01*
X84908302Y-49257177D01*
X84779771Y-49222737D01*
X84634821Y-49222737D01*
X84506289Y-49257177D01*
X84494807Y-49260254D01*
X84369284Y-49332725D01*
X84369278Y-49332730D01*
X84266789Y-49435219D01*
X84266784Y-49435225D01*
X84194313Y-49560748D01*
X84194312Y-49560752D01*
X84156796Y-49700762D01*
X84156796Y-49700764D01*
X84156796Y-49810119D01*
X84137111Y-49877158D01*
X84120477Y-49897800D01*
X83963581Y-50054696D01*
X83902258Y-50088181D01*
X83832566Y-50083197D01*
X83776633Y-50041325D01*
X83752216Y-49975861D01*
X83751900Y-49967015D01*
X83751900Y-48203935D01*
X83768512Y-48141936D01*
X83814384Y-48062485D01*
X83851900Y-47922475D01*
X83851900Y-47777525D01*
X83814384Y-47637515D01*
X83787360Y-47590709D01*
X83741911Y-47511988D01*
X83741906Y-47511982D01*
X83639417Y-47409493D01*
X83639415Y-47409491D01*
X83637517Y-47408395D01*
X83584047Y-47377523D01*
X83535832Y-47326956D01*
X83522610Y-47258349D01*
X83548578Y-47193484D01*
X83558361Y-47182462D01*
X83576509Y-47164315D01*
X83648984Y-47038785D01*
X83686500Y-46898775D01*
X83686500Y-46753825D01*
X83648984Y-46613815D01*
X83609435Y-46545315D01*
X83576511Y-46488288D01*
X83576506Y-46488282D01*
X83474017Y-46385793D01*
X83474011Y-46385788D01*
X83348488Y-46313317D01*
X83348489Y-46313317D01*
X83337006Y-46310240D01*
X83208475Y-46275800D01*
X83208472Y-46275800D01*
X83132544Y-46275800D01*
X83065505Y-46256115D01*
X83044863Y-46239481D01*
X82834713Y-46029331D01*
X82834708Y-46029327D01*
X82754790Y-45983187D01*
X82754789Y-45983186D01*
X82754788Y-45983186D01*
X82665644Y-45959300D01*
X82665643Y-45959300D01*
X74547586Y-45959300D01*
X74480547Y-45939615D01*
X74434792Y-45886811D01*
X74424848Y-45817653D01*
X74453873Y-45754097D01*
X74459905Y-45747619D01*
X74460815Y-45746709D01*
X74563309Y-45644215D01*
X74635784Y-45518685D01*
X74673300Y-45378675D01*
X74673300Y-45233725D01*
X74635784Y-45093715D01*
X74614944Y-45057620D01*
X74563311Y-44968188D01*
X74563306Y-44968182D01*
X74509619Y-44914495D01*
X74476134Y-44853172D01*
X74473300Y-44826814D01*
X74473300Y-42708743D01*
X74492985Y-42641704D01*
X74509619Y-42621062D01*
X77606062Y-39524619D01*
X77667385Y-39491134D01*
X77693743Y-39488300D01*
X115117814Y-39488300D01*
X115184853Y-39507985D01*
X115205495Y-39524619D01*
X115259185Y-39578309D01*
X115259186Y-39578310D01*
X115259188Y-39578311D01*
X115384711Y-39650782D01*
X115384712Y-39650782D01*
X115384715Y-39650784D01*
X115524725Y-39688300D01*
X115524728Y-39688300D01*
X115669672Y-39688300D01*
X115669675Y-39688300D01*
X115809685Y-39650784D01*
X115935215Y-39578309D01*
X116037709Y-39475815D01*
X116110184Y-39350285D01*
X116147700Y-39210275D01*
X116147700Y-39065325D01*
X116110184Y-38925315D01*
X116070934Y-38857333D01*
X116037711Y-38799788D01*
X116037706Y-38799782D01*
X115935217Y-38697293D01*
X115935211Y-38697288D01*
X115809688Y-38624817D01*
X115809689Y-38624817D01*
X115798206Y-38621740D01*
X115669675Y-38587300D01*
X115524725Y-38587300D01*
X115396193Y-38621740D01*
X115384711Y-38624817D01*
X115259188Y-38697288D01*
X115259182Y-38697293D01*
X115205495Y-38750981D01*
X115144172Y-38784466D01*
X115117814Y-38787300D01*
X77451056Y-38787300D01*
X77361912Y-38811186D01*
X77361911Y-38811186D01*
X77361909Y-38811187D01*
X77361906Y-38811188D01*
X77281994Y-38857326D01*
X77281985Y-38857333D01*
X73842331Y-42296986D01*
X73842327Y-42296991D01*
X73796187Y-42376909D01*
X73796186Y-42376912D01*
X73772300Y-42466056D01*
X73772300Y-44826814D01*
X73752615Y-44893853D01*
X73735981Y-44914495D01*
X73682293Y-44968182D01*
X73682288Y-44968188D01*
X73609817Y-45093711D01*
X73609816Y-45093715D01*
X73572300Y-45233725D01*
X73572300Y-45378675D01*
X73609816Y-45518685D01*
X73609817Y-45518688D01*
X73682288Y-45644211D01*
X73682293Y-45644217D01*
X73785695Y-45747619D01*
X73819180Y-45808942D01*
X73814196Y-45878634D01*
X73772324Y-45934567D01*
X73706860Y-45958984D01*
X73698014Y-45959300D01*
X68697725Y-45959300D01*
X68630686Y-45939615D01*
X68584931Y-45886811D01*
X68583164Y-45882752D01*
X68553943Y-45812205D01*
X68438975Y-45640142D01*
X68292657Y-45493824D01*
X68176600Y-45416278D01*
X68120598Y-45378859D01*
X67929420Y-45299670D01*
X67929412Y-45299668D01*
X67726469Y-45259300D01*
X67726465Y-45259300D01*
X67269535Y-45259300D01*
X67269530Y-45259300D01*
X67066587Y-45299668D01*
X67066579Y-45299670D01*
X66875403Y-45378858D01*
X66703342Y-45493824D01*
X66557024Y-45640142D01*
X66442058Y-45812203D01*
X66362870Y-46003379D01*
X66362868Y-46003387D01*
X66322500Y-46206330D01*
X64514300Y-46206330D01*
X64514300Y-34279900D01*
X64533985Y-34212861D01*
X64586789Y-34167106D01*
X64638300Y-34155900D01*
X149944500Y-34155900D01*
X150011539Y-34175585D01*
G37*
%TD.AperFunction*%
%TD*%
M02*
