M48
; DRILL file KiCad 10.0.5-unknown-202607221313~667fa36054~ubuntu25.10.1 date 2026-09-21T16:58:15
; FORMAT={-:-/ absolute / metric / decimal}
; #@! TF.CreationDate,2026-09-21T16:58:15+00:00
; #@! TF.GenerationSoftware,Kicad,Pcbnew,10.0.5-unknown-202607221313~667fa36054~ubuntu25.10.1
; #@! TF.FileFunction,Plated,1,4,PTH
FMAT,2
METRIC
; #@! TA.AperFunction,Plated,PTH,ViaDrill
T1C0.300
; #@! TA.AperFunction,Plated,PTH,ComponentDrill
T2C0.600
; #@! TA.AperFunction,Plated,PTH,ComponentDrill
T3C0.800
; #@! TA.AperFunction,Plated,PTH,ComponentDrill
T4C0.950
; #@! TA.AperFunction,Plated,PTH,ComponentDrill
T5C1.000
; #@! TA.AperFunction,Plated,PTH,ComponentDrill
T6C3.200
%
G90
G05
T1
X65.051Y-34.82
X72.773Y-75.815
X73.052Y-47.444
X73.128Y-80.641
X73.509Y-64.03
X73.611Y-50.111
X73.687Y-52.6
X73.84Y-67.256
X73.865Y-78.228
X74.045Y-73.682
X74.068Y-59.585
X74.123Y-45.306
X75.694Y-45.361
X75.745Y-69.44
X75.897Y-58.543
X75.922Y-72.971
X75.922Y-83.74
X76.71Y-86.052
X77.396Y-83.689
X77.904Y-47.164
X78.056Y-75.485
X78.081Y-40.179
X78.208Y-61.439
X78.973Y-69.52
X79.25Y-55.394
X79.275Y-83.842
X79.555Y-56.664
X79.885Y-70.735
X81.079Y-83.486
X82.271Y-81.82
X82.322Y-67.757
X82.349Y-53.717
X83.058Y-74.929
X83.109Y-60.866
X83.111Y-56.232
X83.136Y-46.826
X83.224Y-75.953
X83.224Y-80.576
X83.275Y-61.889
X83.275Y-66.512
X83.301Y-47.85
X83.301Y-52.473
X83.847Y-55.368
X84.355Y-83.842
X84.406Y-68.018
X84.482Y-82.267
X84.609Y-69.11
X84.63Y-77.876
X84.68Y-63.813
X84.684Y-78.775
X84.707Y-49.773
X84.735Y-64.711
X84.762Y-50.672
X85.117Y-55.368
X85.498Y-72.336
X85.524Y-43.481
X85.574Y-70.659
X85.651Y-58.366
X85.752Y-105.051
X85.981Y-47.799
X86.108Y-61.82
X86.387Y-102.13
X86.692Y-75.942
X87.225Y-84.299
X88.114Y-99.234
X89.969Y-54.2
X90.07Y-99.488
X90.197Y-97.405
X90.4Y-60.829
X92.61Y-98.98
X95.15Y-105.102
X95.912Y-37.715
X96.065Y-100.022
X99.265Y-96.542
X103.964Y-100.666
X105.64Y-45.767
X107.393Y-105.203
X109.45Y-93.672
X110.009Y-52.955
X110.72Y-98.244
X110.771Y-95.602
X112.219Y-40.484
X112.397Y-48.866
X112.524Y-95.754
X112.6Y-93.849
X112.727Y-53.336
X113.54Y-91.284
X113.565Y-97.964
X114.022Y-76.349
X114.429Y-52.981
X114.429Y-91.005
X114.454Y-81.886
X115.597Y-39.138
X115.597Y-41.678
X115.597Y-42.948
X115.597Y-44.218
X115.597Y-45.462
X115.597Y-46.758
X115.597Y-48.028
X115.597Y-49.298
X115.597Y-96.161
X115.673Y-40.382
X115.724Y-91.03
X115.851Y-35.328
X115.953Y-93.646
X116.613Y-50.619
X117.096Y-51.558
X117.172Y-57.908
X118.366Y-51.558
X118.417Y-94.789
X119.966Y-81.276
X120.22Y-51.177
X122.176Y-51.558
X123.446Y-51.558
X124.259Y-60.55
X124.309Y-58.493
X124.335Y-64.309
X124.436Y-93.748
X124.767Y-54.505
X124.894Y-75.231
X124.944Y-87.55
X124.995Y-90.878
X126.011Y-57.096
X126.443Y-83.486
X127.891Y-87.449
X128.577Y-93.672
X128.958Y-55.648
X129.387Y-83.464
X129.999Y-35.455
X130.075Y-51.508
X130.329Y-94.586
X130.659Y-97.659
X131.218Y-53.209
X131.371Y-89.455
X131.879Y-86.941
X133.022Y-41.525
X133.047Y-37.792
X133.149Y-35.277
X133.199Y-51.863
X135.46Y-97.659
X135.968Y-60.931
X136.07Y-95.5
X136.466Y-42.424
X139.778Y-38.35
X140.083Y-35.531
X146.271Y-37.014
X146.55Y-43.516
X146.738Y-46.047
X146.89Y-63.7
X146.992Y-60.982
X147.779Y-52.168
X149.455Y-104.924
T3
X93.245Y-80.45
X93.245Y-82.45
X93.296Y-66.387
X93.296Y-68.387
X93.323Y-52.347
X93.323Y-54.347
X123.106Y-99.025
X123.106Y-101.025
T4
X67.498Y-46.31
X67.498Y-48.81
X67.498Y-51.31
X67.498Y-53.81
X67.523Y-60.331
X67.523Y-62.831
X67.523Y-65.331
X67.523Y-67.831
X67.549Y-74.402
X67.549Y-76.902
X67.549Y-79.402
X67.549Y-81.902
T5
X114.701Y-101.071
X117.201Y-101.071
X148.033Y-42.211
X148.033Y-44.751
X148.033Y-47.291
X148.033Y-49.831
X148.033Y-54.581
X148.033Y-57.121
X148.033Y-59.661
X148.033Y-62.201
T6
X68.826Y-38.69
X70.096Y-100.412
X132.326Y-67.646
X146.296Y-99.65
T2
G00X128.727Y-98.975
M15
G01X128.727Y-100.075
M16
G05
G00X128.727Y-103.305
M15
G01X128.727Y-104.105
M16
G05
G00X137.367Y-98.975
M15
G01X137.367Y-100.075
M16
G05
G00X137.367Y-103.305
M15
G01X137.367Y-104.105
M16
G05
M30
